WenQuanYiZenHei-Regular.ufo
<glyph name="exclam" format="2">
  <advance width="285"/>
  <unicode hex="0021"/>
  <outline>
    <contour>
      <point x="188" y="680" type="line"/>
      <point x="155" y="153" type="line"/>
      <point x="120" y="153" type="line"/>
      <point x="89" y="680" type="line"/>
    </contour>
    <contour>
      <point x="181" y="0" type="line"/>
      <point x="95" y="0" type="line"/>
      <point x="95" y="88" type="line"/>
      <point x="181" y="88" type="line"/>
    </contour>
  </outline>
</glyph>
<glyph name="quotedbl" format="2">
  <advance width="433"/>
  <unicode hex="0022"/>
  <outline>
    <contour>
      <point x="327" y="586" type="line"/>
      <point x="304" y="475" type="line"/>
      <point x="271" y="475" type="line"/>
      <point x="249" y="586" type="line"/>
      <point x="249" y="677" type="line"/>
      <point x="327" y="677" type="line"/>
    </contour>
    <contour>
      <point x="183" y="586" type="line"/>
      <point x="160" y="475" type="line"/>
      <point x="127" y="475" type="line"/>
      <point x="105" y="586" type="line"/>
      <point x="105" y="677" type="line"/>
      <point x="183" y="677" type="line"/>
    </contour>
  </outline>
</glyph>
<glyph name="numbersign" format="2">
  <advance width="599"/>
  <unicode hex="0023"/>
  <outline>
    <contour>
      <point x="564" y="452" type="line"/>
      <point x="448" y="452" type="line"/>
      <point x="417" y="276" type="line"/>
      <point x="535" y="276" type="line"/>
      <point x="535" y="225" type="line"/>
      <point x="409" y="225" type="line"/>
      <point x="370" y="0" type="line"/>
      <point x="316" y="0" type="line"/>
      <point x="354" y="225" type="line"/>
      <point x="203" y="225" type="line"/>
      <point x="163" y="0" type="line"/>
      <point x="110" y="0" type="line"/>
      <point x="150" y="225" type="line"/>
      <point x="37" y="225" type="line"/>
      <point x="37" y="276" type="line"/>
      <point x="159" y="276" type="line"/>
      <point x="191" y="452" type="line"/>
      <point x="74" y="452" type="line"/>
      <point x="74" y="504" type="line"/>
      <point x="200" y="504" type="line"/>
      <point x="235" y="702" type="line"/>
      <point x="289" y="702" type="line"/>
      <point x="253" y="504" type="line"/>
      <point x="402" y="504" type="line"/>
      <point x="436" y="702" type="line"/>
      <point x="491" y="702" type="line"/>
      <point x="457" y="504" type="line"/>
      <point x="564" y="504" type="line"/>
    </contour>
    <contour>
      <point x="393" y="452" type="line"/>
      <point x="244" y="452" type="line"/>
      <point x="213" y="276" type="line"/>
      <point x="363" y="276" type="line"/>
    </contour>
  </outline>
</glyph>
<glyph name="dollar" format="2">
  <advance width="571"/>
  <unicode hex="0024"/>
  <outline>
    <contour>
      <point x="512" y="204" type="curve" smooth="yes"/>
      <point x="512" y="154"/>
      <point x="495" y="112"/>
      <point x="460" y="77" type="curve" smooth="yes"/>
      <point x="454" y="72"/>
      <point x="450" y="68"/>
      <point x="445" y="64" type="curve" smooth="yes"/>
      <point x="416" y="41"/>
      <point x="373" y="27"/>
      <point x="316" y="20" type="curve"/>
      <point x="316" y="-71" type="line"/>
      <point x="266" y="-71" type="line"/>
      <point x="266" y="28" type="line"/>
      <point x="170" y="37"/>
      <point x="105" y="78"/>
      <point x="71" y="151" type="curve" smooth="yes"/>
      <point x="67" y="160"/>
      <point x="64" y="169"/>
      <point x="60" y="178" type="curve"/>
      <point x="122" y="206" type="line"/>
      <point x="140" y="151"/>
      <point x="173" y="113"/>
      <point x="220" y="95" type="curve" smooth="yes"/>
      <point x="235" y="90"/>
      <point x="250" y="87"/>
      <point x="266" y="86" type="curve"/>
      <point x="266" y="338" type="line"/>
      <point x="188" y="357"/>
      <point x="137" y="385"/>
      <point x="112" y="424" type="curve" smooth="yes"/>
      <point x="97" y="447"/>
      <point x="89" y="475"/>
      <point x="89" y="507" type="curve" smooth="yes"/>
      <point x="89" y="587"/>
      <point x="128" y="641"/>
      <point x="205" y="669" type="curve" smooth="yes"/>
      <point x="223" y="676"/>
      <point x="244" y="680"/>
      <point x="266" y="683" type="curve"/>
      <point x="266" y="768" type="line"/>
      <point x="316" y="768" type="line"/>
      <point x="316" y="683" type="line"/>
      <point x="411" y="676"/>
      <point x="473" y="634"/>
      <point x="502" y="559" type="curve"/>
      <point x="445" y="535" type="line"/>
      <point x="430" y="585"/>
      <point x="397" y="615"/>
      <point x="344" y="627" type="curve" smooth="yes"/>
      <point x="335" y="628"/>
      <point x="325" y="628"/>
      <point x="316" y="629" type="curve"/>
      <point x="316" y="392" type="line"/>
      <point x="402" y="373"/>
      <point x="459" y="342"/>
      <point x="487" y="299" type="curve" smooth="yes"/>
      <point x="504" y="273"/>
      <point x="512" y="241"/>
    </contour>
    <contour>
      <point x="266" y="402" type="curve"/>
      <point x="266" y="629" type="line"/>
      <point x="219" y="625"/>
      <point x="185" y="607"/>
      <point x="164" y="573" type="curve" smooth="yes"/>
      <point x="154" y="557"/>
      <point x="149" y="538"/>
      <point x="149" y="517" type="curve" smooth="yes"/>
      <point x="149" y="456"/>
      <point x="188" y="418"/>
    </contour>
    <contour>
      <point x="449" y="212" type="curve" smooth="yes"/>
      <point x="449" y="269"/>
      <point x="414" y="306"/>
      <point x="345" y="322" type="curve" smooth="yes"/>
      <point x="335" y="324"/>
      <point x="325" y="326"/>
      <point x="316" y="328" type="curve"/>
      <point x="316" y="99" type="line"/>
      <point x="363" y="99"/>
      <point x="399" y="114"/>
      <point x="425" y="145" type="curve" smooth="yes"/>
      <point x="441" y="164"/>
      <point x="449" y="186"/>
    </contour>
  </outline>
</glyph>
<glyph name="percent" format="2">
  <advance width="667"/>
  <unicode hex="0025"/>
  <outline>
    <contour>
      <point x="641" y="171" type="curve" smooth="yes"/>
      <point x="641" y="106"/>
      <point x="626" y="57"/>
      <point x="596" y="23" type="curve"/>
      <point x="573" y="7" type="line" smooth="yes"/>
      <point x="562" y="2"/>
      <point x="551" y="-3"/>
      <point x="538" y="-5" type="curve" smooth="yes"/>
      <point x="508" y="-8" type="line"/>
      <point x="454" y="-8"/>
      <point x="415" y="22"/>
      <point x="392" y="80" type="curve" smooth="yes"/>
      <point x="380" y="109"/>
      <point x="375" y="139"/>
      <point x="375" y="173" type="curve" smooth="yes"/>
      <point x="375" y="241"/>
      <point x="393" y="292"/>
      <point x="429" y="326" type="curve" smooth="yes"/>
      <point x="450" y="345"/>
      <point x="477" y="355"/>
      <point x="507" y="355" type="curve" smooth="yes"/>
      <point x="563" y="355"/>
      <point x="602" y="325"/>
      <point x="625" y="264" type="curve" smooth="yes"/>
      <point x="635" y="237"/>
      <point x="641" y="205"/>
    </contour>
    <contour>
      <point x="506" y="313" type="curve" smooth="yes"/>
      <point x="452" y="313"/>
      <point x="425" y="266"/>
      <point x="425" y="173" type="curve" smooth="yes"/>
      <point x="425" y="95"/>
      <point x="445" y="49"/>
      <point x="485" y="37" type="curve" smooth="yes"/>
      <point x="492" y="35"/>
      <point x="499" y="34"/>
      <point x="508" y="34" type="curve" smooth="yes"/>
      <point x="553" y="34"/>
      <point x="580" y="66"/>
      <point x="589" y="131" type="curve" smooth="yes"/>
      <point x="590" y="143"/>
      <point x="591" y="156"/>
      <point x="591" y="168" type="curve" smooth="yes"/>
      <point x="591" y="265"/>
      <point x="563" y="313"/>
    </contour>
    <contour>
      <point x="571" y="704" type="line"/>
      <point x="171" y="0" type="line"/>
      <point x="97" y="0" type="line"/>
      <point x="497" y="704" type="line"/>
    </contour>
    <contour>
      <point x="293" y="530" type="curve" smooth="yes"/>
      <point x="293" y="466"/>
      <point x="276" y="417"/>
      <point x="242" y="383" type="curve" smooth="yes"/>
      <point x="220" y="360"/>
      <point x="192" y="349"/>
      <point x="160" y="349" type="curve" smooth="yes"/>
      <point x="106" y="349"/>
      <point x="67" y="379"/>
      <point x="44" y="437" type="curve" smooth="yes"/>
      <point x="33" y="466"/>
      <point x="27" y="496"/>
      <point x="27" y="530" type="curve" smooth="yes"/>
      <point x="27" y="599"/>
      <point x="45" y="650"/>
      <point x="80" y="683" type="curve" smooth="yes"/>
      <point x="101" y="703"/>
      <point x="127" y="713"/>
      <point x="158" y="713" type="curve" smooth="yes"/>
      <point x="214" y="713"/>
      <point x="254" y="682"/>
      <point x="277" y="622" type="curve" smooth="yes"/>
      <point x="287" y="595"/>
      <point x="293" y="564"/>
    </contour>
    <contour>
      <point x="158" y="671" type="curve" smooth="yes"/>
      <point x="104" y="671"/>
      <point x="77" y="624"/>
      <point x="77" y="530" type="curve" smooth="yes"/>
      <point x="77" y="452"/>
      <point x="97" y="407"/>
      <point x="138" y="394" type="curve" smooth="yes"/>
      <point x="145" y="392"/>
      <point x="152" y="391"/>
      <point x="160" y="391" type="curve" smooth="yes"/>
      <point x="205" y="391"/>
      <point x="232" y="424"/>
      <point x="241" y="489" type="curve" smooth="yes"/>
      <point x="242" y="501"/>
      <point x="243" y="513"/>
      <point x="243" y="525" type="curve" smooth="yes"/>
      <point x="243" y="622"/>
      <point x="215" y="671"/>
    </contour>
  </outline>
</glyph>
<glyph name="ampersand" format="2">
  <advance width="650"/>
  <unicode hex="0026"/>
  <outline>
    <contour>
      <point x="614" y="10" type="line"/>
      <point x="537" y="4" type="line"/>
      <point x="505" y="4"/>
      <point x="476" y="14"/>
      <point x="450" y="33" type="curve"/>
      <point x="449" y="33"/>
      <point x="440" y="40"/>
      <point x="423" y="54" type="curve"/>
      <point x="375" y="19"/>
      <point x="323" y="0"/>
      <point x="266" y="-2" type="curve" smooth="yes"/>
      <point x="261" y="-2"/>
      <point x="260" y="-2"/>
      <point x="254" y="-2" type="curve" smooth="yes"/>
      <point x="189" y="-2"/>
      <point x="137" y="20"/>
      <point x="95" y="63" type="curve" smooth="yes"/>
      <point x="60" y="101"/>
      <point x="42" y="147"/>
      <point x="42" y="201" type="curve" smooth="yes"/>
      <point x="42" y="266"/>
      <point x="67" y="321"/>
      <point x="117" y="365" type="curve" smooth="yes"/>
      <point x="140" y="385"/>
      <point x="164" y="400"/>
      <point x="192" y="410" type="curve"/>
      <point x="156" y="472"/>
      <point x="139" y="522"/>
      <point x="139" y="561" type="curve" smooth="yes"/>
      <point x="139" y="617"/>
      <point x="160" y="658"/>
      <point x="203" y="685" type="curve" smooth="yes"/>
      <point x="226" y="699"/>
      <point x="252" y="707"/>
      <point x="281" y="707" type="curve" smooth="yes"/>
      <point x="338" y="707"/>
      <point x="381" y="686"/>
      <point x="408" y="644" type="curve" smooth="yes"/>
      <point x="423" y="620"/>
      <point x="431" y="593"/>
      <point x="431" y="561" type="curve" smooth="yes"/>
      <point x="431" y="497"/>
      <point x="398" y="444"/>
      <point x="332" y="402" type="curve"/>
      <point x="297" y="384" type="line"/>
      <point x="441" y="157" type="line"/>
      <point x="485" y="218"/>
      <point x="513" y="293"/>
      <point x="526" y="384" type="curve"/>
      <point x="602" y="369" type="line"/>
      <point x="580" y="265"/>
      <point x="537" y="176"/>
      <point x="472" y="103" type="curve"/>
      <point x="495" y="78"/>
      <point x="518" y="65"/>
      <point x="541" y="65" type="curve" smooth="yes"/>
      <point x="549" y="65"/>
      <point x="573" y="66"/>
      <point x="614" y="69" type="curve"/>
    </contour>
    <contour>
      <point x="378" y="564" type="curve" smooth="yes"/>
      <point x="378" y="601"/>
      <point x="361" y="628"/>
      <point x="328" y="644" type="curve" smooth="yes"/>
      <point x="314" y="651"/>
      <point x="299" y="654"/>
      <point x="282" y="654" type="curve" smooth="yes"/>
      <point x="249" y="654"/>
      <point x="224" y="640"/>
      <point x="209" y="612" type="curve"/>
      <point x="200" y="590" type="line" smooth="yes"/>
      <point x="199" y="585"/>
      <point x="198" y="578"/>
      <point x="198" y="571" type="curve" smooth="yes"/>
      <point x="198" y="542"/>
      <point x="219" y="496"/>
      <point x="261" y="435" type="curve"/>
      <point x="302" y="460"/>
      <point x="326" y="475"/>
      <point x="332" y="479" type="curve" smooth="yes"/>
      <point x="363" y="504"/>
      <point x="378" y="532"/>
    </contour>
    <contour>
      <point x="391" y="106" type="curve"/>
      <point x="225" y="355" type="line"/>
      <point x="173" y="329"/>
      <point x="139" y="300"/>
      <point x="124" y="266" type="curve" smooth="yes"/>
      <point x="116" y="247"/>
      <point x="112" y="225"/>
      <point x="112" y="200" type="curve" smooth="yes"/>
      <point x="112" y="132"/>
      <point x="139" y="86"/>
      <point x="193" y="64" type="curve" smooth="yes"/>
      <point x="214" y="55"/>
      <point x="236" y="51"/>
      <point x="262" y="51" type="curve" smooth="yes"/>
      <point x="313" y="51"/>
      <point x="356" y="69"/>
    </contour>
  </outline>
</glyph>
<glyph name="quotesingle" format="2">
  <advance width="288"/>
  <unicode hex="0027"/>
  <outline>
    <contour>
      <point x="183" y="586" type="line"/>
      <point x="160" y="475" type="line"/>
      <point x="127" y="475" type="line"/>
      <point x="105" y="586" type="line"/>
      <point x="105" y="677" type="line"/>
      <point x="183" y="677" type="line"/>
    </contour>
  </outline>
</glyph>
<glyph name="parenleft" format="2">
  <advance width="292"/>
  <unicode hex="0028"/>
  <outline>
    <contour>
      <point x="242" y="-175" type="curve"/>
      <point x="189" y="-175" type="line"/>
      <point x="112" y="-69"/>
      <point x="67" y="55"/>
      <point x="54" y="197" type="curve" smooth="yes"/>
      <point x="52" y="219"/>
      <point x="51" y="242"/>
      <point x="51" y="265" type="curve" smooth="yes"/>
      <point x="51" y="412"/>
      <point x="91" y="550"/>
      <point x="172" y="679" type="curve" smooth="yes"/>
      <point x="177" y="686"/>
      <point x="183" y="694"/>
      <point x="188" y="702" type="curve"/>
      <point x="241" y="702" type="line"/>
      <point x="156" y="572"/>
      <point x="113" y="428"/>
      <point x="112" y="269" type="curve" smooth="yes"/>
      <point x="112" y="110"/>
      <point x="155" y="-38"/>
    </contour>
  </outline>
</glyph>
<glyph name="parenright" format="2">
  <advance width="292"/>
  <unicode hex="0029"/>
  <outline>
    <contour>
      <point x="241" y="265" type="curve" smooth="yes"/>
      <point x="241" y="121"/>
      <point x="205" y="-9"/>
      <point x="135" y="-126" type="curve" smooth="yes"/>
      <point x="125" y="-143"/>
      <point x="115" y="-160"/>
      <point x="103" y="-175" type="curve"/>
      <point x="50" y="-175" type="line"/>
      <point x="137" y="-38"/>
      <point x="180" y="110"/>
      <point x="180" y="269" type="curve" smooth="yes"/>
      <point x="180" y="428"/>
      <point x="138" y="571"/>
      <point x="54" y="698" type="curve" smooth="yes"/>
      <point x="53" y="699"/>
      <point x="52" y="701"/>
      <point x="51" y="702" type="curve"/>
      <point x="104" y="702" type="line"/>
      <point x="188" y="579"/>
      <point x="233" y="444"/>
      <point x="240" y="298" type="curve" smooth="yes"/>
      <point x="241" y="287"/>
      <point x="241" y="276"/>
    </contour>
  </outline>
</glyph>
<glyph name="asterisk" format="2">
  <advance width="603"/>
  <unicode hex="002A"/>
  <outline>
    <contour>
      <point x="499" y="404" type="line"/>
      <point x="470" y="352" type="line"/>
      <point x="323" y="446" type="line"/>
      <point x="329" y="271" type="line"/>
      <point x="281" y="271" type="line"/>
      <point x="287" y="446" type="line"/>
      <point x="136" y="352" type="line"/>
      <point x="104" y="404" type="line"/>
      <point x="262" y="486" type="line"/>
      <point x="104" y="568" type="line"/>
      <point x="136" y="621" type="line"/>
      <point x="287" y="526" type="line"/>
      <point x="281" y="702" type="line"/>
      <point x="329" y="702" type="line"/>
      <point x="323" y="526" type="line"/>
      <point x="470" y="621" type="line"/>
      <point x="499" y="568" type="line"/>
      <point x="340" y="486" type="line"/>
    </contour>
  </outline>
</glyph>
<glyph name="plus" format="2">
  <advance width="601"/>
  <unicode hex="002B"/>
  <outline>
    <contour>
      <point x="558" y="268" type="line"/>
      <point x="327" y="268" type="line"/>
      <point x="327" y="37" type="line"/>
      <point x="273" y="37" type="line"/>
      <point x="273" y="268" type="line"/>
      <point x="42" y="268" type="line"/>
      <point x="42" y="322" type="line"/>
      <point x="273" y="322" type="line"/>
      <point x="273" y="553" type="line"/>
      <point x="327" y="553" type="line"/>
      <point x="327" y="322" type="line"/>
      <point x="558" y="322" type="line"/>
    </contour>
  </outline>
</glyph>
<glyph name="comma" format="2">
  <advance width="284"/>
  <unicode hex="002C"/>
  <outline>
    <contour>
      <point x="195" y="10" type="line"/>
      <point x="134" y="-132" type="line"/>
      <point x="97" y="-132" type="line"/>
      <point x="148" y="0" type="line"/>
      <point x="105" y="0" type="line"/>
      <point x="105" y="94" type="line"/>
      <point x="195" y="94" type="line"/>
    </contour>
  </outline>
</glyph>
<glyph name="hyphen" format="2">
  <advance width="263"/>
  <unicode hex="002D"/>
  <outline>
    <contour>
      <point x="174" y="236" type="line"/>
      <point x="0" y="236" type="line"/>
      <point x="0" y="289" type="line"/>
      <point x="174" y="289" type="line"/>
    </contour>
  </outline>
</glyph>
<glyph name="period" format="2">
  <advance width="284"/>
  <unicode hex="002E"/>
  <outline>
    <contour>
      <point x="192" y="0" type="line"/>
      <point x="101" y="0" type="line"/>
      <point x="101" y="93" type="line"/>
      <point x="192" y="93" type="line"/>
    </contour>
  </outline>
</glyph>
<glyph name="zero" format="2">
  <advance width="578"/>
  <unicode hex="0030"/>
  <outline>
    <contour>
      <point x="537" y="348" type="curve" smooth="yes"/>
      <point x="537" y="255"/>
      <point x="516" y="174"/>
      <point x="475" y="106" type="curve" smooth="yes"/>
      <point x="430" y="33"/>
      <point x="369" y="-4"/>
      <point x="292" y="-4" type="curve" smooth="yes"/>
      <point x="201" y="-4"/>
      <point x="133" y="42"/>
      <point x="87" y="136" type="curve" smooth="yes"/>
      <point x="57" y="198"/>
      <point x="41" y="270"/>
      <point x="41" y="350" type="curve" smooth="yes"/>
      <point x="41" y="455"/>
      <point x="63" y="540"/>
      <point x="107" y="606" type="curve" smooth="yes"/>
      <point x="151" y="673"/>
      <point x="209" y="706"/>
      <point x="284" y="706" type="curve" smooth="yes"/>
      <point x="381" y="706"/>
      <point x="452" y="656"/>
      <point x="496" y="556" type="curve" smooth="yes"/>
      <point x="523" y="496"/>
      <point x="537" y="427"/>
    </contour>
    <contour>
      <point x="465" y="335" type="curve" smooth="yes"/>
      <point x="465" y="472"/>
      <point x="437" y="565"/>
      <point x="382" y="614" type="curve"/>
      <point x="358" y="633" type="line"/>
      <point x="336" y="645"/>
      <point x="311" y="651"/>
      <point x="284" y="651" type="curve" smooth="yes"/>
      <point x="200" y="651"/>
      <point x="147" y="592"/>
      <point x="124" y="475" type="curve" smooth="yes"/>
      <point x="117" y="439"/>
      <point x="113" y="400"/>
      <point x="113" y="356" type="curve" smooth="yes"/>
      <point x="113" y="224"/>
      <point x="141" y="133"/>
      <point x="196" y="85" type="curve" smooth="yes"/>
      <point x="223" y="62"/>
      <point x="255" y="50"/>
      <point x="292" y="50" type="curve" smooth="yes"/>
      <point x="371" y="50"/>
      <point x="423" y="101"/>
      <point x="450" y="203" type="curve" smooth="yes"/>
      <point x="460" y="243"/>
      <point x="465" y="287"/>
    </contour>
  </outline>
</glyph>
<glyph name="one" format="2">
  <advance width="597"/>
  <unicode hex="0031"/>
  <outline>
    <contour>
      <point x="552" y="0" type="line"/>
      <point x="78" y="0" type="line"/>
      <point x="78" y="52" type="line"/>
      <point x="288" y="52" type="line"/>
      <point x="288" y="583" type="line"/>
      <point x="227" y="519"/>
      <point x="163" y="469"/>
      <point x="94" y="433" type="curve"/>
      <point x="94" y="521" type="line"/>
      <point x="185" y="568"/>
      <point x="255" y="624"/>
      <point x="305" y="689" type="curve"/>
      <point x="356" y="689" type="line"/>
      <point x="356" y="52" type="line"/>
      <point x="552" y="52" type="line"/>
    </contour>
  </outline>
</glyph>
<glyph name="two" format="2">
  <advance width="579"/>
  <unicode hex="0032"/>
  <outline>
    <contour>
      <point x="524" y="0" type="line"/>
      <point x="59" y="0" type="line"/>
      <point x="59" y="75" type="line"/>
      <point x="333" y="302" type="line" smooth="yes"/>
      <point x="413" y="369"/>
      <point x="453" y="440"/>
      <point x="453" y="514" type="curve" smooth="yes"/>
      <point x="453" y="566"/>
      <point x="429" y="604"/>
      <point x="382" y="631" type="curve" smooth="yes"/>
      <point x="355" y="647"/>
      <point x="325" y="656"/>
      <point x="293" y="656" type="curve" smooth="yes"/>
      <point x="239" y="656"/>
      <point x="195" y="634"/>
      <point x="162" y="590" type="curve" smooth="yes"/>
      <point x="139" y="561"/>
      <point x="126" y="527"/>
      <point x="125" y="488" type="curve"/>
      <point x="59" y="514" type="line"/>
      <point x="75" y="598"/>
      <point x="118" y="656"/>
      <point x="187" y="689" type="curve" smooth="yes"/>
      <point x="221" y="705"/>
      <point x="259" y="713"/>
      <point x="300" y="713" type="curve" smooth="yes"/>
      <point x="369" y="713"/>
      <point x="427" y="695"/>
      <point x="473" y="660" type="curve"/>
      <point x="490" y="634" type="line"/>
      <point x="506" y="605" type="line"/>
      <point x="517" y="576"/>
      <point x="523" y="544"/>
      <point x="523" y="510" type="curve" smooth="yes"/>
      <point x="523" y="417"/>
      <point x="474" y="328"/>
      <point x="376" y="245" type="curve" smooth="yes"/>
      <point x="155" y="58" type="line"/>
      <point x="524" y="58" type="line"/>
    </contour>
  </outline>
</glyph>
<glyph name="three" format="2">
  <advance width="596"/>
  <unicode hex="0033"/>
  <outline>
    <contour>
      <point x="556" y="199" type="curve" smooth="yes"/>
      <point x="556" y="122"/>
      <point x="519" y="65"/>
      <point x="446" y="28" type="curve" smooth="yes"/>
      <point x="402" y="6"/>
      <point x="353" y="-4"/>
      <point x="299" y="-4" type="curve" smooth="yes"/>
      <point x="208" y="-4"/>
      <point x="137" y="24"/>
      <point x="87" y="80" type="curve" smooth="yes"/>
      <point x="66" y="102"/>
      <point x="51" y="128"/>
      <point x="41" y="158" type="curve"/>
      <point x="124" y="186" type="line"/>
      <point x="148" y="97"/>
      <point x="208" y="53"/>
      <point x="306" y="53" type="curve" smooth="yes"/>
      <point x="382" y="53"/>
      <point x="435" y="76"/>
      <point x="464" y="122" type="curve" smooth="yes"/>
      <point x="477" y="143"/>
      <point x="483" y="168"/>
      <point x="483" y="197" type="curve" smooth="yes"/>
      <point x="483" y="242"/>
      <point x="462" y="279"/>
      <point x="422" y="306" type="curve" smooth="yes"/>
      <point x="391" y="327"/>
      <point x="342" y="337"/>
      <point x="273" y="337" type="curve" smooth="yes"/>
      <point x="267" y="337"/>
      <point x="267" y="337"/>
      <point x="260" y="337" type="curve" smooth="yes"/>
      <point x="216" y="337" type="line"/>
      <point x="216" y="392" type="line"/>
      <point x="284" y="392"/>
      <point x="326" y="393"/>
      <point x="339" y="394" type="curve" smooth="yes"/>
      <point x="364" y="398"/>
      <point x="383" y="404"/>
      <point x="398" y="412" type="curve" smooth="yes"/>
      <point x="430" y="428"/>
      <point x="451" y="455"/>
      <point x="460" y="494" type="curve" smooth="yes"/>
      <point x="462" y="502"/>
      <point x="463" y="510"/>
      <point x="463" y="518" type="curve" smooth="yes"/>
      <point x="463" y="574"/>
      <point x="437" y="613"/>
      <point x="385" y="636" type="curve"/>
      <point x="350" y="647" type="line" smooth="yes"/>
      <point x="339" y="649"/>
      <point x="325" y="650"/>
      <point x="312" y="650" type="curve" smooth="yes"/>
      <point x="253" y="650"/>
      <point x="208" y="628"/>
      <point x="174" y="584" type="curve" smooth="yes"/>
      <point x="163" y="568"/>
      <point x="153" y="550"/>
      <point x="146" y="530" type="curve"/>
      <point x="67" y="554" type="line"/>
      <point x="94" y="624"/>
      <point x="145" y="671"/>
      <point x="220" y="693" type="curve" smooth="yes"/>
      <point x="248" y="702"/>
      <point x="277" y="706"/>
      <point x="309" y="706" type="curve" smooth="yes"/>
      <point x="384" y="706"/>
      <point x="442" y="685"/>
      <point x="485" y="642" type="curve" smooth="yes"/>
      <point x="517" y="610"/>
      <point x="534" y="569"/>
      <point x="534" y="520" type="curve" smooth="yes"/>
      <point x="534" y="471"/>
      <point x="516" y="431"/>
      <point x="479" y="400" type="curve" smooth="yes"/>
      <point x="460" y="384"/>
      <point x="439" y="373"/>
      <point x="416" y="369" type="curve"/>
      <point x="416" y="368" type="line"/>
      <point x="472" y="358"/>
      <point x="512" y="329"/>
      <point x="537" y="283" type="curve" smooth="yes"/>
      <point x="550" y="257"/>
      <point x="556" y="230"/>
    </contour>
  </outline>
</glyph>
<glyph name="four" format="2">
  <advance width="597"/>
  <unicode hex="0034"/>
  <outline>
    <contour>
      <point x="564" y="177" type="line"/>
      <point x="449" y="177" type="line"/>
      <point x="449" y="0" type="line"/>
      <point x="381" y="0" type="line"/>
      <point x="381" y="177" type="line"/>
      <point x="35" y="177" type="line"/>
      <point x="35" y="224" type="line"/>
      <point x="356" y="702" type="line"/>
      <point x="449" y="702" type="line"/>
      <point x="449" y="231" type="line"/>
      <point x="564" y="231" type="line"/>
    </contour>
    <contour>
      <point x="381" y="231" type="line"/>
      <point x="381" y="634" type="line"/>
      <point x="126" y="231" type="line"/>
    </contour>
  </outline>
</glyph>
<glyph name="five" format="2">
  <advance width="597"/>
  <unicode hex="0035"/>
  <outline>
    <contour>
      <point x="548" y="237" type="curve" smooth="yes"/>
      <point x="548" y="154"/>
      <point x="516" y="90"/>
      <point x="452" y="45" type="curve" smooth="yes"/>
      <point x="405" y="13"/>
      <point x="350" y="-4"/>
      <point x="287" y="-4" type="curve" smooth="yes"/>
      <point x="218" y="-4"/>
      <point x="159" y="16"/>
      <point x="111" y="58" type="curve" smooth="yes"/>
      <point x="81" y="84"/>
      <point x="60" y="117"/>
      <point x="49" y="153" type="curve"/>
      <point x="125" y="179" type="line"/>
      <point x="148" y="113"/>
      <point x="190" y="73"/>
      <point x="251" y="58" type="curve" smooth="yes"/>
      <point x="266" y="54"/>
      <point x="281" y="52"/>
      <point x="297" y="52" type="curve" smooth="yes"/>
      <point x="371" y="52"/>
      <point x="424" y="80"/>
      <point x="456" y="135" type="curve" smooth="yes"/>
      <point x="472" y="164"/>
      <point x="480" y="199"/>
      <point x="480" y="239" type="curve" smooth="yes"/>
      <point x="480" y="301"/>
      <point x="458" y="349"/>
      <point x="413" y="382" type="curve" smooth="yes"/>
      <point x="385" y="402"/>
      <point x="352" y="412"/>
      <point x="315" y="412" type="curve" smooth="yes"/>
      <point x="254" y="412"/>
      <point x="204" y="386"/>
      <point x="165" y="335" type="curve" smooth="yes"/>
      <point x="160" y="328"/>
      <point x="155" y="320"/>
      <point x="150" y="312" type="curve"/>
      <point x="87" y="328" type="line"/>
      <point x="110" y="695" type="line"/>
      <point x="512" y="695" type="line"/>
      <point x="505" y="634" type="line"/>
      <point x="160" y="634" type="line"/>
      <point x="145" y="406" type="line"/>
      <point x="195" y="448"/>
      <point x="250" y="469"/>
      <point x="310" y="469" type="curve" smooth="yes"/>
      <point x="383" y="469"/>
      <point x="443" y="443"/>
      <point x="490" y="391" type="curve" smooth="yes"/>
      <point x="528" y="348"/>
      <point x="548" y="297"/>
    </contour>
  </outline>
</glyph>
<glyph name="six" format="2">
  <advance width="582"/>
  <unicode hex="0036"/>
  <outline>
    <contour>
      <point x="536" y="228" type="curve" smooth="yes"/>
      <point x="536" y="155"/>
      <point x="508" y="95"/>
      <point x="454" y="50" type="curve" smooth="yes"/>
      <point x="411" y="14"/>
      <point x="361" y="-4"/>
      <point x="302" y="-4" type="curve" smooth="yes"/>
      <point x="204" y="-4"/>
      <point x="132" y="42"/>
      <point x="87" y="135" type="curve" smooth="yes"/>
      <point x="59" y="191"/>
      <point x="46" y="258"/>
      <point x="46" y="333" type="curve" smooth="yes"/>
      <point x="46" y="460"/>
      <point x="75" y="557"/>
      <point x="132" y="624" type="curve" smooth="yes"/>
      <point x="178" y="678"/>
      <point x="239" y="706"/>
      <point x="315" y="706" type="curve" smooth="yes"/>
      <point x="405" y="706"/>
      <point x="469" y="670"/>
      <point x="509" y="599" type="curve" smooth="yes"/>
      <point x="516" y="586"/>
      <point x="522" y="572"/>
      <point x="527" y="557" type="curve"/>
      <point x="462" y="534" type="line"/>
      <point x="437" y="608"/>
      <point x="388" y="646"/>
      <point x="316" y="647" type="curve" smooth="yes"/>
      <point x="207" y="647"/>
      <point x="142" y="575"/>
      <point x="119" y="431" type="curve" smooth="yes"/>
      <point x="114" y="397"/>
      <point x="111" y="360"/>
      <point x="111" y="320" type="curve"/>
      <point x="113" y="320" type="line"/>
      <point x="134" y="372"/>
      <point x="172" y="409"/>
      <point x="227" y="433" type="curve" smooth="yes"/>
      <point x="255" y="445"/>
      <point x="284" y="452"/>
      <point x="315" y="452" type="curve" smooth="yes"/>
      <point x="384" y="452"/>
      <point x="440" y="426"/>
      <point x="484" y="375" type="curve" smooth="yes"/>
      <point x="519" y="334"/>
      <point x="536" y="284"/>
    </contour>
    <contour>
      <point x="470" y="225" type="curve" smooth="yes"/>
      <point x="470" y="280"/>
      <point x="450" y="325"/>
      <point x="409" y="359" type="curve" smooth="yes"/>
      <point x="380" y="383"/>
      <point x="347" y="395"/>
      <point x="310" y="395" type="curve" smooth="yes"/>
      <point x="255" y="395"/>
      <point x="210" y="374"/>
      <point x="173" y="331" type="curve" smooth="yes"/>
      <point x="145" y="298"/>
      <point x="131" y="259"/>
      <point x="131" y="216" type="curve" smooth="yes"/>
      <point x="131" y="163"/>
      <point x="154" y="120"/>
      <point x="199" y="87" type="curve" smooth="yes"/>
      <point x="230" y="64"/>
      <point x="264" y="53"/>
      <point x="301" y="53" type="curve" smooth="yes"/>
      <point x="358" y="53"/>
      <point x="404" y="76"/>
      <point x="438" y="121" type="curve" smooth="yes"/>
      <point x="459" y="151"/>
      <point x="470" y="185"/>
    </contour>
  </outline>
</glyph>
<glyph name="seven" format="2">
  <advance width="596"/>
  <unicode hex="0037"/>
  <outline>
    <contour>
      <point x="526" y="659" type="line"/>
      <point x="359" y="455"/>
      <point x="276" y="236"/>
      <point x="276" y="0" type="curve"/>
      <point x="204" y="0" type="line"/>
      <point x="204" y="2"/>
      <point x="204" y="2"/>
      <point x="204" y="4" type="curve" smooth="yes"/>
      <point x="204" y="6"/>
      <point x="204" y="6"/>
      <point x="204" y="8" type="curve" smooth="yes"/>
      <point x="204" y="10"/>
      <point x="204" y="10"/>
      <point x="204" y="11" type="curve" smooth="yes"/>
      <point x="204" y="161"/>
      <point x="243" y="312"/>
      <point x="320" y="463" type="curve" smooth="yes"/>
      <point x="352" y="526"/>
      <point x="390" y="585"/>
      <point x="434" y="641" type="curve"/>
      <point x="71" y="641" type="line"/>
      <point x="80" y="702" type="line"/>
      <point x="526" y="702" type="line"/>
    </contour>
  </outline>
</glyph>
<glyph name="eight" format="2">
  <advance width="576"/>
  <unicode hex="0038"/>
  <outline>
    <contour>
      <point x="541" y="191" type="curve" smooth="yes"/>
      <point x="541" y="113"/>
      <point x="503" y="57"/>
      <point x="427" y="22" type="curve" smooth="yes"/>
      <point x="387" y="5"/>
      <point x="342" y="-4"/>
      <point x="292" y="-4" type="curve" smooth="yes"/>
      <point x="221" y="-4"/>
      <point x="160" y="13"/>
      <point x="110" y="48" type="curve" smooth="yes"/>
      <point x="60" y="82"/>
      <point x="36" y="127"/>
      <point x="36" y="183" type="curve" smooth="yes"/>
      <point x="36" y="262"/>
      <point x="84" y="323"/>
      <point x="179" y="365" type="curve"/>
      <point x="128" y="386"/>
      <point x="93" y="420"/>
      <point x="74" y="468" type="curve" smooth="yes"/>
      <point x="67" y="487"/>
      <point x="64" y="507"/>
      <point x="64" y="528" type="curve" smooth="yes"/>
      <point x="64" y="599"/>
      <point x="99" y="650"/>
      <point x="170" y="681" type="curve" smooth="yes"/>
      <point x="208" y="698"/>
      <point x="249" y="706"/>
      <point x="294" y="706" type="curve" smooth="yes"/>
      <point x="365" y="706"/>
      <point x="423" y="687"/>
      <point x="466" y="649" type="curve" smooth="yes"/>
      <point x="499" y="620"/>
      <point x="516" y="582"/>
      <point x="516" y="536" type="curve" smooth="yes"/>
      <point x="516" y="460"/>
      <point x="475" y="407"/>
      <point x="393" y="378" type="curve"/>
      <point x="455" y="346"/>
      <point x="496" y="313"/>
      <point x="517" y="278" type="curve" smooth="yes"/>
      <point x="533" y="253"/>
      <point x="541" y="224"/>
    </contour>
    <contour>
      <point x="454" y="539" type="curve" smooth="yes"/>
      <point x="454" y="600"/>
      <point x="418" y="637"/>
      <point x="346" y="649" type="curve" smooth="yes"/>
      <point x="330" y="652"/>
      <point x="312" y="653"/>
      <point x="294" y="653" type="curve" smooth="yes"/>
      <point x="236" y="653"/>
      <point x="192" y="638"/>
      <point x="162" y="609" type="curve" smooth="yes"/>
      <point x="144" y="591"/>
      <point x="135" y="570"/>
      <point x="135" y="544" type="curve" smooth="yes"/>
      <point x="135" y="495"/>
      <point x="167" y="457"/>
      <point x="232" y="428" type="curve" smooth="yes"/>
      <point x="250" y="420"/>
      <point x="269" y="413"/>
      <point x="288" y="409" type="curve"/>
      <point x="359" y="428"/>
      <point x="405" y="450"/>
      <point x="428" y="475" type="curve" smooth="yes"/>
      <point x="445" y="493"/>
      <point x="454" y="515"/>
    </contour>
    <contour>
      <point x="471" y="171" type="curve" smooth="yes"/>
      <point x="471" y="241"/>
      <point x="407" y="294"/>
      <point x="279" y="328" type="curve"/>
      <point x="198" y="310"/>
      <point x="144" y="278"/>
      <point x="119" y="232" type="curve" smooth="yes"/>
      <point x="110" y="216"/>
      <point x="105" y="198"/>
      <point x="105" y="178" type="curve" smooth="yes"/>
      <point x="105" y="117"/>
      <point x="142" y="77"/>
      <point x="215" y="59" type="curve" smooth="yes"/>
      <point x="239" y="52"/>
      <point x="264" y="49"/>
      <point x="292" y="49" type="curve" smooth="yes"/>
      <point x="353" y="49"/>
      <point x="400" y="64"/>
      <point x="435" y="94" type="curve" smooth="yes"/>
      <point x="459" y="115"/>
      <point x="471" y="140"/>
    </contour>
  </outline>
</glyph>
<glyph name="nine" format="2">
  <advance width="581"/>
  <unicode hex="0039"/>
  <outline>
    <contour>
      <point x="534" y="367" type="curve" smooth="yes"/>
      <point x="534" y="248"/>
      <point x="508" y="154"/>
      <point x="455" y="86" type="curve" smooth="yes"/>
      <point x="409" y="26"/>
      <point x="347" y="-4"/>
      <point x="268" y="-4" type="curve" smooth="yes"/>
      <point x="186" y="-4"/>
      <point x="125" y="24"/>
      <point x="85" y="79" type="curve" smooth="yes"/>
      <point x="75" y="93"/>
      <point x="67" y="110"/>
      <point x="60" y="128" type="curve"/>
      <point x="117" y="156" type="line"/>
      <point x="137" y="101"/>
      <point x="175" y="67"/>
      <point x="231" y="55" type="curve" smooth="yes"/>
      <point x="242" y="53"/>
      <point x="254" y="52"/>
      <point x="267" y="52" type="curve" smooth="yes"/>
      <point x="354" y="52"/>
      <point x="414" y="103"/>
      <point x="447" y="206" type="curve" smooth="yes"/>
      <point x="462" y="252"/>
      <point x="469" y="302"/>
      <point x="469" y="358" type="curve" smooth="yes"/>
      <point x="469" y="361"/>
      <point x="469" y="361"/>
      <point x="469" y="365" type="curve"/>
      <point x="467" y="365" type="line"/>
      <point x="431" y="299"/>
      <point x="376" y="262"/>
      <point x="301" y="253" type="curve" smooth="yes"/>
      <point x="291" y="252"/>
      <point x="280" y="251"/>
      <point x="270" y="251" type="curve" smooth="yes"/>
      <point x="199" y="251"/>
      <point x="142" y="277"/>
      <point x="98" y="329" type="curve" smooth="yes"/>
      <point x="64" y="369"/>
      <point x="47" y="418"/>
      <point x="47" y="474" type="curve" smooth="yes"/>
      <point x="47" y="546"/>
      <point x="73" y="605"/>
      <point x="125" y="650" type="curve" smooth="yes"/>
      <point x="167" y="688"/>
      <point x="218" y="706"/>
      <point x="276" y="706" type="curve" smooth="yes"/>
      <point x="393" y="706"/>
      <point x="471" y="649"/>
      <point x="510" y="534" type="curve" smooth="yes"/>
      <point x="526" y="486"/>
      <point x="534" y="430"/>
    </contour>
    <contour>
      <point x="451" y="479" type="curve" smooth="yes"/>
      <point x="451" y="542"/>
      <point x="427" y="589"/>
      <point x="378" y="620" type="curve" smooth="yes"/>
      <point x="350" y="638"/>
      <point x="318" y="647"/>
      <point x="281" y="647" type="curve" smooth="yes"/>
      <point x="218" y="647"/>
      <point x="172" y="622"/>
      <point x="141" y="573" type="curve" smooth="yes"/>
      <point x="126" y="549"/>
      <point x="117" y="521"/>
      <point x="115" y="489" type="curve" smooth="yes"/>
      <point x="114" y="483"/>
      <point x="114" y="478"/>
      <point x="114" y="472" type="curve" smooth="yes"/>
      <point x="114" y="412"/>
      <point x="138" y="366"/>
      <point x="186" y="335" type="curve" smooth="yes"/>
      <point x="215" y="316"/>
      <point x="247" y="307"/>
      <point x="283" y="307" type="curve" smooth="yes"/>
      <point x="335" y="307"/>
      <point x="378" y="328"/>
      <point x="412" y="371" type="curve" smooth="yes"/>
      <point x="438" y="403"/>
      <point x="451" y="439"/>
    </contour>
  </outline>
</glyph>
<glyph name="colon" format="2">
  <advance width="284"/>
  <unicode hex="003A"/>
  <outline>
    <contour>
      <point x="192" y="427" type="line"/>
      <point x="101" y="427" type="line"/>
      <point x="101" y="520" type="line"/>
      <point x="192" y="520" type="line"/>
    </contour>
    <contour>
      <point x="192" y="0" type="line"/>
      <point x="101" y="0" type="line"/>
      <point x="101" y="93" type="line"/>
      <point x="192" y="93" type="line"/>
    </contour>
  </outline>
</glyph>
<glyph name="semicolon" format="2">
  <advance width="284"/>
  <unicode hex="003B"/>
  <outline>
    <contour>
      <point x="195" y="427" type="line"/>
      <point x="104" y="427" type="line"/>
      <point x="104" y="520" type="line"/>
      <point x="195" y="520" type="line"/>
    </contour>
    <contour>
      <point x="195" y="10" type="line"/>
      <point x="134" y="-132" type="line"/>
      <point x="97" y="-132" type="line"/>
      <point x="148" y="0" type="line"/>
      <point x="105" y="0" type="line"/>
      <point x="105" y="94" type="line"/>
      <point x="195" y="94" type="line"/>
    </contour>
  </outline>
</glyph>
<glyph name="less" format="2">
  <advance width="614"/>
  <unicode hex="003C"/>
  <outline>
    <contour>
      <point x="557" y="66" type="line"/>
      <point x="56" y="278" type="line"/>
      <point x="56" y="312" type="line"/>
      <point x="557" y="524" type="line"/>
      <point x="557" y="461" type="line"/>
      <point x="153" y="295" type="line"/>
      <point x="557" y="129" type="line"/>
    </contour>
  </outline>
</glyph>
<glyph name="equal" format="2">
  <advance width="614"/>
  <unicode hex="003D"/>
  <outline>
    <contour>
      <point x="571" y="367" type="line"/>
      <point x="42" y="367" type="line"/>
      <point x="42" y="421" type="line"/>
      <point x="571" y="421" type="line"/>
    </contour>
    <contour>
      <point x="571" y="169" type="line"/>
      <point x="42" y="169" type="line"/>
      <point x="42" y="222" type="line"/>
      <point x="571" y="222" type="line"/>
    </contour>
  </outline>
</glyph>
<glyph name="question" format="2">
  <advance width="504"/>
  <unicode hex="003F"/>
  <outline>
    <contour>
      <point x="468" y="522" type="curve" smooth="yes"/>
      <point x="468" y="439"/>
      <point x="428" y="374"/>
      <point x="348" y="326" type="curve" smooth="yes"/>
      <point x="313" y="305"/>
      <point x="293" y="290"/>
      <point x="286" y="280" type="curve" smooth="yes"/>
      <point x="276" y="266"/>
      <point x="271" y="239"/>
      <point x="271" y="200" type="curve" smooth="yes"/>
      <point x="271" y="193"/>
      <point x="271" y="193"/>
      <point x="271" y="181" type="curve" smooth="yes"/>
      <point x="271" y="159" type="line"/>
      <point x="212" y="159" type="line"/>
      <point x="212" y="206" type="line" smooth="yes"/>
      <point x="212" y="259"/>
      <point x="218" y="296"/>
      <point x="230" y="317" type="curve" smooth="yes"/>
      <point x="239" y="333"/>
      <point x="254" y="349"/>
      <point x="274" y="363" type="curve" smooth="yes"/>
      <point x="317" y="391"/>
      <point x="343" y="410"/>
      <point x="352" y="419" type="curve" smooth="yes"/>
      <point x="381" y="447"/>
      <point x="395" y="481"/>
      <point x="395" y="521" type="curve" smooth="yes"/>
      <point x="395" y="578"/>
      <point x="372" y="617"/>
      <point x="326" y="640" type="curve" smooth="yes"/>
      <point x="305" y="650"/>
      <point x="283" y="655"/>
      <point x="259" y="655" type="curve" smooth="yes"/>
      <point x="195" y="655"/>
      <point x="149" y="622"/>
      <point x="123" y="555" type="curve"/>
      <point x="111" y="513" type="line" smooth="yes"/>
      <point x="110" y="507"/>
      <point x="109" y="501"/>
      <point x="108" y="494" type="curve"/>
      <point x="46" y="512" type="line"/>
      <point x="60" y="605"/>
      <point x="102" y="667"/>
      <point x="173" y="696" type="curve" smooth="yes"/>
      <point x="200" y="708"/>
      <point x="231" y="713"/>
      <point x="265" y="713" type="curve" smooth="yes"/>
      <point x="333" y="713"/>
      <point x="387" y="695"/>
      <point x="427" y="659" type="curve"/>
      <point x="444" y="634" type="line"/>
      <point x="460" y="602"/>
      <point x="467" y="565"/>
    </contour>
    <contour>
      <point x="285" y="0" type="line"/>
      <point x="202" y="0" type="line"/>
      <point x="202" y="80" type="line"/>
      <point x="285" y="80" type="line"/>
    </contour>
  </outline>
</glyph>
<glyph name="at" format="2">
  <advance width="778"/>
  <unicode hex="0040"/>
  <outline>
    <contour>
      <point x="742" y="422" type="curve" smooth="yes"/>
      <point x="742" y="356"/>
      <point x="723" y="296"/>
      <point x="685" y="243" type="curve" smooth="yes"/>
      <point x="650" y="195"/>
      <point x="609" y="167"/>
      <point x="560" y="160" type="curve" smooth="yes"/>
      <point x="552" y="159"/>
      <point x="543" y="158"/>
      <point x="535" y="158" type="curve" smooth="yes"/>
      <point x="481" y="158"/>
      <point x="450" y="174"/>
      <point x="442" y="205" type="curve" smooth="yes"/>
      <point x="441" y="207"/>
      <point x="441" y="208"/>
      <point x="441" y="210" type="curve"/>
      <point x="412" y="186"/>
      <point x="389" y="171"/>
      <point x="371" y="165" type="curve" smooth="yes"/>
      <point x="359" y="162"/>
      <point x="346" y="160"/>
      <point x="332" y="160" type="curve" smooth="yes"/>
      <point x="288" y="160"/>
      <point x="253" y="181"/>
      <point x="229" y="223" type="curve" smooth="yes"/>
      <point x="215" y="248"/>
      <point x="207" y="276"/>
      <point x="207" y="305" type="curve" smooth="yes"/>
      <point x="207" y="363"/>
      <point x="227" y="415"/>
      <point x="268" y="462" type="curve" smooth="yes"/>
      <point x="308" y="509"/>
      <point x="354" y="532"/>
      <point x="407" y="532" type="curve" smooth="yes"/>
      <point x="437" y="532"/>
      <point x="462" y="520"/>
      <point x="484" y="498" type="curve" smooth="yes"/>
      <point x="494" y="488"/>
      <point x="500" y="479"/>
      <point x="503" y="468" type="curve"/>
      <point x="522" y="515" type="line"/>
      <point x="589" y="515" type="line"/>
      <point x="518" y="299" type="line"/>
      <point x="506" y="250" type="line"/>
      <point x="506" y="247" type="line"/>
      <point x="509" y="222"/>
      <point x="522" y="208"/>
      <point x="544" y="206" type="curve" smooth="yes"/>
      <point x="589" y="206"/>
      <point x="627" y="231"/>
      <point x="658" y="284" type="curve" smooth="yes"/>
      <point x="681" y="322"/>
      <point x="692" y="359"/>
      <point x="692" y="397" type="curve" smooth="yes"/>
      <point x="692" y="473"/>
      <point x="659" y="537"/>
      <point x="593" y="589" type="curve" smooth="yes"/>
      <point x="534" y="635"/>
      <point x="470" y="658"/>
      <point x="399" y="658" type="curve" smooth="yes"/>
      <point x="329" y="658"/>
      <point x="262" y="628"/>
      <point x="200" y="568" type="curve" smooth="yes"/>
      <point x="140" y="510"/>
      <point x="104" y="446"/>
      <point x="94" y="373" type="curve" smooth="yes"/>
      <point x="91" y="360"/>
      <point x="90" y="348"/>
      <point x="90" y="336" type="curve" smooth="yes"/>
      <point x="90" y="244"/>
      <point x="125" y="170"/>
      <point x="194" y="114" type="curve" smooth="yes"/>
      <point x="251" y="68"/>
      <point x="317" y="45"/>
      <point x="394" y="45" type="curve" smooth="yes"/>
      <point x="443" y="45"/>
      <point x="491" y="56"/>
      <point x="538" y="77" type="curve"/>
      <point x="562" y="24" type="line"/>
      <point x="499" y="5"/>
      <point x="439" y="-5"/>
      <point x="380" y="-5" type="curve" smooth="yes"/>
      <point x="289" y="-5"/>
      <point x="210" y="24"/>
      <point x="144" y="82" type="curve" smooth="yes"/>
      <point x="72" y="144"/>
      <point x="36" y="224"/>
      <point x="35" y="322" type="curve" smooth="yes"/>
      <point x="35" y="423"/>
      <point x="70" y="511"/>
      <point x="139" y="585" type="curve" smooth="yes"/>
      <point x="206" y="656"/>
      <point x="287" y="696"/>
      <point x="382" y="705" type="curve" smooth="yes"/>
      <point x="395" y="706"/>
      <point x="407" y="707"/>
      <point x="418" y="707" type="curve" smooth="yes"/>
      <point x="498" y="707"/>
      <point x="571" y="686"/>
      <point x="636" y="642" type="curve"/>
      <point x="704" y="580"/>
      <point x="740" y="507"/>
    </contour>
    <contour>
      <point x="400" y="481" type="curve" smooth="yes"/>
      <point x="354" y="481"/>
      <point x="318" y="455"/>
      <point x="292" y="402" type="curve" smooth="yes"/>
      <point x="275" y="370"/>
      <point x="267" y="338"/>
      <point x="267" y="304" type="curve" smooth="yes"/>
      <point x="267" y="269"/>
      <point x="279" y="242"/>
      <point x="303" y="221" type="curve" smooth="yes"/>
      <point x="316" y="210"/>
      <point x="331" y="204"/>
      <point x="348" y="204" type="curve" smooth="yes"/>
      <point x="389" y="204"/>
      <point x="423" y="235"/>
      <point x="449" y="298" type="curve" smooth="yes"/>
      <point x="466" y="337"/>
      <point x="474" y="375"/>
      <point x="474" y="411" type="curve"/>
      <point x="471" y="455"/>
      <point x="446" y="479"/>
    </contour>
  </outline>
</glyph>
<glyph name="B" format="2">
  <advance width="598"/>
  <unicode hex="0042"/>
  <outline>
    <contour>
      <point x="552" y="193" type="curve" smooth="yes"/>
      <point x="552" y="129"/>
      <point x="531" y="80"/>
      <point x="489" y="45" type="curve" smooth="yes"/>
      <point x="456" y="16"/>
      <point x="409" y="1"/>
      <point x="350" y="0" type="curve" smooth="yes"/>
      <point x="328" y="0" type="line"/>
      <point x="83" y="0" type="line"/>
      <point x="83" y="702" type="line"/>
      <point x="331" y="702" type="line" smooth="yes"/>
      <point x="384" y="702"/>
      <point x="425" y="695"/>
      <point x="452" y="679" type="curve" smooth="yes"/>
      <point x="456" y="676"/>
      <point x="461" y="672"/>
      <point x="467" y="669" type="curve" smooth="yes"/>
      <point x="512" y="636"/>
      <point x="534" y="589"/>
      <point x="535" y="528" type="curve" smooth="yes"/>
      <point x="535" y="466"/>
      <point x="516" y="419"/>
      <point x="477" y="388" type="curve"/>
      <point x="447" y="377" type="line" smooth="yes"/>
      <point x="441" y="375"/>
      <point x="435" y="373"/>
      <point x="428" y="372" type="curve"/>
      <point x="428" y="371" type="line"/>
      <point x="478" y="358"/>
      <point x="513" y="326"/>
      <point x="535" y="275" type="curve" smooth="yes"/>
      <point x="546" y="250"/>
      <point x="552" y="223"/>
    </contour>
    <contour>
      <point x="465" y="524" type="curve" smooth="yes"/>
      <point x="465" y="595"/>
      <point x="429" y="635"/>
      <point x="355" y="644" type="curve" smooth="yes"/>
      <point x="346" y="645"/>
      <point x="335" y="645"/>
      <point x="325" y="645" type="curve" smooth="yes"/>
      <point x="153" y="645" type="line"/>
      <point x="153" y="394" type="line"/>
      <point x="301" y="394" type="line" smooth="yes"/>
      <point x="410" y="394"/>
      <point x="465" y="437"/>
    </contour>
    <contour>
      <point x="482" y="193" type="curve" smooth="yes"/>
      <point x="482" y="239"/>
      <point x="467" y="276"/>
      <point x="436" y="306" type="curve" smooth="yes"/>
      <point x="435" y="307"/>
      <point x="433" y="310"/>
      <point x="431" y="311" type="curve" smooth="yes"/>
      <point x="408" y="330"/>
      <point x="371" y="340"/>
      <point x="320" y="340" type="curve" smooth="yes"/>
      <point x="153" y="340" type="line"/>
      <point x="153" y="60" type="line"/>
      <point x="325" y="60" type="line" smooth="yes"/>
      <point x="414" y="60"/>
      <point x="465" y="92"/>
      <point x="479" y="158" type="curve" smooth="yes"/>
      <point x="481" y="168"/>
      <point x="482" y="180"/>
    </contour>
  </outline>
</glyph>
<glyph name="C" format="2">
  <advance width="598"/>
  <unicode hex="0043"/>
  <outline>
    <contour>
      <point x="553" y="216" type="line"/>
      <point x="524" y="93"/>
      <point x="460" y="21"/>
      <point x="363" y="1" type="curve" smooth="yes"/>
      <point x="346" y="-2"/>
      <point x="328" y="-4"/>
      <point x="310" y="-4" type="curve" smooth="yes"/>
      <point x="212" y="-4"/>
      <point x="140" y="43"/>
      <point x="91" y="138" type="curve" smooth="yes"/>
      <point x="59" y="201"/>
      <point x="43" y="274"/>
      <point x="43" y="357" type="curve" smooth="yes"/>
      <point x="43" y="468"/>
      <point x="70" y="556"/>
      <point x="125" y="621" type="curve" smooth="yes"/>
      <point x="174" y="678"/>
      <point x="238" y="706"/>
      <point x="317" y="706" type="curve" smooth="yes"/>
      <point x="410" y="706"/>
      <point x="477" y="665"/>
      <point x="521" y="581" type="curve" smooth="yes"/>
      <point x="535" y="554"/>
      <point x="546" y="524"/>
      <point x="553" y="491" type="curve"/>
      <point x="487" y="475" type="line"/>
      <point x="460" y="577"/>
      <point x="411" y="633"/>
      <point x="340" y="643" type="curve" smooth="yes"/>
      <point x="331" y="644"/>
      <point x="323" y="645"/>
      <point x="314" y="645" type="curve" smooth="yes"/>
      <point x="229" y="645"/>
      <point x="171" y="595"/>
      <point x="140" y="495" type="curve" smooth="yes"/>
      <point x="127" y="451"/>
      <point x="120" y="402"/>
      <point x="120" y="350" type="curve" smooth="yes"/>
      <point x="120" y="258"/>
      <point x="139" y="185"/>
      <point x="178" y="129" type="curve" smooth="yes"/>
      <point x="211" y="81"/>
      <point x="255" y="56"/>
      <point x="310" y="56" type="curve" smooth="yes"/>
      <point x="399" y="56"/>
      <point x="458" y="112"/>
      <point x="487" y="222" type="curve" smooth="yes"/>
      <point x="488" y="226"/>
      <point x="488" y="230"/>
      <point x="489" y="234" type="curve"/>
    </contour>
  </outline>
</glyph>
<glyph name="E" format="2">
  <advance width="555"/>
  <unicode hex="0045"/>
  <outline>
    <contour>
      <point x="524" y="0" type="line"/>
      <point x="87" y="0" type="line"/>
      <point x="87" y="702" type="line"/>
      <point x="513" y="702" type="line"/>
      <point x="513" y="642" type="line"/>
      <point x="157" y="642" type="line"/>
      <point x="157" y="396" type="line"/>
      <point x="440" y="396" type="line"/>
      <point x="440" y="340" type="line"/>
      <point x="157" y="340" type="line"/>
      <point x="157" y="61" type="line"/>
      <point x="524" y="61" type="line"/>
    </contour>
  </outline>
</glyph>
<glyph name="F" format="2">
  <advance width="473"/>
  <unicode hex="0046"/>
  <outline>
    <contour>
      <point x="496" y="642" type="line"/>
      <point x="154" y="642" type="line"/>
      <point x="154" y="403" type="line"/>
      <point x="438" y="403" type="line"/>
      <point x="438" y="347" type="line"/>
      <point x="154" y="347" type="line"/>
      <point x="154" y="0" type="line"/>
      <point x="84" y="0" type="line"/>
      <point x="84" y="702" type="line"/>
      <point x="496" y="702" type="line"/>
    </contour>
  </outline>
</glyph>
<glyph name="G" format="2">
  <advance width="638"/>
  <unicode hex="0047"/>
  <outline>
    <contour>
      <point x="577" y="0" type="line"/>
      <point x="534" y="0" type="line"/>
      <point x="515" y="76" type="line"/>
      <point x="477" y="25"/>
      <point x="420" y="-1"/>
      <point x="342" y="-4" type="curve" smooth="yes"/>
      <point x="335" y="-4"/>
      <point x="335" y="-4"/>
      <point x="329" y="-4" type="curve" smooth="yes"/>
      <point x="228" y="-4"/>
      <point x="153" y="41"/>
      <point x="102" y="129" type="curve" smooth="yes"/>
      <point x="67" y="190"/>
      <point x="49" y="262"/>
      <point x="49" y="344" type="curve" smooth="yes"/>
      <point x="49" y="450"/>
      <point x="76" y="537"/>
      <point x="128" y="605" type="curve" smooth="yes"/>
      <point x="180" y="672"/>
      <point x="248" y="706"/>
      <point x="334" y="706" type="curve" smooth="yes"/>
      <point x="431" y="706"/>
      <point x="501" y="665"/>
      <point x="545" y="583" type="curve" smooth="yes"/>
      <point x="556" y="562"/>
      <point x="565" y="537"/>
      <point x="571" y="511" type="curve"/>
      <point x="499" y="489" type="line"/>
      <point x="487" y="555"/>
      <point x="455" y="601"/>
      <point x="404" y="627" type="curve" smooth="yes"/>
      <point x="380" y="639"/>
      <point x="354" y="645"/>
      <point x="325" y="645" type="curve" smooth="yes"/>
      <point x="236" y="645"/>
      <point x="176" y="594"/>
      <point x="145" y="491" type="curve" smooth="yes"/>
      <point x="132" y="449"/>
      <point x="125" y="400"/>
      <point x="125" y="347" type="curve" smooth="yes"/>
      <point x="125" y="247"/>
      <point x="148" y="171"/>
      <point x="193" y="117" type="curve" smooth="yes"/>
      <point x="228" y="75"/>
      <point x="273" y="54"/>
      <point x="329" y="54" type="curve" smooth="yes"/>
      <point x="399" y="54"/>
      <point x="450" y="83"/>
      <point x="481" y="139" type="curve" smooth="yes"/>
      <point x="497" y="169"/>
      <point x="505" y="205"/>
      <point x="505" y="246" type="curve" smooth="yes"/>
      <point x="505" y="287" type="line"/>
      <point x="330" y="287" type="line"/>
      <point x="330" y="347" type="line"/>
      <point x="577" y="347" type="line"/>
    </contour>
  </outline>
</glyph>
<glyph name="H" format="2">
  <advance width="639"/>
  <unicode hex="0048"/>
  <outline>
    <contour>
      <point x="549" y="0" type="line"/>
      <point x="479" y="0" type="line"/>
      <point x="479" y="349" type="line"/>
      <point x="153" y="349" type="line"/>
      <point x="153" y="0" type="line"/>
      <point x="83" y="0" type="line"/>
      <point x="83" y="702" type="line"/>
      <point x="153" y="702" type="line"/>
      <point x="153" y="411" type="line"/>
      <point x="479" y="411" type="line"/>
      <point x="479" y="702" type="line"/>
      <point x="549" y="702" type="line"/>
    </contour>
  </outline>
</glyph>
<glyph name="I" format="2">
  <advance width="248"/>
  <unicode hex="0049"/>
  <outline>
    <contour>
      <point x="158" y="0" type="line"/>
      <point x="88" y="0" type="line"/>
      <point x="88" y="702" type="line"/>
      <point x="158" y="702" type="line"/>
    </contour>
  </outline>
</glyph>
<glyph name="J" format="2">
  <advance width="391"/>
  <unicode hex="004A"/>
  <outline>
    <contour>
      <point x="313" y="231" type="line" smooth="yes"/>
      <point x="313" y="109"/>
      <point x="274" y="35"/>
      <point x="196" y="9" type="curve" smooth="yes"/>
      <point x="172" y="1"/>
      <point x="145" y="-3"/>
      <point x="114" y="-3" type="curve" smooth="yes"/>
      <point x="82" y="-3"/>
      <point x="50" y="1"/>
      <point x="17" y="8" type="curve"/>
      <point x="17" y="68" type="line"/>
      <point x="50" y="61"/>
      <point x="81" y="58"/>
      <point x="108" y="58" type="curve" smooth="yes"/>
      <point x="171" y="58"/>
      <point x="211" y="75"/>
      <point x="227" y="110" type="curve" smooth="yes"/>
      <point x="238" y="131"/>
      <point x="243" y="168"/>
      <point x="243" y="221" type="curve" smooth="yes"/>
      <point x="243" y="694" type="line"/>
      <point x="313" y="694" type="line"/>
    </contour>
  </outline>
</glyph>
<glyph name="K" format="2">
  <advance width="616"/>
  <unicode hex="004B"/>
  <outline>
    <contour>
      <point x="625" y="0" type="line"/>
      <point x="528" y="0" type="line"/>
      <point x="319" y="387" type="line"/>
      <point x="158" y="187" type="line"/>
      <point x="158" y="0" type="line"/>
      <point x="88" y="0" type="line"/>
      <point x="88" y="702" type="line"/>
      <point x="158" y="702" type="line"/>
      <point x="158" y="295" type="line"/>
      <point x="475" y="702" type="line"/>
      <point x="570" y="702" type="line"/>
      <point x="380" y="457" type="line"/>
    </contour>
  </outline>
</glyph>
<glyph name="L" format="2">
  <advance width="494"/>
  <unicode hex="004C"/>
  <outline>
    <contour>
      <point x="483" y="0" type="line"/>
      <point x="86" y="0" type="line"/>
      <point x="86" y="702" type="line"/>
      <point x="156" y="702" type="line"/>
      <point x="156" y="62" type="line"/>
      <point x="483" y="62" type="line"/>
    </contour>
  </outline>
</glyph>
<glyph name="M" format="2">
  <advance width="806"/>
  <unicode hex="004D"/>
  <outline>
    <contour>
      <point x="728" y="0" type="line"/>
      <point x="658" y="0" type="line"/>
      <point x="658" y="613" type="line"/>
      <point x="654" y="613" type="line"/>
      <point x="431" y="0" type="line"/>
      <point x="372" y="0" type="line"/>
      <point x="145" y="613" type="line"/>
      <point x="141" y="613" type="line"/>
      <point x="141" y="0" type="line"/>
      <point x="82" y="0" type="line"/>
      <point x="82" y="702" type="line"/>
      <point x="198" y="702" type="line"/>
      <point x="410" y="140" type="line"/>
      <point x="617" y="702" type="line"/>
      <point x="728" y="702" type="line"/>
    </contour>
  </outline>
</glyph>
<glyph name="N" format="2">
  <advance width="645"/>
  <unicode hex="004E"/>
  <outline>
    <contour>
      <point x="571" y="0" type="line"/>
      <point x="500" y="0" type="line"/>
      <point x="143" y="612" type="line"/>
      <point x="143" y="0" type="line"/>
      <point x="84" y="0" type="line"/>
      <point x="84" y="702" type="line"/>
      <point x="180" y="702" type="line"/>
      <point x="512" y="130" type="line"/>
      <point x="512" y="702" type="line"/>
      <point x="571" y="702" type="line"/>
    </contour>
  </outline>
</glyph>
<glyph name="O" format="2">
  <advance width="638"/>
  <unicode hex="004F"/>
  <outline>
    <contour>
      <point x="586" y="358" type="curve" smooth="yes"/>
      <point x="586" y="259"/>
      <point x="563" y="175"/>
      <point x="516" y="106" type="curve" smooth="yes"/>
      <point x="467" y="33"/>
      <point x="400" y="-4"/>
      <point x="316" y="-4" type="curve" smooth="yes"/>
      <point x="217" y="-4"/>
      <point x="144" y="42"/>
      <point x="95" y="132" type="curve" smooth="yes"/>
      <point x="62" y="192"/>
      <point x="45" y="264"/>
      <point x="45" y="346" type="curve" smooth="yes"/>
      <point x="45" y="451"/>
      <point x="70" y="537"/>
      <point x="119" y="604" type="curve" smooth="yes"/>
      <point x="168" y="672"/>
      <point x="234" y="706"/>
      <point x="316" y="706" type="curve" smooth="yes"/>
      <point x="411" y="706"/>
      <point x="483" y="662"/>
      <point x="533" y="575" type="curve" smooth="yes"/>
      <point x="569" y="513"/>
      <point x="586" y="440"/>
    </contour>
    <contour>
      <point x="512" y="354" type="curve" smooth="yes"/>
      <point x="512" y="451"/>
      <point x="491" y="526"/>
      <point x="450" y="580" type="curve" smooth="yes"/>
      <point x="417" y="624"/>
      <point x="374" y="646"/>
      <point x="319" y="646" type="curve" smooth="yes"/>
      <point x="232" y="646"/>
      <point x="173" y="596"/>
      <point x="141" y="495" type="curve" smooth="yes"/>
      <point x="126" y="450"/>
      <point x="119" y="399"/>
      <point x="119" y="344" type="curve" smooth="yes"/>
      <point x="119" y="255"/>
      <point x="139" y="183"/>
      <point x="179" y="128" type="curve" smooth="yes"/>
      <point x="214" y="79"/>
      <point x="260" y="54"/>
      <point x="317" y="54" type="curve" smooth="yes"/>
      <point x="399" y="54"/>
      <point x="456" y="102"/>
      <point x="489" y="199" type="curve" smooth="yes"/>
      <point x="504" y="245"/>
      <point x="512" y="297"/>
    </contour>
  </outline>
</glyph>
<glyph name="P" format="2">
  <advance width="537"/>
  <unicode hex="0050"/>
  <outline>
    <contour>
      <point x="506" y="499" type="curve" smooth="yes"/>
      <point x="506" y="445"/>
      <point x="488" y="399"/>
      <point x="452" y="360" type="curve" smooth="yes"/>
      <point x="447" y="355" type="line" smooth="yes"/>
      <point x="410" y="318"/>
      <point x="357" y="300"/>
      <point x="286" y="300" type="curve" smooth="yes"/>
      <point x="136" y="300" type="line"/>
      <point x="136" y="0" type="line"/>
      <point x="66" y="0" type="line"/>
      <point x="66" y="702" type="line"/>
      <point x="283" y="702" type="line" smooth="yes"/>
      <point x="353" y="702"/>
      <point x="404" y="687"/>
      <point x="439" y="657" type="curve" smooth="yes"/>
      <point x="476" y="625"/>
      <point x="498" y="579"/>
      <point x="505" y="521" type="curve" smooth="yes"/>
      <point x="506" y="513"/>
      <point x="506" y="506"/>
    </contour>
    <contour>
      <point x="435" y="499" type="curve" smooth="yes"/>
      <point x="435" y="568"/>
      <point x="407" y="614"/>
      <point x="352" y="635" type="curve" smooth="yes"/>
      <point x="333" y="641"/>
      <point x="313" y="644"/>
      <point x="290" y="644" type="curve" smooth="yes"/>
      <point x="136" y="644" type="line"/>
      <point x="136" y="358" type="line"/>
      <point x="284" y="358" type="line" smooth="yes"/>
      <point x="357" y="358"/>
      <point x="404" y="385"/>
      <point x="424" y="439" type="curve" smooth="yes"/>
      <point x="431" y="457"/>
      <point x="435" y="476"/>
    </contour>
  </outline>
</glyph>
<glyph name="Q" format="2">
  <advance width="623"/>
  <unicode hex="0051"/>
  <outline>
    <contour>
      <point x="574" y="349" type="curve" smooth="yes"/>
      <point x="574" y="244"/>
      <point x="550" y="159"/>
      <point x="501" y="93" type="curve" smooth="yes"/>
      <point x="467" y="48"/>
      <point x="425" y="19"/>
      <point x="374" y="5" type="curve"/>
      <point x="374" y="-12" type="line" smooth="yes"/>
      <point x="374" y="-59"/>
      <point x="391" y="-87"/>
      <point x="425" y="-96" type="curve" smooth="yes"/>
      <point x="432" y="-98"/>
      <point x="440" y="-99"/>
      <point x="448" y="-99" type="curve" smooth="yes"/>
      <point x="462" y="-99"/>
      <point x="492" y="-96"/>
      <point x="537" y="-91" type="curve"/>
      <point x="537" y="-150" type="line"/>
      <point x="513" y="-157"/>
      <point x="491" y="-160"/>
      <point x="469" y="-160" type="curve" smooth="yes"/>
      <point x="386" y="-160"/>
      <point x="337" y="-123"/>
      <point x="321" y="-49" type="curve" smooth="yes"/>
      <point x="318" y="-35"/>
      <point x="316" y="-20"/>
      <point x="316" y="-4" type="curve"/>
      <point x="212" y="-1"/>
      <point x="136" y="46"/>
      <point x="88" y="138" type="curve" smooth="yes"/>
      <point x="57" y="197"/>
      <point x="42" y="266"/>
      <point x="42" y="345" type="curve" smooth="yes"/>
      <point x="42" y="453"/>
      <point x="67" y="540"/>
      <point x="117" y="607" type="curve" smooth="yes"/>
      <point x="165" y="672"/>
      <point x="228" y="705"/>
      <point x="308" y="705" type="curve" smooth="yes"/>
      <point x="405" y="705"/>
      <point x="478" y="658"/>
      <point x="525" y="566" type="curve" smooth="yes"/>
      <point x="558" y="504"/>
      <point x="574" y="432"/>
    </contour>
    <contour>
      <point x="497" y="349" type="curve" smooth="yes"/>
      <point x="497" y="485"/>
      <point x="465" y="574"/>
      <point x="399" y="616" type="curve" smooth="yes"/>
      <point x="373" y="633"/>
      <point x="342" y="642"/>
      <point x="307" y="642" type="curve" smooth="yes"/>
      <point x="211" y="642"/>
      <point x="152" y="582"/>
      <point x="128" y="462" type="curve" smooth="yes"/>
      <point x="121" y="426"/>
      <point x="117" y="387"/>
      <point x="117" y="344" type="curve" smooth="yes"/>
      <point x="117" y="236"/>
      <point x="139" y="157"/>
      <point x="185" y="106" type="curve" smooth="yes"/>
      <point x="215" y="72"/>
      <point x="254" y="55"/>
      <point x="301" y="55" type="curve" smooth="yes"/>
      <point x="396" y="55"/>
      <point x="456" y="111"/>
      <point x="483" y="222" type="curve" smooth="yes"/>
      <point x="492" y="261"/>
      <point x="497" y="303"/>
    </contour>
  </outline>
</glyph>
<glyph name="R" format="2">
  <advance width="598"/>
  <unicode hex="0052"/>
  <outline>
    <contour>
      <point x="552" y="0" type="line"/>
      <point x="477" y="0" type="line"/>
      <point x="348" y="318" type="line"/>
      <point x="153" y="318" type="line"/>
      <point x="153" y="0" type="line"/>
      <point x="83" y="0" type="line"/>
      <point x="83" y="702" type="line"/>
      <point x="327" y="702" type="line" smooth="yes"/>
      <point x="410" y="702"/>
      <point x="472" y="677"/>
      <point x="511" y="626" type="curve" smooth="yes"/>
      <point x="529" y="601"/>
      <point x="540" y="571"/>
      <point x="544" y="536" type="curve" smooth="yes"/>
      <point x="545" y="528"/>
      <point x="545" y="520"/>
      <point x="545" y="511" type="curve" smooth="yes"/>
      <point x="545" y="452"/>
      <point x="526" y="404"/>
      <point x="488" y="368" type="curve" smooth="yes"/>
      <point x="471" y="353"/>
      <point x="453" y="342"/>
      <point x="432" y="336" type="curve"/>
    </contour>
    <contour>
      <point x="475" y="515" type="curve" smooth="yes"/>
      <point x="475" y="589"/>
      <point x="436" y="631"/>
      <point x="359" y="640" type="curve" smooth="yes"/>
      <point x="349" y="641"/>
      <point x="339" y="642"/>
      <point x="328" y="642" type="curve" smooth="yes"/>
      <point x="153" y="642" type="line"/>
      <point x="153" y="376" type="line"/>
      <point x="318" y="376" type="line" smooth="yes"/>
      <point x="404" y="376"/>
      <point x="454" y="408"/>
      <point x="469" y="472" type="curve" smooth="yes"/>
      <point x="473" y="485"/>
      <point x="475" y="499"/>
    </contour>
  </outline>
</glyph>
<glyph name="S" format="2">
  <advance width="592"/>
  <unicode hex="0053"/>
  <outline>
    <contour>
      <point x="548" y="197" type="curve" smooth="yes"/>
      <point x="548" y="115"/>
      <point x="510" y="57"/>
      <point x="436" y="23" type="curve" smooth="yes"/>
      <point x="398" y="6"/>
      <point x="355" y="-3"/>
      <point x="306" y="-3" type="curve" smooth="yes"/>
      <point x="173" y="-3"/>
      <point x="85" y="60"/>
      <point x="43" y="185" type="curve"/>
      <point x="106" y="203" type="line"/>
      <point x="127" y="129"/>
      <point x="174" y="83"/>
      <point x="247" y="65" type="curve" smooth="yes"/>
      <point x="267" y="60"/>
      <point x="288" y="58"/>
      <point x="310" y="58" type="curve" smooth="yes"/>
      <point x="377" y="58"/>
      <point x="423" y="77"/>
      <point x="452" y="116" type="curve" smooth="yes"/>
      <point x="467" y="136"/>
      <point x="475" y="160"/>
      <point x="475" y="189" type="curve" smooth="yes"/>
      <point x="475" y="240"/>
      <point x="445" y="278"/>
      <point x="384" y="303" type="curve"/>
      <point x="319" y="321" type="line" smooth="yes"/>
      <point x="240" y="342"/>
      <point x="197" y="355"/>
      <point x="190" y="358" type="curve" smooth="yes"/>
      <point x="160" y="369"/>
      <point x="137" y="382"/>
      <point x="121" y="397" type="curve" smooth="yes"/>
      <point x="88" y="429"/>
      <point x="71" y="471"/>
      <point x="71" y="521" type="curve" smooth="yes"/>
      <point x="71" y="597"/>
      <point x="106" y="651"/>
      <point x="176" y="682" type="curve" smooth="yes"/>
      <point x="212" y="698"/>
      <point x="253" y="706"/>
      <point x="297" y="706" type="curve" smooth="yes"/>
      <point x="389" y="706"/>
      <point x="457" y="675"/>
      <point x="503" y="613" type="curve"/>
      <point x="519" y="575" type="line" smooth="yes"/>
      <point x="523" y="565"/>
      <point x="526" y="556"/>
      <point x="529" y="545" type="curve"/>
      <point x="462" y="522" type="line"/>
      <point x="453" y="569"/>
      <point x="424" y="605"/>
      <point x="374" y="630" type="curve" smooth="yes"/>
      <point x="347" y="643"/>
      <point x="319" y="649"/>
      <point x="290" y="649" type="curve" smooth="yes"/>
      <point x="241" y="649"/>
      <point x="202" y="634"/>
      <point x="171" y="604" type="curve" smooth="yes"/>
      <point x="150" y="583"/>
      <point x="140" y="558"/>
      <point x="140" y="529" type="curve" smooth="yes"/>
      <point x="140" y="480"/>
      <point x="169" y="444"/>
      <point x="226" y="421" type="curve" smooth="yes"/>
      <point x="240" y="416"/>
      <point x="284" y="403"/>
      <point x="359" y="383" type="curve" smooth="yes"/>
      <point x="420" y="368"/>
      <point x="463" y="351"/>
      <point x="488" y="329" type="curve" smooth="yes"/>
      <point x="528" y="295"/>
      <point x="548" y="251"/>
    </contour>
  </outline>
</glyph>
<glyph name="T" format="2">
  <advance width="494"/>
  <unicode hex="0054"/>
  <outline>
    <contour>
      <point x="481" y="641" type="line"/>
      <point x="281" y="641" type="line"/>
      <point x="281" y="0" type="line"/>
      <point x="211" y="0" type="line"/>
      <point x="211" y="641" type="line"/>
      <point x="11" y="641" type="line"/>
      <point x="11" y="702" type="line"/>
      <point x="481" y="702" type="line"/>
    </contour>
  </outline>
</glyph>
<glyph name="W" format="2">
  <advance width="815"/>
  <unicode hex="0057"/>
  <outline>
    <contour>
      <point x="808" y="702" type="line"/>
      <point x="647" y="0" type="line"/>
      <point x="573" y="0" type="line"/>
      <point x="414" y="574" type="line"/>
      <point x="263" y="0" type="line"/>
      <point x="185" y="0" type="line"/>
      <point x="11" y="702" type="line"/>
      <point x="83" y="702" type="line"/>
      <point x="224" y="133" type="line"/>
      <point x="242" y="133" type="line"/>
      <point x="391" y="702" type="line"/>
      <point x="446" y="702" type="line"/>
      <point x="604" y="133" type="line"/>
      <point x="623" y="133" type="line"/>
      <point x="753" y="702" type="line"/>
    </contour>
  </outline>
</glyph>
<glyph name="Y" format="2">
  <advance width="555"/>
  <unicode hex="0059"/>
  <outline>
    <contour>
      <point x="550" y="702" type="line"/>
      <point x="316" y="296" type="line"/>
      <point x="316" y="0" type="line"/>
      <point x="246" y="0" type="line"/>
      <point x="246" y="296" type="line"/>
      <point x="11" y="702" type="line"/>
      <point x="114" y="702" type="line"/>
      <point x="289" y="379" type="line"/>
      <point x="470" y="702" type="line"/>
    </contour>
  </outline>
</glyph>
<glyph name="Z" format="2">
  <advance width="552"/>
  <unicode hex="005A"/>
  <outline>
    <contour>
      <point x="513" y="0" type="line"/>
      <point x="17" y="0" type="line"/>
      <point x="17" y="78" type="line"/>
      <point x="399" y="644" type="line"/>
      <point x="35" y="644" type="line"/>
      <point x="35" y="702" type="line"/>
      <point x="502" y="702" type="line"/>
      <point x="502" y="655" type="line"/>
      <point x="116" y="61" type="line"/>
      <point x="513" y="61" type="line"/>
    </contour>
  </outline>
</glyph>
<glyph name="bracketleft" format="2">
  <advance width="271"/>
  <unicode hex="005B"/>
  <outline>
    <contour>
      <point x="213" y="-170" type="line"/>
      <point x="67" y="-170" type="line"/>
      <point x="67" y="697" type="line"/>
      <point x="213" y="697" type="line"/>
      <point x="213" y="654" type="line"/>
      <point x="123" y="654" type="line"/>
      <point x="123" y="-125" type="line"/>
      <point x="213" y="-125" type="line"/>
    </contour>
  </outline>
</glyph>
<glyph name="bracketright" format="2">
  <advance width="271"/>
  <unicode hex="005D"/>
  <outline>
    <contour>
      <point x="213" y="-170" type="line"/>
      <point x="67" y="-170" type="line"/>
      <point x="67" y="-125" type="line"/>
      <point x="156" y="-125" type="line"/>
      <point x="156" y="654" type="line"/>
      <point x="67" y="654" type="line"/>
      <point x="67" y="697" type="line"/>
      <point x="213" y="697" type="line"/>
    </contour>
  </outline>
</glyph>
<glyph name="asciicircum" format="2">
  <advance width="614"/>
  <unicode hex="005E"/>
  <outline>
    <contour>
      <point x="509" y="264" type="line"/>
      <point x="446" y="264" type="line"/>
      <point x="307" y="605" type="line"/>
      <point x="168" y="264" type="line"/>
      <point x="106" y="264" type="line"/>
      <point x="284" y="702" type="line"/>
      <point x="331" y="702" type="line"/>
    </contour>
  </outline>
</glyph>
<glyph name="underscore" format="2">
  <advance width="512"/>
  <unicode hex="005F"/>
  <outline>
    <contour>
      <point x="512" y="-124" type="line"/>
      <point x="0" y="-124" type="line"/>
      <point x="0" y="-82" type="line"/>
      <point x="512" y="-82" type="line"/>
    </contour>
  </outline>
</glyph>
<glyph name="grave" format="2">
  <advance width="389"/>
  <unicode hex="0060"/>
  <outline>
    <contour>
      <point x="311" y="618" type="line"/>
      <point x="291" y="585" type="line"/>
      <point x="71" y="664" type="line"/>
      <point x="105" y="717" type="line"/>
    </contour>
  </outline>
</glyph>
<glyph name="b" format="2">
  <advance width="519"/>
  <unicode hex="0062"/>
  <outline>
    <contour>
      <point x="476" y="268" type="curve" smooth="yes"/>
      <point x="476" y="181"/>
      <point x="454" y="111"/>
      <point x="411" y="59" type="curve" smooth="yes"/>
      <point x="375" y="14"/>
      <point x="328" y="-8"/>
      <point x="270" y="-8" type="curve" smooth="yes"/>
      <point x="217" y="-8"/>
      <point x="173" y="12"/>
      <point x="138" y="52" type="curve" smooth="yes"/>
      <point x="130" y="61"/>
      <point x="124" y="71"/>
      <point x="118" y="80" type="curve"/>
      <point x="94" y="0" type="line"/>
      <point x="63" y="0" type="line"/>
      <point x="63" y="702" type="line"/>
      <point x="127" y="702" type="line"/>
      <point x="127" y="445" type="line"/>
      <point x="131" y="445" type="line"/>
      <point x="165" y="504"/>
      <point x="213" y="534"/>
      <point x="277" y="534" type="curve" smooth="yes"/>
      <point x="353" y="534"/>
      <point x="409" y="495"/>
      <point x="445" y="419" type="curve" smooth="yes"/>
      <point x="466" y="374"/>
      <point x="476" y="324"/>
    </contour>
    <contour>
      <point x="407" y="255" type="curve" smooth="yes"/>
      <point x="407" y="345"/>
      <point x="388" y="410"/>
      <point x="349" y="449" type="curve"/>
      <point x="328" y="466" type="line" smooth="yes"/>
      <point x="311" y="477"/>
      <point x="291" y="482"/>
      <point x="270" y="482" type="curve" smooth="yes"/>
      <point x="225" y="482"/>
      <point x="187" y="459"/>
      <point x="157" y="413" type="curve" smooth="yes"/>
      <point x="137" y="382"/>
      <point x="127" y="349"/>
      <point x="127" y="314" type="curve" smooth="yes"/>
      <point x="127" y="216" type="line" smooth="yes"/>
      <point x="127" y="156"/>
      <point x="146" y="110"/>
      <point x="183" y="77" type="curve" smooth="yes"/>
      <point x="206" y="54"/>
      <point x="235" y="43"/>
      <point x="270" y="43" type="curve" smooth="yes"/>
      <point x="333" y="43"/>
      <point x="375" y="82"/>
      <point x="396" y="160" type="curve" smooth="yes"/>
      <point x="403" y="189"/>
      <point x="407" y="221"/>
    </contour>
  </outline>
</glyph>
<glyph name="c" format="2">
  <advance width="474"/>
  <unicode hex="0063"/>
  <outline>
    <contour>
      <point x="440" y="169" type="line"/>
      <point x="427" y="96"/>
      <point x="392" y="44"/>
      <point x="336" y="16" type="curve" smooth="yes"/>
      <point x="309" y="3"/>
      <point x="280" y="-4"/>
      <point x="247" y="-4" type="curve" smooth="yes"/>
      <point x="164" y="-4"/>
      <point x="104" y="34"/>
      <point x="67" y="111" type="curve" smooth="yes"/>
      <point x="46" y="154"/>
      <point x="35" y="204"/>
      <point x="35" y="260" type="curve" smooth="yes"/>
      <point x="35" y="347"/>
      <point x="58" y="415"/>
      <point x="103" y="465" type="curve" smooth="yes"/>
      <point x="141" y="507"/>
      <point x="189" y="527"/>
      <point x="248" y="527" type="curve" smooth="yes"/>
      <point x="326" y="527"/>
      <point x="382" y="494"/>
      <point x="416" y="429" type="curve" smooth="yes"/>
      <point x="428" y="407"/>
      <point x="436" y="382"/>
      <point x="440" y="355" type="curve"/>
      <point x="366" y="342" type="line"/>
      <point x="361" y="398"/>
      <point x="338" y="437"/>
      <point x="298" y="459" type="curve" smooth="yes"/>
      <point x="286" y="466"/>
      <point x="272" y="470"/>
      <point x="256" y="471" type="curve" smooth="yes"/>
      <point x="251" y="472"/>
      <point x="247" y="472"/>
      <point x="242" y="472" type="curve" smooth="yes"/>
      <point x="178" y="472"/>
      <point x="135" y="433"/>
      <point x="114" y="355" type="curve" smooth="yes"/>
      <point x="107" y="327"/>
      <point x="103" y="297"/>
      <point x="103" y="265" type="curve" smooth="yes"/>
      <point x="103" y="178"/>
      <point x="123" y="115"/>
      <point x="162" y="79" type="curve" smooth="yes"/>
      <point x="183" y="60"/>
      <point x="208" y="51"/>
      <point x="237" y="51" type="curve" smooth="yes"/>
      <point x="302" y="51"/>
      <point x="344" y="90"/>
      <point x="363" y="168" type="curve" smooth="yes"/>
      <point x="364" y="173"/>
      <point x="365" y="177"/>
      <point x="366" y="182" type="curve"/>
    </contour>
  </outline>
</glyph>
<glyph name="d" format="2">
  <advance width="519"/>
  <unicode hex="0064"/>
  <outline>
    <contour>
      <point x="451" y="0" type="line"/>
      <point x="393" y="0" type="line"/>
      <point x="393" y="83" type="line"/>
      <point x="392" y="83" type="line"/>
      <point x="360" y="22"/>
      <point x="308" y="-8"/>
      <point x="237" y="-8" type="curve" smooth="yes"/>
      <point x="162" y="-8"/>
      <point x="106" y="31"/>
      <point x="71" y="108" type="curve" smooth="yes"/>
      <point x="49" y="154"/>
      <point x="39" y="205"/>
      <point x="39" y="261" type="curve" smooth="yes"/>
      <point x="39" y="346"/>
      <point x="60" y="415"/>
      <point x="103" y="467" type="curve" smooth="yes"/>
      <point x="140" y="512"/>
      <point x="187" y="534"/>
      <point x="244" y="534" type="curve" smooth="yes"/>
      <point x="302" y="534"/>
      <point x="349" y="510"/>
      <point x="387" y="462" type="curve"/>
      <point x="387" y="702" type="line"/>
      <point x="451" y="702" type="line"/>
    </contour>
    <contour>
      <point x="387" y="224" type="curve" smooth="yes"/>
      <point x="387" y="312" type="line" smooth="yes"/>
      <point x="387" y="383"/>
      <point x="365" y="432"/>
      <point x="322" y="462" type="curve" smooth="yes"/>
      <point x="300" y="476"/>
      <point x="274" y="483"/>
      <point x="244" y="483" type="curve" smooth="yes"/>
      <point x="185" y="483"/>
      <point x="144" y="446"/>
      <point x="122" y="371" type="curve" smooth="yes"/>
      <point x="113" y="339"/>
      <point x="108" y="305"/>
      <point x="108" y="270" type="curve" smooth="yes"/>
      <point x="108" y="168"/>
      <point x="131" y="100"/>
      <point x="177" y="66" type="curve" smooth="yes"/>
      <point x="195" y="52"/>
      <point x="217" y="45"/>
      <point x="242" y="45" type="curve" smooth="yes"/>
      <point x="295" y="45"/>
      <point x="336" y="71"/>
      <point x="364" y="124" type="curve" smooth="yes"/>
      <point x="379" y="154"/>
      <point x="387" y="188"/>
    </contour>
  </outline>
</glyph>
<glyph name="f" format="2">
  <advance width="291"/>
  <unicode hex="0066"/>
  <outline>
    <contour>
      <point x="318" y="653" type="line"/>
      <point x="289" y="659"/>
      <point x="267" y="662"/>
      <point x="252" y="662" type="curve" smooth="yes"/>
      <point x="207" y="662"/>
      <point x="179" y="641"/>
      <point x="170" y="600" type="curve" smooth="yes"/>
      <point x="167" y="585"/>
      <point x="166" y="566"/>
      <point x="166" y="543" type="curve" smooth="yes"/>
      <point x="166" y="520" type="line"/>
      <point x="287" y="520" type="line"/>
      <point x="287" y="470" type="line"/>
      <point x="166" y="470" type="line"/>
      <point x="166" y="0" type="line"/>
      <point x="102" y="0" type="line"/>
      <point x="102" y="470" type="line"/>
      <point x="10" y="470" type="line"/>
      <point x="10" y="520" type="line"/>
      <point x="102" y="520" type="line"/>
      <point x="102" y="536" type="line" smooth="yes"/>
      <point x="102" y="637"/>
      <point x="134" y="695"/>
      <point x="198" y="710" type="curve" smooth="yes"/>
      <point x="209" y="713"/>
      <point x="219" y="714"/>
      <point x="231" y="714" type="curve" smooth="yes"/>
      <point x="238" y="714"/>
      <point x="267" y="712"/>
      <point x="318" y="708" type="curve"/>
    </contour>
  </outline>
</glyph>
<glyph name="g" format="2">
  <advance width="458"/>
  <unicode hex="0067"/>
  <outline>
    <contour>
      <point x="457" y="-48" type="curve" smooth="yes"/>
      <point x="457" y="-144"/>
      <point x="381" y="-192"/>
      <point x="228" y="-192" type="curve" smooth="yes"/>
      <point x="84" y="-192"/>
      <point x="12" y="-148"/>
      <point x="12" y="-59" type="curve" smooth="yes"/>
      <point x="12" y="-9"/>
      <point x="33" y="26"/>
      <point x="75" y="44" type="curve"/>
      <point x="48" y="65"/>
      <point x="35" y="92"/>
      <point x="35" y="125" type="curve" smooth="yes"/>
      <point x="35" y="161"/>
      <point x="51" y="190"/>
      <point x="81" y="210" type="curve" smooth="yes"/>
      <point x="84" y="212"/>
      <point x="88" y="214"/>
      <point x="93" y="217" type="curve"/>
      <point x="56" y="252"/>
      <point x="38" y="297"/>
      <point x="38" y="352" type="curve" smooth="yes"/>
      <point x="38" y="416"/>
      <point x="64" y="464"/>
      <point x="116" y="497" type="curve" smooth="yes"/>
      <point x="148" y="517"/>
      <point x="185" y="528"/>
      <point x="227" y="528" type="curve" smooth="yes"/>
      <point x="263" y="528"/>
      <point x="296" y="522"/>
      <point x="326" y="509" type="curve"/>
      <point x="333" y="554"/>
      <point x="350" y="581"/>
      <point x="378" y="590" type="curve" smooth="yes"/>
      <point x="388" y="593"/>
      <point x="399" y="595"/>
      <point x="412" y="595" type="curve" smooth="yes"/>
      <point x="425" y="595"/>
      <point x="434" y="595"/>
      <point x="440" y="594" type="curve"/>
      <point x="442" y="542" type="line"/>
      <point x="409" y="542"/>
      <point x="387" y="535"/>
      <point x="377" y="520" type="curve" smooth="yes"/>
      <point x="367" y="503" type="line"/>
      <point x="362" y="481" type="line" smooth="yes"/>
      <point x="361" y="479"/>
      <point x="361" y="477"/>
      <point x="361" y="476" type="curve" smooth="yes"/>
      <point x="388" y="440"/>
      <point x="401" y="398"/>
      <point x="401" y="350" type="curve" smooth="yes"/>
      <point x="401" y="289"/>
      <point x="375" y="242"/>
      <point x="323" y="211" type="curve" smooth="yes"/>
      <point x="292" y="192"/>
      <point x="257" y="183"/>
      <point x="219" y="183" type="curve"/>
      <point x="151" y="190" type="line"/>
      <point x="150" y="190" type="line" smooth="yes"/>
      <point x="130" y="190"/>
      <point x="115" y="181"/>
      <point x="104" y="165" type="curve" smooth="yes"/>
      <point x="99" y="157"/>
      <point x="96" y="148"/>
      <point x="96" y="138" type="curve" smooth="yes"/>
      <point x="96" y="113"/>
      <point x="108" y="96"/>
      <point x="132" y="88" type="curve" smooth="yes"/>
      <point x="152" y="81"/>
      <point x="188" y="78"/>
      <point x="242" y="78" type="curve" smooth="yes"/>
      <point x="249" y="78"/>
      <point x="249" y="78"/>
      <point x="258" y="78" type="curve" smooth="yes"/>
      <point x="314" y="78"/>
      <point x="357" y="73"/>
      <point x="384" y="62" type="curve" smooth="yes"/>
      <point x="419" y="47"/>
      <point x="441" y="21"/>
      <point x="452" y="-15" type="curve" smooth="yes"/>
      <point x="455" y="-26"/>
      <point x="457" y="-37"/>
    </contour>
    <contour>
      <point x="336" y="356" type="curve" smooth="yes"/>
      <point x="336" y="400"/>
      <point x="319" y="433"/>
      <point x="284" y="457" type="curve" smooth="yes"/>
      <point x="265" y="469"/>
      <point x="244" y="475"/>
      <point x="221" y="475" type="curve" smooth="yes"/>
      <point x="175" y="475"/>
      <point x="141" y="456"/>
      <point x="120" y="419" type="curve" smooth="yes"/>
      <point x="109" y="399"/>
      <point x="104" y="378"/>
      <point x="104" y="354" type="curve" smooth="yes"/>
      <point x="104" y="300"/>
      <point x="125" y="264"/>
      <point x="167" y="245" type="curve" smooth="yes"/>
      <point x="183" y="238"/>
      <point x="201" y="235"/>
      <point x="221" y="235" type="curve" smooth="yes"/>
      <point x="270" y="235"/>
      <point x="305" y="256"/>
      <point x="324" y="297" type="curve" smooth="yes"/>
      <point x="332" y="315"/>
      <point x="336" y="335"/>
    </contour>
    <contour>
      <point x="395" y="-49" type="curve" smooth="yes"/>
      <point x="395" y="-6"/>
      <point x="357" y="16"/>
      <point x="282" y="17" type="curve" smooth="yes"/>
      <point x="241" y="18" type="line" smooth="yes"/>
      <point x="216" y="19"/>
      <point x="177" y="22"/>
      <point x="123" y="25" type="curve"/>
      <point x="91" y="6"/>
      <point x="75" y="-19"/>
      <point x="75" y="-50" type="curve" smooth="yes"/>
      <point x="75" y="-98"/>
      <point x="112" y="-128"/>
      <point x="186" y="-137" type="curve" smooth="yes"/>
      <point x="200" y="-139"/>
      <point x="214" y="-140"/>
      <point x="228" y="-140" type="curve" smooth="yes"/>
      <point x="321" y="-140"/>
      <point x="375" y="-118"/>
      <point x="391" y="-75" type="curve" smooth="yes"/>
      <point x="393" y="-66"/>
      <point x="395" y="-58"/>
    </contour>
  </outline>
</glyph>
<glyph name="h" format="2">
  <advance width="520"/>
  <unicode hex="0068"/>
  <outline>
    <contour>
      <point x="449" y="0" type="line"/>
      <point x="385" y="0" type="line"/>
      <point x="385" y="311" type="line" smooth="yes"/>
      <point x="385" y="382"/>
      <point x="375" y="429"/>
      <point x="354" y="452" type="curve"/>
      <point x="337" y="468" type="line"/>
      <point x="314" y="477" type="line" smooth="yes"/>
      <point x="304" y="480"/>
      <point x="293" y="481"/>
      <point x="281" y="481" type="curve" smooth="yes"/>
      <point x="242" y="481"/>
      <point x="206" y="462"/>
      <point x="175" y="424" type="curve"/>
      <point x="150" y="386"/>
      <point x="137" y="336"/>
      <point x="136" y="274" type="curve" smooth="yes"/>
      <point x="136" y="0" type="line"/>
      <point x="72" y="0" type="line"/>
      <point x="72" y="702" type="line"/>
      <point x="136" y="702" type="line"/>
      <point x="136" y="436" type="line"/>
      <point x="139" y="436" type="line"/>
      <point x="171" y="502"/>
      <point x="222" y="534"/>
      <point x="292" y="534" type="curve" smooth="yes"/>
      <point x="366" y="534"/>
      <point x="415" y="497"/>
      <point x="438" y="424" type="curve" smooth="yes"/>
      <point x="446" y="399"/>
      <point x="449" y="370"/>
      <point x="449" y="339" type="curve" smooth="yes"/>
    </contour>
  </outline>
</glyph>
<glyph name="i" format="2">
  <advance width="227"/>
  <unicode hex="0069"/>
  <outline>
    <contour>
      <point x="149" y="630" type="line"/>
      <point x="79" y="630" type="line"/>
      <point x="79" y="702" type="line"/>
      <point x="149" y="702" type="line"/>
    </contour>
    <contour>
      <point x="146" y="0" type="line"/>
      <point x="82" y="0" type="line"/>
      <point x="82" y="535" type="line"/>
      <point x="146" y="535" type="line"/>
    </contour>
  </outline>
</glyph>
<glyph name="j" format="2">
  <advance width="207"/>
  <unicode hex="006A"/>
  <outline>
    <contour>
      <point x="135" y="620" type="line"/>
      <point x="64" y="620" type="line"/>
      <point x="64" y="693" type="line"/>
      <point x="135" y="693" type="line"/>
    </contour>
    <contour>
      <point x="130" y="-3" type="line" smooth="yes"/>
      <point x="130" y="-102"/>
      <point x="99" y="-158"/>
      <point x="36" y="-173" type="curve" smooth="yes"/>
      <point x="23" y="-176"/>
      <point x="9" y="-178"/>
      <point x="-7" y="-178" type="curve" smooth="yes"/>
      <point x="-29" y="-178"/>
      <point x="-53" y="-175"/>
      <point x="-78" y="-170" type="curve"/>
      <point x="-78" y="-117" type="line"/>
      <point x="-57" y="-122"/>
      <point x="-38" y="-125"/>
      <point x="-19" y="-125" type="curve" smooth="yes"/>
      <point x="25" y="-125"/>
      <point x="52" y="-108"/>
      <point x="61" y="-74" type="curve" smooth="yes"/>
      <point x="65" y="-60"/>
      <point x="67" y="-41"/>
      <point x="67" y="-14" type="curve" smooth="yes"/>
      <point x="67" y="526" type="line"/>
      <point x="130" y="526" type="line"/>
    </contour>
  </outline>
</glyph>
<glyph name="k" format="2">
  <advance width="496"/>
  <unicode hex="006B"/>
  <outline>
    <contour>
      <point x="488" y="0" type="line"/>
      <point x="403" y="0" type="line"/>
      <point x="251" y="290" type="line"/>
      <point x="140" y="161" type="line"/>
      <point x="140" y="0" type="line"/>
      <point x="76" y="0" type="line"/>
      <point x="76" y="702" type="line"/>
      <point x="140" y="702" type="line"/>
      <point x="140" y="253" type="line"/>
      <point x="380" y="518" type="line"/>
      <point x="466" y="518" type="line"/>
      <point x="305" y="336" type="line"/>
    </contour>
  </outline>
</glyph>
<glyph name="l" format="2">
  <advance width="229"/>
  <unicode hex="006C"/>
  <outline>
    <contour>
      <point x="147" y="0" type="line"/>
      <point x="83" y="0" type="line"/>
      <point x="83" y="702" type="line"/>
      <point x="147" y="702" type="line"/>
    </contour>
  </outline>
</glyph>
<glyph name="m" format="2">
  <advance width="791"/>
  <unicode hex="006D"/>
  <outline>
    <contour>
      <point x="722" y="0" type="line"/>
      <point x="658" y="0" type="line"/>
      <point x="658" y="338" type="line" smooth="yes"/>
      <point x="658" y="414"/>
      <point x="635" y="459"/>
      <point x="589" y="474" type="curve" smooth="yes"/>
      <point x="579" y="477"/>
      <point x="568" y="478"/>
      <point x="557" y="478" type="curve" smooth="yes"/>
      <point x="518" y="478"/>
      <point x="484" y="458"/>
      <point x="456" y="419" type="curve" smooth="yes"/>
      <point x="438" y="391"/>
      <point x="429" y="352"/>
      <point x="428" y="304" type="curve" smooth="yes"/>
      <point x="428" y="287" type="line"/>
      <point x="428" y="0" type="line"/>
      <point x="364" y="0" type="line"/>
      <point x="364" y="337" type="line" smooth="yes"/>
      <point x="364" y="412"/>
      <point x="340" y="457"/>
      <point x="293" y="473" type="curve" smooth="yes"/>
      <point x="283" y="476"/>
      <point x="272" y="478"/>
      <point x="259" y="478" type="curve" smooth="yes"/>
      <point x="226" y="478"/>
      <point x="197" y="463"/>
      <point x="170" y="432" type="curve" smooth="yes"/>
      <point x="168" y="430"/>
      <point x="166" y="428"/>
      <point x="165" y="426" type="curve" smooth="yes"/>
      <point x="144" y="399"/>
      <point x="134" y="358"/>
      <point x="134" y="304" type="curve" smooth="yes"/>
      <point x="134" y="0" type="line"/>
      <point x="70" y="0" type="line"/>
      <point x="70" y="520" type="line"/>
      <point x="128" y="520" type="line"/>
      <point x="128" y="429" type="line"/>
      <point x="130" y="429" type="line"/>
      <point x="150" y="475"/>
      <point x="182" y="506"/>
      <point x="226" y="522" type="curve" smooth="yes"/>
      <point x="242" y="528"/>
      <point x="260" y="531"/>
      <point x="278" y="531" type="curve" smooth="yes"/>
      <point x="331" y="531"/>
      <point x="371" y="509"/>
      <point x="398" y="466" type="curve" smooth="yes"/>
      <point x="407" y="452"/>
      <point x="413" y="436"/>
      <point x="417" y="419" type="curve"/>
      <point x="440" y="473"/>
      <point x="476" y="507"/>
      <point x="527" y="523" type="curve" smooth="yes"/>
      <point x="544" y="528"/>
      <point x="562" y="531"/>
      <point x="579" y="531" type="curve" smooth="yes"/>
      <point x="623" y="531"/>
      <point x="659" y="517"/>
      <point x="689" y="489" type="curve"/>
      <point x="702" y="469" type="line"/>
      <point x="715" y="440"/>
      <point x="722" y="396"/>
      <point x="722" y="335" type="curve" smooth="yes"/>
    </contour>
  </outline>
</glyph>
<glyph name="o" format="2">
  <advance width="516"/>
  <unicode hex="006F"/>
  <outline>
    <contour>
      <point x="472" y="262" type="curve" smooth="yes"/>
      <point x="472" y="175"/>
      <point x="448" y="107"/>
      <point x="399" y="57" type="curve" smooth="yes"/>
      <point x="360" y="16"/>
      <point x="310" y="-4"/>
      <point x="249" y="-4" type="curve" smooth="yes"/>
      <point x="170" y="-4"/>
      <point x="111" y="33"/>
      <point x="74" y="108" type="curve" smooth="yes"/>
      <point x="52" y="153"/>
      <point x="41" y="204"/>
      <point x="41" y="263" type="curve" smooth="yes"/>
      <point x="41" y="351"/>
      <point x="66" y="420"/>
      <point x="116" y="469" type="curve" smooth="yes"/>
      <point x="154" y="507"/>
      <point x="203" y="527"/>
      <point x="262" y="527" type="curve" smooth="yes"/>
      <point x="338" y="527"/>
      <point x="395" y="492"/>
      <point x="434" y="421" type="curve" smooth="yes"/>
      <point x="459" y="375"/>
      <point x="472" y="322"/>
    </contour>
    <contour>
      <point x="401" y="264" type="curve" smooth="yes"/>
      <point x="401" y="355"/>
      <point x="378" y="417"/>
      <point x="331" y="451" type="curve" smooth="yes"/>
      <point x="310" y="466"/>
      <point x="284" y="474"/>
      <point x="255" y="474" type="curve" smooth="yes"/>
      <point x="187" y="474"/>
      <point x="143" y="433"/>
      <point x="122" y="352" type="curve" smooth="yes"/>
      <point x="115" y="324"/>
      <point x="112" y="296"/>
      <point x="112" y="264" type="curve" smooth="yes"/>
      <point x="112" y="165"/>
      <point x="137" y="100"/>
      <point x="188" y="68" type="curve" smooth="yes"/>
      <point x="207" y="56"/>
      <point x="229" y="49"/>
      <point x="255" y="49" type="curve" smooth="yes"/>
      <point x="329" y="49"/>
      <point x="375" y="94"/>
      <point x="394" y="184" type="curve" smooth="yes"/>
      <point x="399" y="209"/>
      <point x="401" y="236"/>
    </contour>
  </outline>
</glyph>
<glyph name="p" format="2">
  <advance width="518"/>
  <unicode hex="0070"/>
  <outline>
    <contour>
      <point x="487" y="263" type="curve" smooth="yes"/>
      <point x="487" y="178"/>
      <point x="467" y="111"/>
      <point x="426" y="60" type="curve" smooth="yes"/>
      <point x="391" y="17"/>
      <point x="346" y="-4"/>
      <point x="291" y="-4" type="curve" smooth="yes"/>
      <point x="228" y="-4"/>
      <point x="179" y="23"/>
      <point x="144" y="76" type="curve"/>
      <point x="144" y="-164" type="line"/>
      <point x="80" y="-164" type="line"/>
      <point x="80" y="516" type="line"/>
      <point x="138" y="516" type="line"/>
      <point x="138" y="425" type="line"/>
      <point x="140" y="425" type="line"/>
      <point x="160" y="476"/>
      <point x="197" y="508"/>
      <point x="249" y="521" type="curve" smooth="yes"/>
      <point x="263" y="525"/>
      <point x="277" y="527"/>
      <point x="292" y="527" type="curve" smooth="yes"/>
      <point x="367" y="527"/>
      <point x="422" y="489"/>
      <point x="457" y="412" type="curve" smooth="yes"/>
      <point x="477" y="368"/>
      <point x="487" y="318"/>
    </contour>
    <contour>
      <point x="415" y="261" type="curve" smooth="yes"/>
      <point x="415" y="348"/>
      <point x="395" y="408"/>
      <point x="355" y="442" type="curve"/>
      <point x="333" y="458" type="line" smooth="yes"/>
      <point x="318" y="466"/>
      <point x="300" y="469"/>
      <point x="281" y="469" type="curve" smooth="yes"/>
      <point x="234" y="469"/>
      <point x="197" y="445"/>
      <point x="168" y="398" type="curve" smooth="yes"/>
      <point x="163" y="391"/>
      <point x="159" y="383"/>
      <point x="156" y="375" type="curve" smooth="yes"/>
      <point x="148" y="358"/>
      <point x="144" y="346"/>
      <point x="144" y="338" type="curve" smooth="yes"/>
      <point x="144" y="202" type="line" smooth="yes"/>
      <point x="144" y="158"/>
      <point x="161" y="119"/>
      <point x="195" y="87" type="curve" smooth="yes"/>
      <point x="221" y="62"/>
      <point x="250" y="50"/>
      <point x="281" y="50" type="curve" smooth="yes"/>
      <point x="352" y="50"/>
      <point x="396" y="99"/>
      <point x="411" y="196" type="curve" smooth="yes"/>
      <point x="414" y="216"/>
      <point x="415" y="238"/>
    </contour>
  </outline>
</glyph>
<glyph name="q" format="2">
  <advance width="518"/>
  <unicode hex="0071"/>
  <outline>
    <contour>
      <point x="449" y="-164" type="line"/>
      <point x="385" y="-164" type="line"/>
      <point x="385" y="92" type="line"/>
      <point x="382" y="92" type="line"/>
      <point x="360" y="37"/>
      <point x="320" y="6"/>
      <point x="262" y="-2" type="curve" smooth="yes"/>
      <point x="253" y="-3"/>
      <point x="245" y="-4"/>
      <point x="235" y="-4" type="curve" smooth="yes"/>
      <point x="156" y="-4"/>
      <point x="100" y="37"/>
      <point x="67" y="118" type="curve" smooth="yes"/>
      <point x="49" y="160"/>
      <point x="40" y="207"/>
      <point x="40" y="260" type="curve" smooth="yes"/>
      <point x="40" y="341"/>
      <point x="61" y="408"/>
      <point x="101" y="460" type="curve" smooth="yes"/>
      <point x="137" y="506"/>
      <point x="184" y="528"/>
      <point x="241" y="528" type="curve" smooth="yes"/>
      <point x="295" y="528"/>
      <point x="337" y="509"/>
      <point x="369" y="471" type="curve" smooth="yes"/>
      <point x="377" y="463"/>
      <point x="383" y="453"/>
      <point x="391" y="441" type="curve"/>
      <point x="416" y="517" type="line"/>
      <point x="449" y="517" type="line"/>
    </contour>
    <contour>
      <point x="384" y="245" type="curve" smooth="yes"/>
      <point x="384" y="290" type="line" smooth="yes"/>
      <point x="384" y="353"/>
      <point x="367" y="403"/>
      <point x="333" y="439" type="curve" smooth="yes"/>
      <point x="310" y="463"/>
      <point x="281" y="475"/>
      <point x="247" y="475" type="curve" smooth="yes"/>
      <point x="186" y="475"/>
      <point x="145" y="436"/>
      <point x="123" y="358" type="curve" smooth="yes"/>
      <point x="115" y="327"/>
      <point x="111" y="294"/>
      <point x="111" y="260" type="curve" smooth="yes"/>
      <point x="111" y="177"/>
      <point x="130" y="117"/>
      <point x="168" y="81" type="curve" smooth="yes"/>
      <point x="189" y="61"/>
      <point x="215" y="51"/>
      <point x="246" y="51" type="curve" smooth="yes"/>
      <point x="301" y="51"/>
      <point x="341" y="83"/>
      <point x="366" y="146" type="curve" smooth="yes"/>
      <point x="378" y="177"/>
      <point x="384" y="210"/>
    </contour>
  </outline>
</glyph>
<glyph name="r" format="2">
  <advance width="311"/>
  <unicode hex="0072"/>
  <outline>
    <contour>
      <point x="314" y="472" type="line"/>
      <point x="297" y="472" type="line" smooth="yes"/>
      <point x="233" y="472"/>
      <point x="187" y="441"/>
      <point x="159" y="378" type="curve" smooth="yes"/>
      <point x="145" y="346"/>
      <point x="138" y="310"/>
      <point x="138" y="271" type="curve" smooth="yes"/>
      <point x="138" y="0" type="line"/>
      <point x="74" y="0" type="line"/>
      <point x="74" y="523" type="line"/>
      <point x="131" y="523" type="line"/>
      <point x="131" y="412" type="line"/>
      <point x="133" y="412" type="line"/>
      <point x="165" y="494"/>
      <point x="212" y="535"/>
      <point x="275" y="535" type="curve" smooth="yes"/>
      <point x="283" y="535"/>
      <point x="296" y="535"/>
      <point x="314" y="533" type="curve"/>
    </contour>
  </outline>
</glyph>
<glyph name="s" format="2">
  <advance width="498"/>
  <unicode hex="0073"/>
  <outline>
    <contour>
      <point x="451" y="148" type="curve" smooth="yes"/>
      <point x="451" y="82"/>
      <point x="417" y="37"/>
      <point x="350" y="12" type="curve" smooth="yes"/>
      <point x="320" y="1"/>
      <point x="288" y="-4"/>
      <point x="252" y="-4" type="curve" smooth="yes"/>
      <point x="171" y="-4"/>
      <point x="111" y="21"/>
      <point x="73" y="69" type="curve" smooth="yes"/>
      <point x="58" y="88"/>
      <point x="47" y="109"/>
      <point x="41" y="134" type="curve"/>
      <point x="107" y="150" type="line"/>
      <point x="114" y="104"/>
      <point x="146" y="73"/>
      <point x="202" y="58" type="curve" smooth="yes"/>
      <point x="222" y="52"/>
      <point x="240" y="49"/>
      <point x="260" y="49" type="curve" smooth="yes"/>
      <point x="316" y="49"/>
      <point x="353" y="65"/>
      <point x="373" y="98" type="curve" smooth="yes"/>
      <point x="380" y="111"/>
      <point x="384" y="126"/>
      <point x="384" y="143" type="curve" smooth="yes"/>
      <point x="384" y="180"/>
      <point x="361" y="206"/>
      <point x="316" y="221" type="curve"/>
      <point x="245" y="236" type="line" smooth="yes"/>
      <point x="182" y="248"/>
      <point x="138" y="261"/>
      <point x="115" y="276" type="curve" smooth="yes"/>
      <point x="80" y="300"/>
      <point x="62" y="335"/>
      <point x="62" y="382" type="curve" smooth="yes"/>
      <point x="62" y="442"/>
      <point x="92" y="485"/>
      <point x="152" y="510" type="curve" smooth="yes"/>
      <point x="179" y="522"/>
      <point x="210" y="528"/>
      <point x="243" y="528" type="curve" smooth="yes"/>
      <point x="328" y="528"/>
      <point x="386" y="501"/>
      <point x="417" y="446" type="curve" smooth="yes"/>
      <point x="424" y="434"/>
      <point x="429" y="421"/>
      <point x="433" y="406" type="curve"/>
      <point x="372" y="390" type="line"/>
      <point x="355" y="440"/>
      <point x="318" y="468"/>
      <point x="259" y="474" type="curve" smooth="yes"/>
      <point x="252" y="475"/>
      <point x="246" y="475"/>
      <point x="239" y="475" type="curve" smooth="yes"/>
      <point x="191" y="475"/>
      <point x="158" y="461"/>
      <point x="140" y="432" type="curve" smooth="yes"/>
      <point x="132" y="421"/>
      <point x="128" y="408"/>
      <point x="128" y="392" type="curve" smooth="yes"/>
      <point x="128" y="355"/>
      <point x="152" y="329"/>
      <point x="200" y="314" type="curve" smooth="yes"/>
      <point x="206" y="311"/>
      <point x="242" y="303"/>
      <point x="309" y="290" type="curve" smooth="yes"/>
      <point x="349" y="282"/>
      <point x="378" y="272"/>
      <point x="396" y="259" type="curve" smooth="yes"/>
      <point x="433" y="233"/>
      <point x="451" y="195"/>
    </contour>
  </outline>
</glyph>
<glyph name="t" format="2">
  <advance width="311"/>
  <unicode hex="0074"/>
  <outline>
    <contour>
      <point x="303" y="-0" type="line"/>
      <point x="209" y="-6" type="line"/>
      <point x="133" y="-6"/>
      <point x="95" y="51"/>
      <point x="95" y="165" type="curve" smooth="yes"/>
      <point x="95" y="466" type="line"/>
      <point x="3" y="466" type="line"/>
      <point x="3" y="518" type="line"/>
      <point x="95" y="518" type="line"/>
      <point x="95" y="647" type="line"/>
      <point x="159" y="656" type="line"/>
      <point x="159" y="518" type="line"/>
      <point x="275" y="518" type="line"/>
      <point x="275" y="466" type="line"/>
      <point x="159" y="466" type="line"/>
      <point x="159" y="143" type="line"/>
      <point x="165" y="83"/>
      <point x="189" y="50"/>
      <point x="230" y="47" type="curve"/>
      <point x="303" y="52" type="line"/>
    </contour>
  </outline>
</glyph>
<glyph name="v" format="2">
  <advance width="450"/>
  <unicode hex="0076"/>
  <outline>
    <contour>
      <point x="453" y="520" type="line"/>
      <point x="273" y="0" type="line"/>
      <point x="189" y="0" type="line"/>
      <point x="4" y="520" type="line"/>
      <point x="93" y="520" type="line"/>
      <point x="239" y="97" type="line"/>
      <point x="381" y="520" type="line"/>
    </contour>
  </outline>
</glyph>
<glyph name="w" format="2">
  <advance width="666"/>
  <unicode hex="0077"/>
  <outline>
    <contour>
      <point x="655" y="520" type="line"/>
      <point x="499" y="0" type="line"/>
      <point x="448" y="0" type="line"/>
      <point x="325" y="410" type="line"/>
      <point x="211" y="0" type="line"/>
      <point x="155" y="0" type="line"/>
      <point x="4" y="520" type="line"/>
      <point x="69" y="520" type="line"/>
      <point x="189" y="106" type="line"/>
      <point x="304" y="520" type="line"/>
      <point x="350" y="520" type="line"/>
      <point x="473" y="108" type="line"/>
      <point x="597" y="520" type="line"/>
    </contour>
  </outline>
</glyph>
<glyph name="y" format="2">
  <advance width="430"/>
  <unicode hex="0079"/>
  <outline>
    <contour>
      <point x="435" y="513" type="line"/>
      <point x="231" y="-46" type="line" smooth="yes"/>
      <point x="210" y="-104"/>
      <point x="185" y="-141"/>
      <point x="155" y="-159" type="curve" smooth="yes"/>
      <point x="133" y="-172"/>
      <point x="106" y="-179"/>
      <point x="73" y="-179" type="curve" smooth="yes"/>
      <point x="56" y="-179"/>
      <point x="36" y="-177"/>
      <point x="13" y="-172" type="curve"/>
      <point x="13" y="-119" type="line"/>
      <point x="34" y="-124"/>
      <point x="52" y="-126"/>
      <point x="67" y="-126" type="curve" smooth="yes"/>
      <point x="109" y="-126"/>
      <point x="140" y="-105"/>
      <point x="160" y="-62" type="curve" smooth="yes"/>
      <point x="164" y="-54"/>
      <point x="172" y="-33"/>
      <point x="183" y="2" type="curve"/>
      <point x="3" y="513" type="line"/>
      <point x="86" y="513" type="line"/>
      <point x="225" y="122" type="line"/>
      <point x="368" y="513" type="line"/>
    </contour>
  </outline>
</glyph>
<glyph name="z" format="2">
  <advance width="430"/>
  <unicode hex="007A"/>
  <outline>
    <contour>
      <point x="411" y="0" type="line"/>
      <point x="28" y="0" type="line"/>
      <point x="28" y="64" type="line"/>
      <point x="304" y="470" type="line"/>
      <point x="49" y="470" type="line"/>
      <point x="49" y="520" type="line"/>
      <point x="411" y="520" type="line"/>
      <point x="411" y="485" type="line"/>
      <point x="125" y="50" type="line"/>
      <point x="411" y="50" type="line"/>
    </contour>
  </outline>
</glyph>
<glyph name="braceleft" format="2">
  <advance width="292"/>
  <unicode hex="007B"/>
  <outline>
    <contour>
      <point x="257" y="-170" type="line"/>
      <point x="190" y="-168" type="line" smooth="yes"/>
      <point x="165" y="-167"/>
      <point x="144" y="-147"/>
      <point x="127" y="-111" type="curve" smooth="yes"/>
      <point x="119" y="-91"/>
      <point x="114" y="-73"/>
      <point x="114" y="-55" type="curve" smooth="yes"/>
      <point x="115" y="105" type="line"/>
      <point x="115" y="106" type="line" smooth="yes"/>
      <point x="115" y="160"/>
      <point x="104" y="196"/>
      <point x="83" y="214" type="curve" smooth="yes"/>
      <point x="71" y="225"/>
      <point x="55" y="232"/>
      <point x="34" y="237" type="curve"/>
      <point x="34" y="301" type="line"/>
      <point x="77" y="309"/>
      <point x="103" y="333"/>
      <point x="112" y="373" type="curve" smooth="yes"/>
      <point x="114" y="387"/>
      <point x="115" y="407"/>
      <point x="115" y="434" type="curve" smooth="yes"/>
      <point x="114" y="591" type="line"/>
      <point x="114" y="592" type="line" smooth="yes"/>
      <point x="114" y="622"/>
      <point x="124" y="650"/>
      <point x="143" y="676" type="curve" smooth="yes"/>
      <point x="157" y="694"/>
      <point x="173" y="704"/>
      <point x="190" y="705" type="curve" smooth="yes"/>
      <point x="257" y="707" type="line"/>
      <point x="257" y="655" type="line"/>
      <point x="222" y="652"/>
      <point x="202" y="650"/>
      <point x="196" y="647" type="curve" smooth="yes"/>
      <point x="186" y="639" type="line"/>
      <point x="178" y="622" type="line"/>
      <point x="175" y="590" type="line"/>
      <point x="176" y="423" type="line"/>
      <point x="176" y="422" type="line" smooth="yes"/>
      <point x="176" y="356"/>
      <point x="158" y="306"/>
      <point x="120" y="272" type="curve" smooth="yes"/>
      <point x="119" y="271"/>
      <point x="117" y="270"/>
      <point x="116" y="269" type="curve"/>
      <point x="156" y="231"/>
      <point x="176" y="179"/>
      <point x="176" y="115" type="curve" smooth="yes"/>
      <point x="175" y="-54" type="line" smooth="yes"/>
      <point x="175" y="-86"/>
      <point x="184" y="-105"/>
      <point x="201" y="-111" type="curve" smooth="yes"/>
      <point x="205" y="-114"/>
      <point x="224" y="-117"/>
      <point x="257" y="-121" type="curve"/>
    </contour>
  </outline>
</glyph>
<glyph name="bar" format="2">
  <advance width="254"/>
  <unicode hex="007C"/>
  <outline>
    <contour>
      <point x="152" y="-256" type="line"/>
      <point x="102" y="-256" type="line"/>
      <point x="102" y="768" type="line"/>
      <point x="152" y="768" type="line"/>
    </contour>
  </outline>
</glyph>
<glyph name="braceright" format="2">
  <advance width="292"/>
  <unicode hex="007D"/>
  <outline>
    <contour>
      <point x="257" y="237" type="line"/>
      <point x="214" y="228"/>
      <point x="188" y="202"/>
      <point x="180" y="159" type="curve" smooth="yes"/>
      <point x="177" y="145"/>
      <point x="176" y="126"/>
      <point x="176" y="102" type="curve" smooth="yes"/>
      <point x="178" y="-54" type="line"/>
      <point x="178" y="-55" type="line" smooth="yes"/>
      <point x="178" y="-86"/>
      <point x="168" y="-114"/>
      <point x="148" y="-140" type="curve" smooth="yes"/>
      <point x="134" y="-158"/>
      <point x="118" y="-167"/>
      <point x="102" y="-168" type="curve" smooth="yes"/>
      <point x="34" y="-170" type="line"/>
      <point x="34" y="-121" type="line"/>
      <point x="69" y="-116"/>
      <point x="88" y="-113"/>
      <point x="93" y="-110" type="curve" smooth="yes"/>
      <point x="108" y="-103"/>
      <point x="116" y="-84"/>
      <point x="116" y="-54" type="curve" smooth="yes"/>
      <point x="115" y="114" type="line"/>
      <point x="115" y="115" type="line" smooth="yes"/>
      <point x="115" y="179"/>
      <point x="134" y="231"/>
      <point x="174" y="269" type="curve"/>
      <point x="135" y="306"/>
      <point x="116" y="356"/>
      <point x="115" y="422" type="curve" smooth="yes"/>
      <point x="116" y="590" type="line" smooth="yes"/>
      <point x="116" y="623"/>
      <point x="108" y="643"/>
      <point x="91" y="649" type="curve"/>
      <point x="61" y="653" type="line"/>
      <point x="34" y="655" type="line"/>
      <point x="34" y="707" type="line"/>
      <point x="102" y="705" type="line" smooth="yes"/>
      <point x="127" y="704"/>
      <point x="148" y="684"/>
      <point x="164" y="647" type="curve" smooth="yes"/>
      <point x="173" y="628"/>
      <point x="178" y="610"/>
      <point x="178" y="592" type="curve" smooth="yes"/>
      <point x="176" y="431" type="line"/>
      <point x="176" y="430" type="line" smooth="yes"/>
      <point x="176" y="378"/>
      <point x="185" y="344"/>
      <point x="204" y="327" type="curve" smooth="yes"/>
      <point x="217" y="315"/>
      <point x="234" y="306"/>
      <point x="257" y="301" type="curve"/>
    </contour>
  </outline>
</glyph>
<glyph name="asciitilde" format="2">
  <advance width="586"/>
  <unicode hex="007E"/>
  <outline>
    <contour>
      <point x="527" y="351" type="line"/>
      <point x="528" y="338" type="line"/>
      <point x="528" y="337" type="line" smooth="yes"/>
      <point x="528" y="299"/>
      <point x="513" y="266"/>
      <point x="484" y="237" type="curve" smooth="yes"/>
      <point x="463" y="216"/>
      <point x="439" y="205"/>
      <point x="412" y="205" type="curve" smooth="yes"/>
      <point x="380" y="205"/>
      <point x="335" y="224"/>
      <point x="275" y="262" type="curve" smooth="yes"/>
      <point x="225" y="293"/>
      <point x="192" y="310"/>
      <point x="177" y="313" type="curve" smooth="yes"/>
      <point x="172" y="314"/>
      <point x="169" y="314"/>
      <point x="166" y="314" type="curve" smooth="yes"/>
      <point x="136" y="314"/>
      <point x="119" y="288"/>
      <point x="114" y="237" type="curve" smooth="yes"/>
      <point x="113" y="231"/>
      <point x="113" y="225"/>
      <point x="113" y="219" type="curve"/>
      <point x="57" y="219" type="line"/>
      <point x="60" y="271"/>
      <point x="75" y="312"/>
      <point x="103" y="341" type="curve" smooth="yes"/>
      <point x="123" y="361"/>
      <point x="147" y="371"/>
      <point x="174" y="371" type="curve" smooth="yes"/>
      <point x="200" y="371"/>
      <point x="242" y="353"/>
      <point x="299" y="318" type="curve" smooth="yes"/>
      <point x="352" y="284"/>
      <point x="388" y="265"/>
      <point x="407" y="262" type="curve" smooth="yes"/>
      <point x="412" y="261"/>
      <point x="417" y="260"/>
      <point x="422" y="260" type="curve" smooth="yes"/>
      <point x="455" y="260"/>
      <point x="471" y="290"/>
      <point x="471" y="351" type="curve"/>
    </contour>
  </outline>
</glyph>
<glyph name="exclamdown" format="2">
  <advance width="285"/>
  <unicode hex="00A1"/>
  <outline>
    <contour>
      <point x="181" y="421" type="line"/>
      <point x="95" y="421" type="line"/>
      <point x="95" y="509" type="line"/>
      <point x="181" y="509" type="line"/>
    </contour>
    <contour>
      <point x="188" y="-165" type="line"/>
      <point x="89" y="-165" type="line"/>
      <point x="122" y="362" type="line"/>
      <point x="157" y="362" type="line"/>
    </contour>
  </outline>
</glyph>
<glyph name="cent" format="2">
  <advance width="572"/>
  <unicode hex="00A2"/>
  <outline>
    <contour>
      <point x="469" y="276" type="line"/>
      <point x="455" y="206"/>
      <point x="421" y="158"/>
      <point x="366" y="134" type="curve" smooth="yes"/>
      <point x="352" y="128"/>
      <point x="336" y="124"/>
      <point x="319" y="122" type="curve"/>
      <point x="319" y="-25" type="line"/>
      <point x="269" y="-25" type="line"/>
      <point x="269" y="114" type="line"/>
      <point x="203" y="123"/>
      <point x="156" y="162"/>
      <point x="127" y="230" type="curve" smooth="yes"/>
      <point x="111" y="267"/>
      <point x="103" y="307"/>
      <point x="103" y="351" type="curve" smooth="yes"/>
      <point x="103" y="439"/>
      <point x="127" y="505"/>
      <point x="174" y="551" type="curve" smooth="yes"/>
      <point x="200" y="576"/>
      <point x="231" y="592"/>
      <point x="269" y="597" type="curve"/>
      <point x="269" y="726" type="line"/>
      <point x="319" y="726" type="line"/>
      <point x="319" y="597" type="line"/>
      <point x="369" y="592"/>
      <point x="409" y="567"/>
      <point x="439" y="523" type="curve" smooth="yes"/>
      <point x="455" y="500"/>
      <point x="465" y="474"/>
      <point x="469" y="445" type="curve"/>
      <point x="405" y="432" type="line"/>
      <point x="399" y="473"/>
      <point x="383" y="504"/>
      <point x="359" y="527" type="curve" smooth="yes"/>
      <point x="347" y="539"/>
      <point x="334" y="547"/>
      <point x="319" y="548" type="curve"/>
      <point x="319" y="174" type="line"/>
      <point x="356" y="181"/>
      <point x="384" y="206"/>
      <point x="402" y="249" type="curve" smooth="yes"/>
      <point x="407" y="261"/>
      <point x="411" y="273"/>
      <point x="413" y="287" type="curve"/>
    </contour>
    <contour>
      <point x="269" y="185" type="curve"/>
      <point x="269" y="546" type="line"/>
      <point x="202" y="527"/>
      <point x="169" y="465"/>
      <point x="169" y="358" type="curve" smooth="yes"/>
      <point x="169" y="285"/>
      <point x="189" y="234"/>
      <point x="229" y="204" type="curve" smooth="yes"/>
      <point x="240" y="195"/>
      <point x="254" y="188"/>
    </contour>
  </outline>
</glyph>
<glyph name="sterling" format="2">
  <advance width="591"/>
  <unicode hex="00A3"/>
  <outline>
    <contour>
      <point x="589" y="101" type="line"/>
      <point x="554" y="34"/>
      <point x="492" y="0"/>
      <point x="402" y="0" type="curve" smooth="yes"/>
      <point x="3" y="0" type="line"/>
      <point x="3" y="62" type="line"/>
      <point x="54" y="62"/>
      <point x="89" y="66"/>
      <point x="108" y="73" type="curve" smooth="yes"/>
      <point x="121" y="77"/>
      <point x="133" y="83"/>
      <point x="143" y="92" type="curve" smooth="yes"/>
      <point x="182" y="121"/>
      <point x="202" y="166"/>
      <point x="202" y="226" type="curve" smooth="yes"/>
      <point x="202" y="232"/>
      <point x="200" y="269"/>
      <point x="195" y="336" type="curve"/>
      <point x="85" y="336" type="line"/>
      <point x="85" y="384" type="line"/>
      <point x="189" y="384" type="line"/>
      <point x="182" y="475" type="line"/>
      <point x="182" y="481" type="line" smooth="yes"/>
      <point x="182" y="558"/>
      <point x="203" y="620"/>
      <point x="244" y="664" type="curve" smooth="yes"/>
      <point x="275" y="697"/>
      <point x="314" y="713"/>
      <point x="360" y="713" type="curve" smooth="yes"/>
      <point x="424" y="713"/>
      <point x="478" y="685"/>
      <point x="520" y="629" type="curve"/>
      <point x="461" y="581" type="line"/>
      <point x="432" y="625"/>
      <point x="403" y="649"/>
      <point x="374" y="654" type="curve" smooth="yes"/>
      <point x="368" y="655"/>
      <point x="363" y="656"/>
      <point x="357" y="656" type="curve" smooth="yes"/>
      <point x="321" y="656"/>
      <point x="292" y="638"/>
      <point x="272" y="601" type="curve" smooth="yes"/>
      <point x="261" y="581"/>
      <point x="255" y="558"/>
      <point x="255" y="535" type="curve" smooth="yes"/>
      <point x="255" y="523"/>
      <point x="258" y="472"/>
      <point x="264" y="384" type="curve"/>
      <point x="412" y="384" type="line"/>
      <point x="412" y="336" type="line"/>
      <point x="269" y="336" type="line"/>
      <point x="272" y="284"/>
      <point x="273" y="254"/>
      <point x="273" y="245" type="curve" smooth="yes"/>
      <point x="273" y="167"/>
      <point x="251" y="106"/>
      <point x="207" y="62" type="curve"/>
      <point x="351" y="62" type="line" smooth="yes"/>
      <point x="412" y="62"/>
      <point x="455" y="72"/>
      <point x="482" y="93" type="curve" smooth="yes"/>
      <point x="498" y="107"/>
      <point x="511" y="125"/>
      <point x="522" y="148" type="curve"/>
    </contour>
  </outline>
</glyph>
<glyph name="currency" format="2">
  <advance width="579"/>
  <unicode hex="00A4"/>
  <outline>
    <contour>
      <point x="488" y="498" type="line"/>
      <point x="435" y="450" type="line"/>
      <point x="451" y="417"/>
      <point x="459" y="384"/>
      <point x="459" y="350" type="curve" smooth="yes"/>
      <point x="459" y="319"/>
      <point x="450" y="283"/>
      <point x="432" y="241" type="curve"/>
      <point x="483" y="191" type="line"/>
      <point x="431" y="141" type="line"/>
      <point x="387" y="191" type="line"/>
      <point x="353" y="173"/>
      <point x="320" y="164"/>
      <point x="287" y="164" type="curve" smooth="yes"/>
      <point x="259" y="164"/>
      <point x="227" y="170"/>
      <point x="190" y="184" type="curve"/>
      <point x="144" y="137" type="line"/>
      <point x="95" y="191" type="line"/>
      <point x="138" y="234" type="line"/>
      <point x="121" y="263"/>
      <point x="113" y="301"/>
      <point x="113" y="347" type="curve" smooth="yes"/>
      <point x="113" y="397"/>
      <point x="123" y="433"/>
      <point x="143" y="455" type="curve"/>
      <point x="91" y="505" type="line"/>
      <point x="139" y="558" type="line"/>
      <point x="189" y="504" type="line"/>
      <point x="226" y="520"/>
      <point x="257" y="527"/>
      <point x="283" y="527" type="curve" smooth="yes"/>
      <point x="309" y="527"/>
      <point x="340" y="520"/>
      <point x="376" y="504" type="curve"/>
      <point x="434" y="553" type="line"/>
    </contour>
    <contour>
      <point x="389" y="348" type="curve" smooth="yes"/>
      <point x="389" y="394"/>
      <point x="371" y="426"/>
      <point x="334" y="445" type="curve" smooth="yes"/>
      <point x="319" y="454"/>
      <point x="301" y="458"/>
      <point x="282" y="458" type="curve" smooth="yes"/>
      <point x="237" y="458"/>
      <point x="207" y="438"/>
      <point x="190" y="399" type="curve" smooth="yes"/>
      <point x="183" y="383"/>
      <point x="179" y="365"/>
      <point x="179" y="345" type="curve" smooth="yes"/>
      <point x="179" y="297"/>
      <point x="197" y="263"/>
      <point x="234" y="244" type="curve" smooth="yes"/>
      <point x="248" y="237"/>
      <point x="264" y="233"/>
      <point x="282" y="233" type="curve" smooth="yes"/>
      <point x="327" y="233"/>
      <point x="359" y="253"/>
      <point x="377" y="292" type="curve" smooth="yes"/>
      <point x="385" y="309"/>
      <point x="389" y="327"/>
    </contour>
  </outline>
</glyph>
<glyph name="yen" format="2">
  <advance width="597"/>
  <unicode hex="00A5"/>
  <outline>
    <contour>
      <point x="569" y="702" type="line"/>
      <point x="415" y="435" type="line"/>
      <point x="545" y="435" type="line"/>
      <point x="545" y="387" type="line"/>
      <point x="379" y="387" type="line"/>
      <point x="334" y="296" type="line"/>
      <point x="334" y="293" type="line"/>
      <point x="545" y="293" type="line"/>
      <point x="545" y="243" type="line"/>
      <point x="334" y="243" type="line"/>
      <point x="334" y="0" type="line"/>
      <point x="264" y="0" type="line"/>
      <point x="264" y="243" type="line"/>
      <point x="53" y="243" type="line"/>
      <point x="53" y="293" type="line"/>
      <point x="264" y="293" type="line"/>
      <point x="264" y="296" type="line"/>
      <point x="218" y="387" type="line"/>
      <point x="53" y="387" type="line"/>
      <point x="53" y="435" type="line"/>
      <point x="183" y="435" type="line"/>
      <point x="29" y="702" type="line"/>
      <point x="132" y="702" type="line"/>
      <point x="307" y="390" type="line"/>
      <point x="489" y="702" type="line"/>
    </contour>
  </outline>
</glyph>
<glyph name="brokenbar" format="2">
  <advance width="254"/>
  <unicode hex="00A6"/>
  <outline>
    <contour>
      <point x="152" y="333" type="line"/>
      <point x="102" y="333" type="line"/>
      <point x="102" y="691" type="line"/>
      <point x="152" y="691" type="line"/>
    </contour>
    <contour>
      <point x="152" y="-179" type="line"/>
      <point x="102" y="-179" type="line"/>
      <point x="102" y="179" type="line"/>
      <point x="152" y="179" type="line"/>
    </contour>
  </outline>
</glyph>
<glyph name="section" format="2">
  <advance width="581"/>
  <unicode hex="00A7"/>
  <outline>
    <contour>
      <point x="515" y="-0" type="curve" smooth="yes"/>
      <point x="515" y="-67"/>
      <point x="485" y="-118"/>
      <point x="424" y="-153" type="curve" smooth="yes"/>
      <point x="385" y="-176"/>
      <point x="341" y="-187"/>
      <point x="293" y="-187" type="curve" smooth="yes"/>
      <point x="207" y="-187"/>
      <point x="143" y="-159"/>
      <point x="99" y="-104" type="curve" smooth="yes"/>
      <point x="86" y="-87"/>
      <point x="75" y="-69"/>
      <point x="68" y="-47" type="curve"/>
      <point x="147" y="-33" type="line"/>
      <point x="163" y="-76"/>
      <point x="196" y="-107"/>
      <point x="245" y="-124" type="curve" smooth="yes"/>
      <point x="263" y="-130"/>
      <point x="282" y="-133"/>
      <point x="300" y="-133" type="curve" smooth="yes"/>
      <point x="348" y="-133"/>
      <point x="386" y="-118"/>
      <point x="416" y="-88" type="curve" smooth="yes"/>
      <point x="436" y="-67"/>
      <point x="447" y="-43"/>
      <point x="447" y="-15" type="curve" smooth="yes"/>
      <point x="447" y="28"/>
      <point x="421" y="60"/>
      <point x="367" y="83" type="curve" smooth="yes"/>
      <point x="357" y="86"/>
      <point x="315" y="98"/>
      <point x="243" y="117" type="curve" smooth="yes"/>
      <point x="176" y="136"/>
      <point x="132" y="161"/>
      <point x="112" y="192" type="curve" smooth="yes"/>
      <point x="98" y="212"/>
      <point x="91" y="237"/>
      <point x="91" y="267" type="curve" smooth="yes"/>
      <point x="91" y="325"/>
      <point x="117" y="374"/>
      <point x="169" y="415" type="curve" smooth="yes"/>
      <point x="170" y="416"/>
      <point x="171" y="417"/>
      <point x="172" y="418" type="curve"/>
      <point x="127" y="448"/>
      <point x="104" y="493"/>
      <point x="104" y="552" type="curve" smooth="yes"/>
      <point x="104" y="615"/>
      <point x="134" y="660"/>
      <point x="193" y="687" type="curve" smooth="yes"/>
      <point x="222" y="701"/>
      <point x="253" y="707"/>
      <point x="288" y="707" type="curve" smooth="yes"/>
      <point x="362" y="707"/>
      <point x="418" y="685"/>
      <point x="456" y="640" type="curve" smooth="yes"/>
      <point x="472" y="622"/>
      <point x="482" y="602"/>
      <point x="488" y="579" type="curve"/>
      <point x="422" y="571" type="line"/>
      <point x="405" y="618"/>
      <point x="371" y="646"/>
      <point x="319" y="655" type="curve" smooth="yes"/>
      <point x="308" y="657"/>
      <point x="297" y="658"/>
      <point x="286" y="658" type="curve" smooth="yes"/>
      <point x="238" y="658"/>
      <point x="204" y="643"/>
      <point x="183" y="615" type="curve" smooth="yes"/>
      <point x="172" y="601"/>
      <point x="166" y="584"/>
      <point x="166" y="564" type="curve" smooth="yes"/>
      <point x="166" y="520"/>
      <point x="192" y="487"/>
      <point x="244" y="464" type="curve" smooth="yes"/>
      <point x="253" y="460"/>
      <point x="291" y="448"/>
      <point x="358" y="429" type="curve" smooth="yes"/>
      <point x="427" y="411"/>
      <point x="472" y="387"/>
      <point x="494" y="358" type="curve"/>
      <point x="498" y="334" type="line" smooth="yes"/>
      <point x="500" y="318"/>
      <point x="501" y="300"/>
      <point x="501" y="281" type="curve" smooth="yes"/>
      <point x="501" y="232"/>
      <point x="479" y="184"/>
      <point x="434" y="138" type="curve"/>
      <point x="473" y="119"/>
      <point x="498" y="88"/>
      <point x="510" y="43" type="curve" smooth="yes"/>
      <point x="513" y="29"/>
      <point x="515" y="15"/>
    </contour>
    <contour>
      <point x="442" y="259" type="curve" smooth="yes"/>
      <point x="442" y="309"/>
      <point x="407" y="346"/>
      <point x="337" y="370" type="curve" smooth="yes"/>
      <point x="235" y="401" type="line"/>
      <point x="182" y="371"/>
      <point x="156" y="334"/>
      <point x="156" y="291" type="curve" smooth="yes"/>
      <point x="156" y="245"/>
      <point x="183" y="210"/>
      <point x="238" y="189" type="curve" smooth="yes"/>
      <point x="247" y="185"/>
      <point x="260" y="181"/>
      <point x="278" y="175" type="curve" smooth="yes"/>
      <point x="368" y="150" type="line"/>
      <point x="397" y="163"/>
      <point x="419" y="186"/>
      <point x="432" y="218" type="curve" smooth="yes"/>
      <point x="439" y="232"/>
      <point x="442" y="246"/>
    </contour>
  </outline>
</glyph>
<glyph name="dieresis" format="2">
  <advance width="367"/>
  <unicode hex="00A8"/>
  <outline>
    <contour>
      <point x="295" y="681" type="line" smooth="yes"/>
      <point x="295" y="662"/>
      <point x="286" y="649"/>
      <point x="269" y="642" type="curve" smooth="yes"/>
      <point x="263" y="639"/>
      <point x="258" y="638"/>
      <point x="252" y="638" type="curve" smooth="yes"/>
      <point x="234" y="638"/>
      <point x="220" y="646"/>
      <point x="212" y="663" type="curve" smooth="yes"/>
      <point x="210" y="669"/>
      <point x="209" y="675"/>
      <point x="209" y="681" type="curve" smooth="yes"/>
      <point x="209" y="700"/>
      <point x="218" y="713"/>
      <point x="236" y="720" type="curve" smooth="yes"/>
      <point x="241" y="722"/>
      <point x="246" y="723"/>
      <point x="252" y="723" type="curve" smooth="yes"/>
      <point x="269" y="723"/>
      <point x="281" y="715"/>
      <point x="290" y="700" type="curve"/>
      <point x="295" y="685" type="line"/>
    </contour>
    <contour>
      <point x="157" y="681" type="line" smooth="yes"/>
      <point x="157" y="662"/>
      <point x="148" y="649"/>
      <point x="131" y="642" type="curve" smooth="yes"/>
      <point x="125" y="639"/>
      <point x="120" y="638"/>
      <point x="114" y="638" type="curve" smooth="yes"/>
      <point x="96" y="638"/>
      <point x="82" y="646"/>
      <point x="75" y="663" type="curve" smooth="yes"/>
      <point x="73" y="669"/>
      <point x="72" y="675"/>
      <point x="72" y="681" type="curve" smooth="yes"/>
      <point x="72" y="700"/>
      <point x="81" y="713"/>
      <point x="98" y="720" type="curve" smooth="yes"/>
      <point x="104" y="722"/>
      <point x="110" y="723"/>
      <point x="115" y="723" type="curve" smooth="yes"/>
      <point x="132" y="723"/>
      <point x="144" y="715"/>
      <point x="152" y="700" type="curve"/>
      <point x="157" y="685" type="line"/>
    </contour>
  </outline>
</glyph>
<glyph name="copyright" format="2">
  <advance width="722"/>
  <unicode hex="00A9"/>
  <outline>
    <contour>
      <point x="705" y="352" type="curve" smooth="yes"/>
      <point x="705" y="256"/>
      <point x="673" y="173"/>
      <point x="608" y="104" type="curve" smooth="yes"/>
      <point x="546" y="37"/>
      <point x="470" y="2"/>
      <point x="381" y="-3" type="curve" smooth="yes"/>
      <point x="374" y="-4"/>
      <point x="368" y="-4"/>
      <point x="362" y="-4" type="curve" smooth="yes"/>
      <point x="271" y="-4"/>
      <point x="193" y="28"/>
      <point x="126" y="92" type="curve" smooth="yes"/>
      <point x="59" y="157"/>
      <point x="24" y="237"/>
      <point x="18" y="333" type="curve" smooth="yes"/>
      <point x="17" y="340"/>
      <point x="17" y="345"/>
      <point x="17" y="352" type="curve" smooth="yes"/>
      <point x="17" y="449"/>
      <point x="50" y="532"/>
      <point x="116" y="600" type="curve" smooth="yes"/>
      <point x="179" y="666"/>
      <point x="255" y="701"/>
      <point x="344" y="706" type="curve"/>
      <point x="361" y="706" type="line" smooth="yes"/>
      <point x="452" y="706"/>
      <point x="529" y="674"/>
      <point x="595" y="610" type="curve" smooth="yes"/>
      <point x="662" y="546"/>
      <point x="699" y="467"/>
      <point x="704" y="373" type="curve" smooth="yes"/>
      <point x="705" y="366"/>
      <point x="705" y="359"/>
    </contour>
    <contour>
      <point x="648" y="353" type="curve" smooth="yes"/>
      <point x="648" y="439"/>
      <point x="617" y="510"/>
      <point x="557" y="568" type="curve" smooth="yes"/>
      <point x="502" y="621"/>
      <point x="438" y="648"/>
      <point x="362" y="648" type="curve" smooth="yes"/>
      <point x="282" y="648"/>
      <point x="214" y="619"/>
      <point x="158" y="561" type="curve" smooth="yes"/>
      <point x="102" y="504"/>
      <point x="74" y="435"/>
      <point x="74" y="353" type="curve" smooth="yes"/>
      <point x="74" y="265"/>
      <point x="105" y="192"/>
      <point x="165" y="133" type="curve" smooth="yes"/>
      <point x="220" y="80"/>
      <point x="286" y="53"/>
      <point x="362" y="53" type="curve" smooth="yes"/>
      <point x="443" y="53"/>
      <point x="511" y="83"/>
      <point x="567" y="143" type="curve" smooth="yes"/>
      <point x="621" y="201"/>
      <point x="648" y="271"/>
    </contour>
    <contour>
      <point x="537" y="283" type="line"/>
      <point x="531" y="233"/>
      <point x="506" y="196"/>
      <point x="460" y="171" type="curve" smooth="yes"/>
      <point x="435" y="157"/>
      <point x="408" y="150"/>
      <point x="378" y="150" type="curve" smooth="yes"/>
      <point x="311" y="150"/>
      <point x="260" y="176"/>
      <point x="224" y="228" type="curve" smooth="yes"/>
      <point x="199" y="264"/>
      <point x="187" y="307"/>
      <point x="187" y="355" type="curve" smooth="yes"/>
      <point x="187" y="430"/>
      <point x="212" y="486"/>
      <point x="262" y="523" type="curve" smooth="yes"/>
      <point x="293" y="546"/>
      <point x="331" y="557"/>
      <point x="374" y="557" type="curve" smooth="yes"/>
      <point x="435" y="557"/>
      <point x="481" y="536"/>
      <point x="511" y="494" type="curve" smooth="yes"/>
      <point x="524" y="475"/>
      <point x="533" y="454"/>
      <point x="537" y="429" type="curve"/>
      <point x="482" y="429" type="line"/>
      <point x="475" y="472"/>
      <point x="450" y="499"/>
      <point x="408" y="509" type="curve"/>
      <point x="379" y="512" type="line"/>
      <point x="306" y="512"/>
      <point x="262" y="475"/>
      <point x="248" y="401" type="curve" smooth="yes"/>
      <point x="245" y="386"/>
      <point x="244" y="370"/>
      <point x="244" y="352" type="curve" smooth="yes"/>
      <point x="244" y="282"/>
      <point x="267" y="236"/>
      <point x="314" y="210" type="curve" smooth="yes"/>
      <point x="333" y="200"/>
      <point x="356" y="195"/>
      <point x="381" y="195" type="curve" smooth="yes"/>
      <point x="426" y="195"/>
      <point x="456" y="213"/>
      <point x="473" y="250" type="curve" smooth="yes"/>
      <point x="478" y="260"/>
      <point x="481" y="271"/>
      <point x="482" y="283" type="curve"/>
    </contour>
  </outline>
</glyph>
<glyph name="ordfeminine" format="2">
  <advance width="343"/>
  <unicode hex="00AA"/>
  <outline>
    <contour>
      <point x="308" y="391" type="curve"/>
      <point x="256" y="391" type="line"/>
      <point x="256" y="427" type="line"/>
      <point x="236" y="401"/>
      <point x="200" y="388"/>
      <point x="149" y="388" type="curve" smooth="yes"/>
      <point x="103" y="388"/>
      <point x="70" y="402"/>
      <point x="50" y="431" type="curve" smooth="yes"/>
      <point x="41" y="445"/>
      <point x="37" y="461"/>
      <point x="37" y="479" type="curve" smooth="yes"/>
      <point x="37" y="550"/>
      <point x="99" y="588"/>
      <point x="221" y="591" type="curve" smooth="yes"/>
      <point x="233" y="591"/>
      <point x="233" y="591"/>
      <point x="248" y="591" type="curve"/>
      <point x="248" y="616" type="line" smooth="yes"/>
      <point x="248" y="650"/>
      <point x="224" y="667"/>
      <point x="175" y="667" type="curve" smooth="yes"/>
      <point x="129" y="667"/>
      <point x="102" y="653"/>
      <point x="93" y="624" type="curve" smooth="yes"/>
      <point x="92" y="622"/>
      <point x="92" y="621"/>
      <point x="92" y="619" type="curve"/>
      <point x="44" y="626" type="line"/>
      <point x="50" y="669"/>
      <point x="84" y="695"/>
      <point x="145" y="705" type="curve" smooth="yes"/>
      <point x="156" y="707"/>
      <point x="167" y="708"/>
      <point x="179" y="708" type="curve" smooth="yes"/>
      <point x="236" y="708"/>
      <point x="272" y="695"/>
      <point x="288" y="669" type="curve"/>
      <point x="295" y="642" type="line" smooth="yes"/>
      <point x="299" y="625"/>
      <point x="301" y="605"/>
      <point x="301" y="582" type="curve" smooth="yes"/>
      <point x="301" y="497"/>
      <point x="302" y="442"/>
      <point x="305" y="417" type="curve" smooth="yes"/>
      <point x="306" y="408"/>
      <point x="307" y="399"/>
    </contour>
    <contour>
      <point x="248" y="528" type="curve" smooth="yes"/>
      <point x="248" y="553" type="line"/>
      <point x="211" y="553" type="line"/>
      <point x="130" y="550"/>
      <point x="88" y="525"/>
      <point x="85" y="478" type="curve" smooth="yes"/>
      <point x="85" y="454"/>
      <point x="101" y="438"/>
      <point x="134" y="431" type="curve" smooth="yes"/>
      <point x="142" y="430"/>
      <point x="149" y="429"/>
      <point x="156" y="429" type="curve" smooth="yes"/>
      <point x="185" y="429"/>
      <point x="210" y="444"/>
      <point x="230" y="473" type="curve" smooth="yes"/>
      <point x="242" y="491"/>
      <point x="248" y="509"/>
    </contour>
  </outline>
</glyph>
<glyph name="logicalnot" format="2">
  <advance width="601"/>
  <unicode hex="00AC"/>
  <outline>
    <contour>
      <point x="559" y="125" type="line"/>
      <point x="506" y="125" type="line"/>
      <point x="506" y="335" type="line"/>
      <point x="42" y="335" type="line"/>
      <point x="42" y="388" type="line"/>
      <point x="559" y="388" type="line"/>
    </contour>
  </outline>
</glyph>
<glyph name="registered" format="2">
  <advance width="726"/>
  <unicode hex="00AE"/>
  <outline>
    <contour>
      <point x="709" y="352" type="curve" smooth="yes"/>
      <point x="709" y="256"/>
      <point x="676" y="173"/>
      <point x="611" y="104" type="curve" smooth="yes"/>
      <point x="548" y="37"/>
      <point x="472" y="2"/>
      <point x="383" y="-3" type="curve" smooth="yes"/>
      <point x="376" y="-4"/>
      <point x="370" y="-4"/>
      <point x="364" y="-4" type="curve" smooth="yes"/>
      <point x="273" y="-4"/>
      <point x="194" y="28"/>
      <point x="127" y="92" type="curve" smooth="yes"/>
      <point x="60" y="157"/>
      <point x="24" y="237"/>
      <point x="18" y="333" type="curve" smooth="yes"/>
      <point x="17" y="340"/>
      <point x="17" y="345"/>
      <point x="17" y="352" type="curve" smooth="yes"/>
      <point x="17" y="449"/>
      <point x="50" y="532"/>
      <point x="117" y="600" type="curve" smooth="yes"/>
      <point x="180" y="666"/>
      <point x="256" y="701"/>
      <point x="346" y="706" type="curve"/>
      <point x="363" y="706" type="line" smooth="yes"/>
      <point x="454" y="706"/>
      <point x="533" y="674"/>
      <point x="599" y="610" type="curve" smooth="yes"/>
      <point x="667" y="546"/>
      <point x="703" y="467"/>
      <point x="708" y="373" type="curve" smooth="yes"/>
      <point x="709" y="366"/>
      <point x="709" y="359"/>
    </contour>
    <contour>
      <point x="652" y="353" type="curve" smooth="yes"/>
      <point x="652" y="439"/>
      <point x="622" y="510"/>
      <point x="561" y="568" type="curve" smooth="yes"/>
      <point x="506" y="621"/>
      <point x="440" y="648"/>
      <point x="364" y="648" type="curve" smooth="yes"/>
      <point x="283" y="648"/>
      <point x="214" y="619"/>
      <point x="158" y="561" type="curve" smooth="yes"/>
      <point x="102" y="504"/>
      <point x="74" y="435"/>
      <point x="74" y="353" type="curve" smooth="yes"/>
      <point x="74" y="265"/>
      <point x="104" y="192"/>
      <point x="165" y="133" type="curve" smooth="yes"/>
      <point x="221" y="80"/>
      <point x="287" y="53"/>
      <point x="364" y="53" type="curve" smooth="yes"/>
      <point x="445" y="53"/>
      <point x="514" y="83"/>
      <point x="570" y="143" type="curve" smooth="yes"/>
      <point x="624" y="201"/>
      <point x="652" y="271"/>
    </contour>
    <contour>
      <point x="424" y="340" type="curve"/>
      <point x="538" y="147" type="line"/>
      <point x="479" y="147" type="line"/>
      <point x="360" y="340" type="line"/>
      <point x="287" y="340" type="line"/>
      <point x="287" y="147" type="line"/>
      <point x="238" y="147" type="line"/>
      <point x="238" y="549" type="line"/>
      <point x="406" y="549" type="line" smooth="yes"/>
      <point x="497" y="549"/>
      <point x="543" y="514"/>
      <point x="543" y="446" type="curve" smooth="yes"/>
      <point x="543" y="378"/>
      <point x="503" y="343"/>
    </contour>
    <contour>
      <point x="493" y="449" type="curve" smooth="yes"/>
      <point x="493" y="488"/>
      <point x="467" y="509"/>
      <point x="415" y="512" type="curve"/>
      <point x="395" y="512" type="line"/>
      <point x="287" y="512" type="line"/>
      <point x="287" y="381" type="line"/>
      <point x="396" y="381" type="line" smooth="yes"/>
      <point x="446" y="381"/>
      <point x="476" y="392"/>
      <point x="487" y="416" type="curve" smooth="yes"/>
      <point x="491" y="425"/>
      <point x="493" y="436"/>
    </contour>
  </outline>
</glyph>
<glyph name="macron" format="2">
  <advance width="407"/>
  <unicode hex="00AF"/>
  <outline>
    <contour>
      <point x="332" y="678" type="line"/>
      <point x="74" y="678" type="line"/>
      <point x="74" y="727" type="line"/>
      <point x="332" y="727" type="line"/>
    </contour>
  </outline>
</glyph>
<glyph name="degree" format="2">
  <advance width="385"/>
  <unicode hex="00B0"/>
  <outline>
    <contour>
      <point x="334" y="556" type="curve" smooth="yes"/>
      <point x="334" y="508"/>
      <point x="319" y="469"/>
      <point x="288" y="439" type="curve"/>
      <point x="262" y="425" type="line" smooth="yes"/>
      <point x="242" y="416"/>
      <point x="220" y="411"/>
      <point x="197" y="411" type="curve" smooth="yes"/>
      <point x="149" y="411"/>
      <point x="110" y="430"/>
      <point x="81" y="469" type="curve" smooth="yes"/>
      <point x="61" y="495"/>
      <point x="51" y="526"/>
      <point x="51" y="559" type="curve" smooth="yes"/>
      <point x="51" y="608"/>
      <point x="70" y="646"/>
      <point x="107" y="676" type="curve" smooth="yes"/>
      <point x="132" y="697"/>
      <point x="161" y="707"/>
      <point x="193" y="707" type="curve" smooth="yes"/>
      <point x="238" y="707"/>
      <point x="276" y="687"/>
      <point x="305" y="648" type="curve" smooth="yes"/>
      <point x="325" y="620"/>
      <point x="334" y="590"/>
    </contour>
    <contour>
      <point x="284" y="557" type="curve" smooth="yes"/>
      <point x="284" y="592"/>
      <point x="270" y="620"/>
      <point x="241" y="640" type="curve" smooth="yes"/>
      <point x="226" y="650"/>
      <point x="209" y="655"/>
      <point x="192" y="655" type="curve" smooth="yes"/>
      <point x="158" y="655"/>
      <point x="132" y="639"/>
      <point x="114" y="607" type="curve"/>
      <point x="104" y="583" type="line" smooth="yes"/>
      <point x="102" y="575"/>
      <point x="101" y="565"/>
      <point x="101" y="557" type="curve" smooth="yes"/>
      <point x="101" y="522"/>
      <point x="116" y="495"/>
      <point x="145" y="475" type="curve" smooth="yes"/>
      <point x="159" y="466"/>
      <point x="175" y="461"/>
      <point x="192" y="461" type="curve" smooth="yes"/>
      <point x="226" y="461"/>
      <point x="252" y="477"/>
      <point x="271" y="508" type="curve" smooth="yes"/>
      <point x="280" y="523"/>
      <point x="284" y="539"/>
    </contour>
  </outline>
</glyph>
<glyph name="plusminus" format="2">
  <advance width="601"/>
  <unicode hex="00B1"/>
  <outline>
    <contour>
      <point x="558" y="357" type="line"/>
      <point x="327" y="357" type="line"/>
      <point x="327" y="109" type="line"/>
      <point x="273" y="109" type="line"/>
      <point x="273" y="357" type="line"/>
      <point x="42" y="357" type="line"/>
      <point x="42" y="411" type="line"/>
      <point x="273" y="411" type="line"/>
      <point x="273" y="642" type="line"/>
      <point x="327" y="642" type="line"/>
      <point x="327" y="411" type="line"/>
      <point x="558" y="411" type="line"/>
    </contour>
    <contour>
      <point x="558" y="0" type="line"/>
      <point x="42" y="0" type="line"/>
      <point x="42" y="54" type="line"/>
      <point x="558" y="54" type="line"/>
    </contour>
  </outline>
</glyph>
<glyph name="uni00B2" format="2">
  <advance width="355"/>
  <unicode hex="00B2"/>
  <outline>
    <contour>
      <point x="334" y="289" type="line"/>
      <point x="22" y="289" type="line"/>
      <point x="22" y="337" type="line"/>
      <point x="201" y="467" type="line" smooth="yes"/>
      <point x="249" y="502"/>
      <point x="276" y="537"/>
      <point x="282" y="572" type="curve" smooth="yes"/>
      <point x="283" y="579"/>
      <point x="284" y="585"/>
      <point x="284" y="591" type="curve" smooth="yes"/>
      <point x="284" y="627"/>
      <point x="264" y="651"/>
      <point x="225" y="664" type="curve" smooth="yes"/>
      <point x="212" y="669"/>
      <point x="199" y="671"/>
      <point x="184" y="671" type="curve" smooth="yes"/>
      <point x="151" y="671"/>
      <point x="123" y="658"/>
      <point x="100" y="632" type="curve"/>
      <point x="87" y="610" type="line" smooth="yes"/>
      <point x="83" y="602"/>
      <point x="81" y="595"/>
      <point x="80" y="587" type="curve" smooth="yes"/>
      <point x="79" y="584"/>
      <point x="79" y="579"/>
      <point x="79" y="575" type="curve"/>
      <point x="22" y="591" type="line"/>
      <point x="35" y="646"/>
      <point x="68" y="683"/>
      <point x="122" y="699" type="curve" smooth="yes"/>
      <point x="140" y="705"/>
      <point x="159" y="708"/>
      <point x="180" y="708" type="curve" smooth="yes"/>
      <point x="230" y="708"/>
      <point x="270" y="692"/>
      <point x="300" y="661" type="curve" smooth="yes"/>
      <point x="322" y="639"/>
      <point x="333" y="613"/>
      <point x="333" y="582" type="curve" smooth="yes"/>
      <point x="333" y="523"/>
      <point x="303" y="473"/>
      <point x="243" y="430" type="curve" smooth="yes"/>
      <point x="98" y="328" type="line"/>
      <point x="334" y="328" type="line"/>
    </contour>
  </outline>
</glyph>
<glyph name="uni00B3" format="2">
  <advance width="355"/>
  <unicode hex="00B3"/>
  <outline>
    <contour>
      <point x="344" y="403" type="curve" smooth="yes"/>
      <point x="344" y="352"/>
      <point x="315" y="317"/>
      <point x="257" y="296" type="curve" smooth="yes"/>
      <point x="232" y="288"/>
      <point x="205" y="283"/>
      <point x="177" y="283" type="curve" smooth="yes"/>
      <point x="112" y="283"/>
      <point x="64" y="303"/>
      <point x="31" y="343" type="curve" smooth="yes"/>
      <point x="22" y="354"/>
      <point x="15" y="366"/>
      <point x="10" y="379" type="curve"/>
      <point x="64" y="400" type="line"/>
      <point x="81" y="347"/>
      <point x="120" y="321"/>
      <point x="183" y="321" type="curve" smooth="yes"/>
      <point x="218" y="321"/>
      <point x="242" y="325"/>
      <point x="253" y="333" type="curve" smooth="yes"/>
      <point x="280" y="351"/>
      <point x="294" y="373"/>
      <point x="294" y="401" type="curve" smooth="yes"/>
      <point x="294" y="454"/>
      <point x="248" y="482"/>
      <point x="156" y="483" type="curve" smooth="yes"/>
      <point x="124" y="483" type="line"/>
      <point x="124" y="521" type="line"/>
      <point x="173" y="521"/>
      <point x="203" y="522"/>
      <point x="215" y="526" type="curve" smooth="yes"/>
      <point x="224" y="529"/>
      <point x="233" y="533"/>
      <point x="240" y="537" type="curve" smooth="yes"/>
      <point x="268" y="555"/>
      <point x="281" y="574"/>
      <point x="281" y="595" type="curve" smooth="yes"/>
      <point x="281" y="636"/>
      <point x="258" y="661"/>
      <point x="213" y="670" type="curve" smooth="yes"/>
      <point x="205" y="671"/>
      <point x="196" y="672"/>
      <point x="187" y="672" type="curve" smooth="yes"/>
      <point x="144" y="672"/>
      <point x="112" y="655"/>
      <point x="90" y="621" type="curve" smooth="yes"/>
      <point x="86" y="614"/>
      <point x="83" y="607"/>
      <point x="80" y="599" type="curve"/>
      <point x="28" y="617" type="line"/>
      <point x="47" y="666"/>
      <point x="89" y="696"/>
      <point x="150" y="706" type="curve" smooth="yes"/>
      <point x="161" y="708"/>
      <point x="172" y="709"/>
      <point x="184" y="709" type="curve" smooth="yes"/>
      <point x="239" y="709"/>
      <point x="280" y="694"/>
      <point x="307" y="662" type="curve" smooth="yes"/>
      <point x="323" y="644"/>
      <point x="330" y="622"/>
      <point x="330" y="596" type="curve" smooth="yes"/>
      <point x="330" y="564"/>
      <point x="317" y="538"/>
      <point x="289" y="519" type="curve" smooth="yes"/>
      <point x="279" y="512"/>
      <point x="268" y="508"/>
      <point x="257" y="506" type="curve"/>
      <point x="257" y="504" type="line"/>
      <point x="296" y="498"/>
      <point x="322" y="478"/>
      <point x="336" y="444" type="curve" smooth="yes"/>
      <point x="341" y="432"/>
      <point x="344" y="419"/>
    </contour>
  </outline>
</glyph>
<glyph name="acute" format="2">
  <advance width="389"/>
  <unicode hex="00B4"/>
  <outline>
    <contour>
      <point x="311" y="664" type="line"/>
      <point x="91" y="585" type="line"/>
      <point x="71" y="618" type="line"/>
      <point x="276" y="717" type="line"/>
    </contour>
  </outline>
</glyph>
<glyph name="uni00B5" format="2">
  <advance width="520"/>
  <unicode hex="00B5"/>
  <outline>
    <contour>
      <point x="447" y="0" type="line"/>
      <point x="389" y="0" type="line"/>
      <point x="389" y="91" type="line"/>
      <point x="387" y="91" type="line"/>
      <point x="369" y="51"/>
      <point x="337" y="22"/>
      <point x="293" y="4" type="curve" smooth="yes"/>
      <point x="272" y="-4"/>
      <point x="252" y="-8"/>
      <point x="229" y="-8" type="curve" smooth="yes"/>
      <point x="196" y="-8"/>
      <point x="164" y="-1"/>
      <point x="135" y="14" type="curve"/>
      <point x="135" y="-168" type="line"/>
      <point x="71" y="-168" type="line"/>
      <point x="71" y="508" type="line"/>
      <point x="135" y="508" type="line"/>
      <point x="135" y="192" type="line" smooth="yes"/>
      <point x="135" y="101"/>
      <point x="165" y="53"/>
      <point x="226" y="47" type="curve"/>
      <point x="236" y="47" type="line" smooth="yes"/>
      <point x="295" y="47"/>
      <point x="338" y="77"/>
      <point x="364" y="136" type="curve" smooth="yes"/>
      <point x="377" y="165"/>
      <point x="383" y="197"/>
      <point x="383" y="232" type="curve" smooth="yes"/>
      <point x="383" y="508" type="line"/>
      <point x="447" y="508" type="line"/>
    </contour>
  </outline>
</glyph>
<glyph name="paragraph" format="2">
  <advance width="484"/>
  <unicode hex="00B6"/>
  <outline>
    <contour>
      <point x="451" y="642" type="line"/>
      <point x="392" y="642" type="line"/>
      <point x="392" y="-187" type="line"/>
      <point x="338" y="-187" type="line"/>
      <point x="338" y="642" type="line"/>
      <point x="255" y="642" type="line"/>
      <point x="255" y="-187" type="line"/>
      <point x="202" y="-187" type="line"/>
      <point x="202" y="226" type="line"/>
      <point x="159" y="233"/>
      <point x="127" y="245"/>
      <point x="108" y="262" type="curve" smooth="yes"/>
      <point x="94" y="274"/>
      <point x="81" y="291"/>
      <point x="69" y="314" type="curve" smooth="yes"/>
      <point x="45" y="357"/>
      <point x="33" y="403"/>
      <point x="33" y="454" type="curve" smooth="yes"/>
      <point x="33" y="486"/>
      <point x="38" y="518"/>
      <point x="49" y="550" type="curve" smooth="yes"/>
      <point x="66" y="600"/>
      <point x="96" y="639"/>
      <point x="138" y="667" type="curve" smooth="yes"/>
      <point x="166" y="686"/>
      <point x="193" y="695"/>
      <point x="222" y="695" type="curve" smooth="yes"/>
      <point x="451" y="695" type="line"/>
    </contour>
  </outline>
</glyph>
<glyph name="periodcentered" format="2">
  <advance width="224"/>
  <unicode hex="00B7"/>
  <outline>
    <contour>
      <point x="155" y="314" type="curve" smooth="yes"/>
      <point x="155" y="296"/>
      <point x="146" y="283"/>
      <point x="129" y="275" type="curve" smooth="yes"/>
      <point x="123" y="272"/>
      <point x="118" y="271"/>
      <point x="112" y="271" type="curve" smooth="yes"/>
      <point x="94" y="271"/>
      <point x="80" y="280"/>
      <point x="73" y="297" type="curve" smooth="yes"/>
      <point x="71" y="302"/>
      <point x="70" y="308"/>
      <point x="70" y="314" type="curve" smooth="yes"/>
      <point x="70" y="333"/>
      <point x="79" y="346"/>
      <point x="96" y="352" type="curve" smooth="yes"/>
      <point x="102" y="355"/>
      <point x="107" y="356"/>
      <point x="112" y="356" type="curve" smooth="yes"/>
      <point x="129" y="356"/>
      <point x="142" y="349"/>
      <point x="150" y="333" type="curve" smooth="yes"/>
      <point x="153" y="328"/>
      <point x="155" y="321"/>
    </contour>
  </outline>
</glyph>
<glyph name="cedilla" format="2">
  <advance width="317"/>
  <unicode hex="00B8"/>
  <outline>
    <contour>
      <point x="249" y="-101" type="curve" smooth="yes"/>
      <point x="249" y="-138"/>
      <point x="229" y="-161"/>
      <point x="190" y="-171" type="curve" smooth="yes"/>
      <point x="180" y="-174"/>
      <point x="169" y="-175"/>
      <point x="158" y="-175" type="curve" smooth="yes"/>
      <point x="123" y="-175"/>
      <point x="94" y="-169"/>
      <point x="70" y="-156" type="curve"/>
      <point x="81" y="-124" type="line"/>
      <point x="106" y="-138"/>
      <point x="130" y="-144"/>
      <point x="155" y="-144" type="curve" smooth="yes"/>
      <point x="180" y="-144"/>
      <point x="197" y="-136"/>
      <point x="204" y="-119" type="curve" smooth="yes"/>
      <point x="206" y="-114"/>
      <point x="207" y="-109"/>
      <point x="207" y="-104" type="curve" smooth="yes"/>
      <point x="207" y="-76"/>
      <point x="185" y="-62"/>
      <point x="142" y="-62" type="curve" smooth="yes"/>
      <point x="141" y="-62"/>
      <point x="130" y="-62"/>
      <point x="110" y="-64" type="curve"/>
      <point x="132" y="-7" type="line"/>
      <point x="167" y="-7" type="line"/>
      <point x="157" y="-36" type="line"/>
      <point x="161" y="-36" type="line" smooth="yes"/>
      <point x="203" y="-36"/>
      <point x="230" y="-49"/>
      <point x="243" y="-75" type="curve" smooth="yes"/>
      <point x="247" y="-83"/>
      <point x="249" y="-91"/>
    </contour>
  </outline>
</glyph>
<glyph name="uni00B9" format="2">
  <advance width="355"/>
  <unicode hex="00B9"/>
  <outline>
    <contour>
      <point x="331" y="295" type="line"/>
      <point x="25" y="295" type="line"/>
      <point x="25" y="333" type="line"/>
      <point x="157" y="333" type="line"/>
      <point x="157" y="643" type="line"/>
      <point x="122" y="606"/>
      <point x="82" y="576"/>
      <point x="35" y="554" type="curve"/>
      <point x="35" y="606" type="line"/>
      <point x="88" y="633"/>
      <point x="132" y="667"/>
      <point x="167" y="708" type="curve"/>
      <point x="207" y="708" type="line"/>
      <point x="207" y="333" type="line"/>
      <point x="331" y="333" type="line"/>
    </contour>
  </outline>
</glyph>
<glyph name="ordmasculine" format="2">
  <advance width="343"/>
  <unicode hex="00BA"/>
  <outline>
    <contour>
      <point x="311" y="548" type="curve" smooth="yes"/>
      <point x="311" y="487"/>
      <point x="291" y="442"/>
      <point x="251" y="413" type="curve" smooth="yes"/>
      <point x="228" y="397"/>
      <point x="203" y="389"/>
      <point x="172" y="389" type="curve" smooth="yes"/>
      <point x="115" y="389"/>
      <point x="74" y="414"/>
      <point x="50" y="464" type="curve" smooth="yes"/>
      <point x="38" y="488"/>
      <point x="33" y="516"/>
      <point x="33" y="548" type="curve" smooth="yes"/>
      <point x="33" y="607"/>
      <point x="52" y="651"/>
      <point x="90" y="681" type="curve" smooth="yes"/>
      <point x="113" y="698"/>
      <point x="141" y="707"/>
      <point x="172" y="707" type="curve" smooth="yes"/>
      <point x="226" y="707"/>
      <point x="266" y="683"/>
      <point x="291" y="635" type="curve" smooth="yes"/>
      <point x="304" y="610"/>
      <point x="311" y="580"/>
    </contour>
    <contour>
      <point x="261" y="549" type="curve" smooth="yes"/>
      <point x="261" y="595"/>
      <point x="246" y="627"/>
      <point x="217" y="647" type="curve" smooth="yes"/>
      <point x="204" y="655"/>
      <point x="189" y="660"/>
      <point x="172" y="660" type="curve" smooth="yes"/>
      <point x="133" y="660"/>
      <point x="106" y="639"/>
      <point x="91" y="598" type="curve"/>
      <point x="84" y="564" type="line" smooth="yes"/>
      <point x="83" y="559"/>
      <point x="83" y="555"/>
      <point x="83" y="549" type="curve" smooth="yes"/>
      <point x="83" y="500"/>
      <point x="98" y="466"/>
      <point x="129" y="448" type="curve" smooth="yes"/>
      <point x="142" y="440"/>
      <point x="156" y="435"/>
      <point x="172" y="435" type="curve" smooth="yes"/>
      <point x="214" y="435"/>
      <point x="242" y="457"/>
      <point x="255" y="502" type="curve" smooth="yes"/>
      <point x="259" y="516"/>
      <point x="261" y="532"/>
    </contour>
  </outline>
</glyph>
<glyph name="guillemotright" format="2">
  <advance width="409"/>
  <unicode hex="00BB"/>
  <outline>
    <contour>
      <point x="339" y="263" type="line"/>
      <point x="250" y="143" type="line"/>
      <point x="205" y="143" type="line"/>
      <point x="259" y="263" type="line"/>
      <point x="205" y="380" type="line"/>
      <point x="251" y="380" type="line"/>
    </contour>
    <contour>
      <point x="205" y="263" type="line"/>
      <point x="116" y="143" type="line"/>
      <point x="71" y="143" type="line"/>
      <point x="125" y="263" type="line"/>
      <point x="71" y="380" type="line"/>
      <point x="117" y="380" type="line"/>
    </contour>
  </outline>
</glyph>
<glyph name="onequarter" format="2">
  <advance width="895"/>
  <unicode hex="00BC"/>
  <outline>
    <contour>
      <point x="865" y="107" type="line"/>
      <point x="798" y="107" type="line"/>
      <point x="798" y="0" type="line"/>
      <point x="748" y="0" type="line"/>
      <point x="748" y="107" type="line"/>
      <point x="516" y="107" type="line"/>
      <point x="516" y="135" type="line"/>
      <point x="725" y="422" type="line"/>
      <point x="798" y="422" type="line"/>
      <point x="798" y="145" type="line"/>
      <point x="865" y="145" type="line"/>
    </contour>
    <contour>
      <point x="748" y="145" type="line"/>
      <point x="748" y="367" type="line"/>
      <point x="588" y="145" type="line"/>
    </contour>
    <contour>
      <point x="758" y="702" type="line"/>
      <point x="335" y="0" type="line"/>
      <point x="260" y="0" type="line"/>
      <point x="685" y="702" type="line"/>
    </contour>
    <contour>
      <point x="337" y="290" type="line"/>
      <point x="31" y="290" type="line"/>
      <point x="31" y="328" type="line"/>
      <point x="163" y="328" type="line"/>
      <point x="163" y="638" type="line"/>
      <point x="129" y="601"/>
      <point x="88" y="571"/>
      <point x="41" y="549" type="curve"/>
      <point x="41" y="601" type="line"/>
      <point x="94" y="628"/>
      <point x="138" y="661"/>
      <point x="173" y="702" type="curve"/>
      <point x="213" y="702" type="line"/>
      <point x="213" y="328" type="line"/>
      <point x="337" y="328" type="line"/>
    </contour>
  </outline>
</glyph>
<glyph name="onehalf" format="2">
  <advance width="883"/>
  <unicode hex="00BD"/>
  <outline>
    <contour>
      <point x="854" y="0" type="line"/>
      <point x="543" y="0" type="line"/>
      <point x="543" y="49" type="line"/>
      <point x="721" y="180" type="line" smooth="yes"/>
      <point x="769" y="216"/>
      <point x="796" y="251"/>
      <point x="801" y="287" type="curve" smooth="yes"/>
      <point x="802" y="293"/>
      <point x="803" y="299"/>
      <point x="803" y="305" type="curve" smooth="yes"/>
      <point x="803" y="341"/>
      <point x="784" y="367"/>
      <point x="745" y="380" type="curve"/>
      <point x="714" y="387" type="line"/>
      <point x="704" y="387" type="line" smooth="yes"/>
      <point x="671" y="387"/>
      <point x="643" y="373"/>
      <point x="620" y="347" type="curve" smooth="yes"/>
      <point x="606" y="330"/>
      <point x="599" y="311"/>
      <point x="599" y="291" type="curve"/>
      <point x="553" y="303" type="line"/>
      <point x="566" y="360"/>
      <point x="598" y="397"/>
      <point x="650" y="415" type="curve" smooth="yes"/>
      <point x="667" y="421"/>
      <point x="686" y="424"/>
      <point x="706" y="424" type="curve" smooth="yes"/>
      <point x="754" y="424"/>
      <point x="793" y="408"/>
      <point x="822" y="376" type="curve" smooth="yes"/>
      <point x="843" y="354"/>
      <point x="853" y="327"/>
      <point x="853" y="296" type="curve" smooth="yes"/>
      <point x="853" y="236"/>
      <point x="823" y="186"/>
      <point x="763" y="143" type="curve" smooth="yes"/>
      <point x="618" y="38" type="line"/>
      <point x="854" y="38" type="line"/>
    </contour>
    <contour>
      <point x="714" y="698" type="line"/>
      <point x="301" y="0" type="line"/>
      <point x="227" y="0" type="line"/>
      <point x="640" y="698" type="line"/>
    </contour>
    <contour>
      <point x="337" y="284" type="line"/>
      <point x="31" y="284" type="line"/>
      <point x="31" y="322" type="line"/>
      <point x="163" y="322" type="line"/>
      <point x="163" y="634" type="line"/>
      <point x="129" y="597"/>
      <point x="88" y="567"/>
      <point x="41" y="545" type="curve"/>
      <point x="41" y="597" type="line"/>
      <point x="94" y="624"/>
      <point x="138" y="657"/>
      <point x="173" y="698" type="curve"/>
      <point x="213" y="698" type="line"/>
      <point x="213" y="322" type="line"/>
      <point x="337" y="322" type="line"/>
    </contour>
  </outline>
</glyph>
<glyph name="threequarters" format="2">
  <advance width="895"/>
  <unicode hex="00BE"/>
  <outline>
    <contour>
      <point x="865" y="104" type="line"/>
      <point x="798" y="104" type="line"/>
      <point x="798" y="0" type="line"/>
      <point x="748" y="0" type="line"/>
      <point x="748" y="104" type="line"/>
      <point x="516" y="104" type="line"/>
      <point x="516" y="132" type="line"/>
      <point x="725" y="429" type="line"/>
      <point x="798" y="429" type="line"/>
      <point x="798" y="142" type="line"/>
      <point x="865" y="142" type="line"/>
    </contour>
    <contour>
      <point x="748" y="142" type="line"/>
      <point x="748" y="371" type="line"/>
      <point x="588" y="142" type="line"/>
    </contour>
    <contour>
      <point x="750" y="702" type="line"/>
      <point x="333" y="0" type="line"/>
      <point x="266" y="0" type="line"/>
      <point x="675" y="702" type="line"/>
    </contour>
    <contour>
      <point x="365" y="398" type="curve" smooth="yes"/>
      <point x="365" y="346"/>
      <point x="336" y="311"/>
      <point x="278" y="291" type="curve" smooth="yes"/>
      <point x="253" y="282"/>
      <point x="226" y="277"/>
      <point x="198" y="277" type="curve" smooth="yes"/>
      <point x="133" y="277"/>
      <point x="84" y="298"/>
      <point x="51" y="339" type="curve" smooth="yes"/>
      <point x="43" y="350"/>
      <point x="36" y="362"/>
      <point x="31" y="375" type="curve"/>
      <point x="85" y="396" type="line"/>
      <point x="102" y="343"/>
      <point x="141" y="316"/>
      <point x="204" y="316" type="curve" smooth="yes"/>
      <point x="239" y="316"/>
      <point x="262" y="321"/>
      <point x="273" y="329" type="curve" smooth="yes"/>
      <point x="300" y="347"/>
      <point x="314" y="369"/>
      <point x="314" y="397" type="curve" smooth="yes"/>
      <point x="314" y="450"/>
      <point x="268" y="477"/>
      <point x="176" y="478" type="curve" smooth="yes"/>
      <point x="144" y="478" type="line"/>
      <point x="144" y="516" type="line"/>
      <point x="193" y="516"/>
      <point x="223" y="517"/>
      <point x="235" y="521" type="curve" smooth="yes"/>
      <point x="244" y="523"/>
      <point x="253" y="527"/>
      <point x="260" y="531" type="curve" smooth="yes"/>
      <point x="288" y="549"/>
      <point x="301" y="569"/>
      <point x="301" y="590" type="curve" smooth="yes"/>
      <point x="301" y="631"/>
      <point x="278" y="656"/>
      <point x="233" y="664" type="curve" smooth="yes"/>
      <point x="225" y="665"/>
      <point x="217" y="666"/>
      <point x="208" y="666" type="curve" smooth="yes"/>
      <point x="164" y="666"/>
      <point x="132" y="649"/>
      <point x="111" y="615" type="curve" smooth="yes"/>
      <point x="106" y="609"/>
      <point x="103" y="602"/>
      <point x="100" y="594" type="curve"/>
      <point x="48" y="612" type="line"/>
      <point x="68" y="661"/>
      <point x="108" y="690"/>
      <point x="169" y="699" type="curve" smooth="yes"/>
      <point x="180" y="701"/>
      <point x="192" y="702"/>
      <point x="205" y="702" type="curve" smooth="yes"/>
      <point x="260" y="702"/>
      <point x="301" y="686"/>
      <point x="328" y="655" type="curve" smooth="yes"/>
      <point x="343" y="638"/>
      <point x="350" y="617"/>
      <point x="350" y="591" type="curve" smooth="yes"/>
      <point x="350" y="559"/>
      <point x="337" y="533"/>
      <point x="309" y="514" type="curve" smooth="yes"/>
      <point x="299" y="507"/>
      <point x="288" y="503"/>
      <point x="277" y="501" type="curve"/>
      <point x="277" y="499" type="line"/>
      <point x="316" y="492"/>
      <point x="342" y="472"/>
      <point x="357" y="439" type="curve" smooth="yes"/>
      <point x="362" y="427"/>
      <point x="365" y="414"/>
    </contour>
  </outline>
</glyph>
<glyph name="questiondown" format="2">
  <advance width="504"/>
  <unicode hex="00BF"/>
  <outline>
    <contour>
      <point x="312" y="429" type="line"/>
      <point x="229" y="429" type="line"/>
      <point x="229" y="510" type="line"/>
      <point x="312" y="510" type="line"/>
    </contour>
    <contour>
      <point x="468" y="17" type="line"/>
      <point x="455" y="-75"/>
      <point x="413" y="-135"/>
      <point x="342" y="-164" type="curve" smooth="yes"/>
      <point x="315" y="-175"/>
      <point x="286" y="-180"/>
      <point x="252" y="-180" type="curve" smooth="yes"/>
      <point x="185" y="-180"/>
      <point x="132" y="-158"/>
      <point x="92" y="-113" type="curve" smooth="yes"/>
      <point x="61" y="-78"/>
      <point x="46" y="-35"/>
      <point x="46" y="17" type="curve" smooth="yes"/>
      <point x="46" y="98"/>
      <point x="86" y="160"/>
      <point x="166" y="203" type="curve" smooth="yes"/>
      <point x="199" y="221"/>
      <point x="219" y="235"/>
      <point x="228" y="246" type="curve" smooth="yes"/>
      <point x="238" y="259"/>
      <point x="243" y="284"/>
      <point x="243" y="321" type="curve" smooth="yes"/>
      <point x="243" y="328"/>
      <point x="243" y="328"/>
      <point x="243" y="339" type="curve" smooth="yes"/>
      <point x="243" y="341"/>
      <point x="243" y="341"/>
      <point x="243" y="359" type="curve"/>
      <point x="302" y="359" type="line"/>
      <point x="302" y="314" type="line" smooth="yes"/>
      <point x="302" y="263"/>
      <point x="296" y="227"/>
      <point x="284" y="207" type="curve" smooth="yes"/>
      <point x="277" y="194"/>
      <point x="267" y="181"/>
      <point x="253" y="170" type="curve" smooth="yes"/>
      <point x="240" y="162" type="line" smooth="yes"/>
      <point x="197" y="135"/>
      <point x="171" y="117"/>
      <point x="162" y="109" type="curve" smooth="yes"/>
      <point x="133" y="82"/>
      <point x="119" y="49"/>
      <point x="119" y="9" type="curve" smooth="yes"/>
      <point x="119" y="-46"/>
      <point x="142" y="-85"/>
      <point x="188" y="-106" type="curve" smooth="yes"/>
      <point x="209" y="-116"/>
      <point x="232" y="-121"/>
      <point x="257" y="-121" type="curve" smooth="yes"/>
      <point x="321" y="-121"/>
      <point x="366" y="-88"/>
      <point x="392" y="-23" type="curve" smooth="yes"/>
      <point x="398" y="-6"/>
      <point x="403" y="14"/>
      <point x="406" y="35" type="curve"/>
    </contour>
  </outline>
</glyph>
<glyph name="Aacute" format="2">
  <advance width="559"/>
  <unicode hex="00C1"/>
  <outline>
    <contour>
      <point x="403" y="849" type="line"/>
      <point x="183" y="753" type="line"/>
      <point x="163" y="794" type="line"/>
      <point x="369" y="915" type="line"/>
    </contour>
    <contour>
      <point x="554" y="0" type="line"/>
      <point x="478" y="0" type="line"/>
      <point x="408" y="218" type="line"/>
      <point x="147" y="218" type="line"/>
      <point x="85" y="0" type="line"/>
      <point x="11" y="0" type="line"/>
      <point x="239" y="702" type="line"/>
      <point x="331" y="702" type="line"/>
    </contour>
    <contour>
      <point x="397" y="271" type="line"/>
      <point x="290" y="608" type="line"/>
      <point x="172" y="271" type="line"/>
    </contour>
  </outline>
</glyph>
<glyph name="Acircumflex" format="2">
  <advance width="559"/>
  <unicode hex="00C2"/>
  <outline>
    <contour>
      <point x="417" y="790" type="line"/>
      <point x="346" y="779" type="line"/>
      <point x="251" y="843" type="line"/>
      <point x="151" y="779" type="line"/>
      <point x="76" y="790" type="line"/>
      <point x="251" y="915" type="line"/>
    </contour>
    <contour>
      <point x="554" y="0" type="line"/>
      <point x="478" y="0" type="line"/>
      <point x="408" y="218" type="line"/>
      <point x="147" y="218" type="line"/>
      <point x="85" y="0" type="line"/>
      <point x="11" y="0" type="line"/>
      <point x="239" y="702" type="line"/>
      <point x="331" y="702" type="line"/>
    </contour>
    <contour>
      <point x="397" y="271" type="line"/>
      <point x="290" y="608" type="line"/>
      <point x="172" y="271" type="line"/>
    </contour>
  </outline>
</glyph>
<glyph name="Atilde" format="2">
  <advance width="555"/>
  <unicode hex="00C3"/>
  <outline>
    <contour>
      <point x="429" y="859" type="line"/>
      <point x="398" y="834"/>
      <point x="362" y="821"/>
      <point x="323" y="821" type="curve" smooth="yes"/>
      <point x="304" y="821"/>
      <point x="277" y="828"/>
      <point x="241" y="842" type="curve" smooth="yes"/>
      <point x="213" y="853"/>
      <point x="190" y="859"/>
      <point x="171" y="859" type="curve" smooth="yes"/>
      <point x="148" y="859"/>
      <point x="126" y="850"/>
      <point x="106" y="833" type="curve"/>
      <point x="62" y="859" type="line"/>
      <point x="94" y="888"/>
      <point x="132" y="903"/>
      <point x="177" y="905" type="curve" smooth="yes"/>
      <point x="198" y="905"/>
      <point x="229" y="897"/>
      <point x="270" y="883" type="curve" smooth="yes"/>
      <point x="296" y="873"/>
      <point x="316" y="869"/>
      <point x="330" y="869" type="curve" smooth="yes"/>
      <point x="343" y="869"/>
      <point x="364" y="876"/>
      <point x="392" y="890" type="curve"/>
    </contour>
    <contour>
      <point x="551" y="0" type="line"/>
      <point x="478" y="0" type="line"/>
      <point x="408" y="218" type="line"/>
      <point x="147" y="218" type="line"/>
      <point x="85" y="0" type="line"/>
      <point x="11" y="0" type="line"/>
      <point x="239" y="719" type="line"/>
      <point x="331" y="719" type="line"/>
    </contour>
    <contour>
      <point x="397" y="271" type="line"/>
      <point x="290" y="621" type="line"/>
      <point x="172" y="271" type="line"/>
    </contour>
  </outline>
</glyph>
<glyph name="Adieresis" format="2">
  <advance width="514"/>
  <unicode hex="00C4"/>
  <outline>
    <contour>
      <point x="336" y="854" type="line" smooth="yes"/>
      <point x="336" y="835"/>
      <point x="327" y="823"/>
      <point x="310" y="816" type="curve" smooth="yes"/>
      <point x="304" y="813"/>
      <point x="299" y="812"/>
      <point x="293" y="812" type="curve" smooth="yes"/>
      <point x="275" y="812"/>
      <point x="261" y="821"/>
      <point x="253" y="837" type="curve" smooth="yes"/>
      <point x="251" y="843"/>
      <point x="250" y="848"/>
      <point x="250" y="854" type="curve" smooth="yes"/>
      <point x="250" y="873"/>
      <point x="259" y="886"/>
      <point x="277" y="892" type="curve" smooth="yes"/>
      <point x="282" y="894"/>
      <point x="287" y="895"/>
      <point x="293" y="895" type="curve" smooth="yes"/>
      <point x="310" y="895"/>
      <point x="322" y="887"/>
      <point x="331" y="872" type="curve"/>
      <point x="336" y="857" type="line"/>
    </contour>
    <contour>
      <point x="198" y="854" type="line" smooth="yes"/>
      <point x="198" y="835"/>
      <point x="189" y="823"/>
      <point x="172" y="816" type="curve" smooth="yes"/>
      <point x="166" y="813"/>
      <point x="161" y="812"/>
      <point x="155" y="812" type="curve" smooth="yes"/>
      <point x="137" y="812"/>
      <point x="123" y="821"/>
      <point x="116" y="837" type="curve" smooth="yes"/>
      <point x="114" y="843"/>
      <point x="113" y="848"/>
      <point x="113" y="854" type="curve" smooth="yes"/>
      <point x="113" y="873"/>
      <point x="122" y="886"/>
      <point x="139" y="892" type="curve" smooth="yes"/>
      <point x="145" y="894"/>
      <point x="151" y="895"/>
      <point x="156" y="895" type="curve" smooth="yes"/>
      <point x="173" y="895"/>
      <point x="185" y="887"/>
      <point x="193" y="872" type="curve"/>
      <point x="198" y="857" type="line"/>
    </contour>
    <contour>
      <point x="509" y="0" type="line"/>
      <point x="436" y="0" type="line"/>
      <point x="366" y="218" type="line"/>
      <point x="140" y="218" type="line"/>
      <point x="85" y="0" type="line"/>
      <point x="11" y="0" type="line"/>
      <point x="218" y="719" type="line"/>
      <point x="303" y="719" type="line"/>
    </contour>
    <contour>
      <point x="361" y="271" type="line"/>
      <point x="261" y="622" type="line"/>
      <point x="160" y="271" type="line"/>
    </contour>
  </outline>
</glyph>
<glyph name="Aring" format="2">
  <advance width="543"/>
  <unicode hex="00C5"/>
  <outline>
    <contour>
      <point x="320" y="848" type="curve" smooth="yes"/>
      <point x="320" y="815"/>
      <point x="306" y="789"/>
      <point x="278" y="772" type="curve" smooth="yes"/>
      <point x="265" y="764"/>
      <point x="251" y="761"/>
      <point x="236" y="761" type="curve" smooth="yes"/>
      <point x="207" y="761"/>
      <point x="184" y="775"/>
      <point x="167" y="802" type="curve" smooth="yes"/>
      <point x="159" y="816"/>
      <point x="154" y="832"/>
      <point x="154" y="848" type="curve" smooth="yes"/>
      <point x="154" y="880"/>
      <point x="167" y="905"/>
      <point x="193" y="923" type="curve" smooth="yes"/>
      <point x="206" y="932"/>
      <point x="220" y="936"/>
      <point x="236" y="936" type="curve" smooth="yes"/>
      <point x="268" y="936"/>
      <point x="292" y="922"/>
      <point x="308" y="893" type="curve" smooth="yes"/>
      <point x="316" y="879"/>
      <point x="320" y="864"/>
    </contour>
    <contour>
      <point x="285" y="846" type="curve" smooth="yes"/>
      <point x="285" y="868"/>
      <point x="275" y="884"/>
      <point x="256" y="894" type="curve" smooth="yes"/>
      <point x="251" y="897"/>
      <point x="245" y="898"/>
      <point x="238" y="898" type="curve" smooth="yes"/>
      <point x="216" y="898"/>
      <point x="201" y="887"/>
      <point x="194" y="865" type="curve" smooth="yes"/>
      <point x="192" y="859"/>
      <point x="191" y="853"/>
      <point x="191" y="846" type="curve" smooth="yes"/>
      <point x="191" y="823"/>
      <point x="201" y="807"/>
      <point x="220" y="799" type="curve" smooth="yes"/>
      <point x="226" y="797"/>
      <point x="232" y="796"/>
      <point x="238" y="796" type="curve" smooth="yes"/>
      <point x="257" y="796"/>
      <point x="271" y="806"/>
      <point x="280" y="825" type="curve" smooth="yes"/>
      <point x="283" y="832"/>
      <point x="285" y="838"/>
    </contour>
    <contour>
      <point x="539" y="0" type="line"/>
      <point x="460" y="0" type="line"/>
      <point x="390" y="218" type="line"/>
      <point x="147" y="218" type="line"/>
      <point x="85" y="0" type="line"/>
      <point x="11" y="0" type="line"/>
      <point x="230" y="710" type="line"/>
      <point x="318" y="710" type="line"/>
    </contour>
    <contour>
      <point x="383" y="271" type="line"/>
      <point x="276" y="614" type="line"/>
      <point x="168" y="271" type="line"/>
    </contour>
  </outline>
</glyph>
<glyph name="AE" format="2">
  <advance width="965"/>
  <unicode hex="00C6"/>
  <outline>
    <contour>
      <point x="926" y="0" type="line"/>
      <point x="462" y="0" type="line"/>
      <point x="462" y="221" type="line"/>
      <point x="225" y="221" type="line"/>
      <point x="96" y="0" type="line"/>
      <point x="11" y="0" type="line"/>
      <point x="429" y="702" type="line"/>
      <point x="913" y="702" type="line"/>
      <point x="913" y="642" type="line"/>
      <point x="532" y="642" type="line"/>
      <point x="532" y="396" type="line"/>
      <point x="840" y="396" type="line"/>
      <point x="840" y="340" type="line"/>
      <point x="532" y="340" type="line"/>
      <point x="532" y="61" type="line"/>
      <point x="926" y="61" type="line"/>
    </contour>
    <contour>
      <point x="462" y="276" type="line"/>
      <point x="462" y="638" type="line"/>
      <point x="263" y="276" type="line"/>
    </contour>
  </outline>
</glyph>
<glyph name="Ccedilla" format="2">
  <advance width="589"/>
  <unicode hex="00C7"/>
  <outline>
    <contour>
      <point x="544" y="216" type="line"/>
      <point x="512" y="79"/>
      <point x="440" y="5"/>
      <point x="330" y="-3" type="curve" smooth="yes"/>
      <point x="323" y="-4"/>
      <point x="316" y="-4"/>
      <point x="309" y="-4" type="curve"/>
      <point x="302" y="-38" type="line"/>
      <point x="306" y="-38" type="line" smooth="yes"/>
      <point x="348" y="-38"/>
      <point x="375" y="-50"/>
      <point x="388" y="-76" type="curve" smooth="yes"/>
      <point x="392" y="-84"/>
      <point x="394" y="-92"/>
      <point x="394" y="-102" type="curve" smooth="yes"/>
      <point x="394" y="-138"/>
      <point x="374" y="-161"/>
      <point x="334" y="-171" type="curve" smooth="yes"/>
      <point x="325" y="-174"/>
      <point x="314" y="-175"/>
      <point x="303" y="-175" type="curve" smooth="yes"/>
      <point x="268" y="-175"/>
      <point x="238" y="-169"/>
      <point x="214" y="-156" type="curve"/>
      <point x="226" y="-124" type="line"/>
      <point x="251" y="-137"/>
      <point x="275" y="-144"/>
      <point x="299" y="-144" type="curve" smooth="yes"/>
      <point x="324" y="-144"/>
      <point x="341" y="-136"/>
      <point x="349" y="-120" type="curve" smooth="yes"/>
      <point x="351" y="-116"/>
      <point x="352" y="-111"/>
      <point x="352" y="-106" type="curve" smooth="yes"/>
      <point x="352" y="-79"/>
      <point x="330" y="-66"/>
      <point x="287" y="-66" type="curve" smooth="yes"/>
      <point x="286" y="-66"/>
      <point x="275" y="-67"/>
      <point x="254" y="-69" type="curve"/>
      <point x="275" y="-2" type="line"/>
      <point x="187" y="8"/>
      <point x="123" y="62"/>
      <point x="82" y="159" type="curve" smooth="yes"/>
      <point x="56" y="219"/>
      <point x="43" y="284"/>
      <point x="43" y="357" type="curve" smooth="yes"/>
      <point x="43" y="468"/>
      <point x="70" y="556"/>
      <point x="124" y="621" type="curve" smooth="yes"/>
      <point x="172" y="678"/>
      <point x="234" y="706"/>
      <point x="312" y="706" type="curve" smooth="yes"/>
      <point x="403" y="706"/>
      <point x="470" y="665"/>
      <point x="513" y="581" type="curve" smooth="yes"/>
      <point x="527" y="554"/>
      <point x="537" y="524"/>
      <point x="544" y="491" type="curve"/>
      <point x="478" y="475" type="line"/>
      <point x="452" y="576"/>
      <point x="405" y="632"/>
      <point x="337" y="643" type="curve" smooth="yes"/>
      <point x="328" y="644"/>
      <point x="319" y="645"/>
      <point x="309" y="645" type="curve" smooth="yes"/>
      <point x="226" y="645"/>
      <point x="169" y="595"/>
      <point x="139" y="495" type="curve" smooth="yes"/>
      <point x="126" y="451"/>
      <point x="120" y="402"/>
      <point x="120" y="350" type="curve" smooth="yes"/>
      <point x="120" y="258"/>
      <point x="138" y="185"/>
      <point x="176" y="129" type="curve" smooth="yes"/>
      <point x="208" y="81"/>
      <point x="252" y="56"/>
      <point x="305" y="56" type="curve" smooth="yes"/>
      <point x="395" y="56"/>
      <point x="453" y="115"/>
      <point x="480" y="234" type="curve"/>
    </contour>
  </outline>
</glyph>
<glyph name="Egrave" format="2">
  <advance width="555"/>
  <unicode hex="00C8"/>
  <outline>
    <contour>
      <point x="365" y="790" type="line"/>
      <point x="344" y="749" type="line"/>
      <point x="131" y="845" type="line"/>
      <point x="159" y="911" type="line"/>
    </contour>
    <contour>
      <point x="524" y="0" type="line"/>
      <point x="87" y="0" type="line"/>
      <point x="87" y="698" type="line"/>
      <point x="513" y="698" type="line"/>
      <point x="513" y="638" type="line"/>
      <point x="157" y="638" type="line"/>
      <point x="157" y="394" type="line"/>
      <point x="440" y="394" type="line"/>
      <point x="440" y="338" type="line"/>
      <point x="157" y="338" type="line"/>
      <point x="157" y="61" type="line"/>
      <point x="524" y="61" type="line"/>
    </contour>
  </outline>
</glyph>
<glyph name="Eacute" format="2">
  <advance width="555"/>
  <unicode hex="00C9"/>
  <outline>
    <contour>
      <point x="426" y="845" type="line"/>
      <point x="206" y="749" type="line"/>
      <point x="186" y="790" type="line"/>
      <point x="392" y="911" type="line"/>
    </contour>
    <contour>
      <point x="524" y="0" type="line"/>
      <point x="87" y="0" type="line"/>
      <point x="87" y="698" type="line"/>
      <point x="513" y="698" type="line"/>
      <point x="513" y="638" type="line"/>
      <point x="157" y="638" type="line"/>
      <point x="157" y="394" type="line"/>
      <point x="440" y="394" type="line"/>
      <point x="440" y="338" type="line"/>
      <point x="157" y="338" type="line"/>
      <point x="157" y="61" type="line"/>
      <point x="524" y="61" type="line"/>
    </contour>
  </outline>
</glyph>
<glyph name="Ecircumflex" format="2">
  <advance width="555"/>
  <unicode hex="00CA"/>
  <outline>
    <contour>
      <point x="460" y="786" type="line"/>
      <point x="390" y="775" type="line"/>
      <point x="294" y="839" type="line"/>
      <point x="194" y="775" type="line"/>
      <point x="127" y="786" type="line"/>
      <point x="294" y="911" type="line"/>
    </contour>
    <contour>
      <point x="524" y="0" type="line"/>
      <point x="87" y="0" type="line"/>
      <point x="87" y="698" type="line"/>
      <point x="513" y="698" type="line"/>
      <point x="513" y="638" type="line"/>
      <point x="157" y="638" type="line"/>
      <point x="157" y="394" type="line"/>
      <point x="440" y="394" type="line"/>
      <point x="440" y="338" type="line"/>
      <point x="157" y="338" type="line"/>
      <point x="157" y="61" type="line"/>
      <point x="524" y="61" type="line"/>
    </contour>
  </outline>
</glyph>
<glyph name="Edieresis" format="2">
  <advance width="513"/>
  <unicode hex="00CB"/>
  <outline>
    <contour>
      <point x="400" y="854" type="line" smooth="yes"/>
      <point x="400" y="835"/>
      <point x="391" y="823"/>
      <point x="374" y="816" type="curve" smooth="yes"/>
      <point x="368" y="813"/>
      <point x="363" y="812"/>
      <point x="357" y="812" type="curve" smooth="yes"/>
      <point x="339" y="812"/>
      <point x="325" y="821"/>
      <point x="317" y="837" type="curve" smooth="yes"/>
      <point x="315" y="843"/>
      <point x="314" y="848"/>
      <point x="314" y="854" type="curve" smooth="yes"/>
      <point x="314" y="873"/>
      <point x="323" y="886"/>
      <point x="341" y="892" type="curve" smooth="yes"/>
      <point x="346" y="894"/>
      <point x="351" y="895"/>
      <point x="357" y="895" type="curve" smooth="yes"/>
      <point x="374" y="895"/>
      <point x="386" y="887"/>
      <point x="395" y="872" type="curve"/>
      <point x="400" y="857" type="line"/>
    </contour>
    <contour>
      <point x="262" y="854" type="line" smooth="yes"/>
      <point x="262" y="835"/>
      <point x="253" y="823"/>
      <point x="236" y="816" type="curve" smooth="yes"/>
      <point x="230" y="813"/>
      <point x="225" y="812"/>
      <point x="219" y="812" type="curve" smooth="yes"/>
      <point x="201" y="812"/>
      <point x="187" y="821"/>
      <point x="180" y="837" type="curve" smooth="yes"/>
      <point x="178" y="843"/>
      <point x="177" y="848"/>
      <point x="177" y="854" type="curve" smooth="yes"/>
      <point x="177" y="873"/>
      <point x="186" y="886"/>
      <point x="203" y="892" type="curve" smooth="yes"/>
      <point x="209" y="894"/>
      <point x="215" y="895"/>
      <point x="220" y="895" type="curve" smooth="yes"/>
      <point x="237" y="895"/>
      <point x="249" y="887"/>
      <point x="257" y="872" type="curve"/>
      <point x="262" y="857" type="line"/>
    </contour>
    <contour>
      <point x="482" y="0" type="line"/>
      <point x="87" y="0" type="line"/>
      <point x="87" y="698" type="line"/>
      <point x="471" y="698" type="line"/>
      <point x="471" y="638" type="line"/>
      <point x="157" y="638" type="line"/>
      <point x="157" y="394" type="line"/>
      <point x="398" y="394" type="line"/>
      <point x="398" y="338" type="line"/>
      <point x="157" y="338" type="line"/>
      <point x="157" y="61" type="line"/>
      <point x="482" y="61" type="line"/>
    </contour>
  </outline>
</glyph>
<glyph name="Igrave" format="2">
  <advance width="248"/>
  <unicode hex="00CC"/>
  <outline>
    <contour>
      <point x="191" y="794" type="line"/>
      <point x="170" y="753" type="line"/>
      <point x="-32" y="849" type="line"/>
      <point x="3" y="915" type="line"/>
    </contour>
    <contour>
      <point x="158" y="0" type="line"/>
      <point x="88" y="0" type="line"/>
      <point x="88" y="702" type="line"/>
      <point x="158" y="702" type="line"/>
    </contour>
  </outline>
</glyph>
<glyph name="Iacute" format="2">
  <advance width="248"/>
  <unicode hex="00CD"/>
  <outline>
    <contour>
      <point x="252" y="849" type="line"/>
      <point x="50" y="753" type="line"/>
      <point x="30" y="794" type="line"/>
      <point x="218" y="915" type="line"/>
    </contour>
    <contour>
      <point x="158" y="0" type="line"/>
      <point x="88" y="0" type="line"/>
      <point x="88" y="702" type="line"/>
      <point x="158" y="702" type="line"/>
    </contour>
  </outline>
</glyph>
<glyph name="Icircumflex" format="2">
  <advance width="248"/>
  <unicode hex="00CE"/>
  <outline>
    <contour>
      <point x="266" y="790" type="line"/>
      <point x="195" y="779" type="line"/>
      <point x="112" y="843" type="line"/>
      <point x="17" y="779" type="line"/>
      <point x="-57" y="790" type="line"/>
      <point x="112" y="915" type="line"/>
    </contour>
    <contour>
      <point x="158" y="0" type="line"/>
      <point x="88" y="0" type="line"/>
      <point x="88" y="702" type="line"/>
      <point x="158" y="702" type="line"/>
    </contour>
  </outline>
</glyph>
<glyph name="Idieresis" format="2">
  <advance width="214"/>
  <unicode hex="00CF"/>
  <outline>
    <contour>
      <point x="203" y="854" type="line" smooth="yes"/>
      <point x="203" y="835"/>
      <point x="194" y="823"/>
      <point x="177" y="816" type="curve" smooth="yes"/>
      <point x="171" y="813"/>
      <point x="166" y="812"/>
      <point x="160" y="812" type="curve" smooth="yes"/>
      <point x="142" y="812"/>
      <point x="129" y="821"/>
      <point x="121" y="837" type="curve" smooth="yes"/>
      <point x="118" y="843"/>
      <point x="117" y="848"/>
      <point x="117" y="854" type="curve" smooth="yes"/>
      <point x="117" y="873"/>
      <point x="126" y="886"/>
      <point x="144" y="892" type="curve" smooth="yes"/>
      <point x="149" y="894"/>
      <point x="154" y="895"/>
      <point x="160" y="895" type="curve" smooth="yes"/>
      <point x="177" y="895"/>
      <point x="189" y="887"/>
      <point x="198" y="872" type="curve"/>
      <point x="203" y="857" type="line"/>
    </contour>
    <contour>
      <point x="75" y="854" type="line" smooth="yes"/>
      <point x="75" y="835"/>
      <point x="67" y="823"/>
      <point x="50" y="816" type="curve" smooth="yes"/>
      <point x="44" y="813"/>
      <point x="38" y="812"/>
      <point x="32" y="812" type="curve" smooth="yes"/>
      <point x="14" y="812"/>
      <point x="0" y="821"/>
      <point x="-7" y="837" type="curve" smooth="yes"/>
      <point x="-9" y="843"/>
      <point x="-10" y="848"/>
      <point x="-10" y="854" type="curve" smooth="yes"/>
      <point x="-10" y="873"/>
      <point x="-1" y="886"/>
      <point x="17" y="892" type="curve" smooth="yes"/>
      <point x="22" y="894"/>
      <point x="28" y="895"/>
      <point x="33" y="895" type="curve" smooth="yes"/>
      <point x="50" y="895"/>
      <point x="62" y="887"/>
      <point x="70" y="872" type="curve"/>
      <point x="75" y="857" type="line"/>
    </contour>
    <contour>
      <point x="139" y="0" type="line"/>
      <point x="69" y="0" type="line"/>
      <point x="69" y="721" type="line"/>
      <point x="139" y="721" type="line"/>
    </contour>
  </outline>
</glyph>
<glyph name="Eth" format="2">
  <advance width="639"/>
  <unicode hex="00D0"/>
  <outline>
    <contour>
      <point x="600" y="353" type="curve" smooth="yes"/>
      <point x="600" y="247"/>
      <point x="574" y="160"/>
      <point x="520" y="93" type="curve" smooth="yes"/>
      <point x="470" y="31"/>
      <point x="404" y="0"/>
      <point x="322" y="0" type="curve" smooth="yes"/>
      <point x="87" y="0" type="line"/>
      <point x="87" y="342" type="line"/>
      <point x="18" y="342" type="line"/>
      <point x="18" y="404" type="line"/>
      <point x="87" y="404" type="line"/>
      <point x="87" y="702" type="line"/>
      <point x="294" y="702" type="line" smooth="yes"/>
      <point x="374" y="702"/>
      <point x="437" y="682"/>
      <point x="484" y="642" type="curve" smooth="yes"/>
      <point x="496" y="631"/>
      <point x="509" y="618"/>
      <point x="521" y="603" type="curve" smooth="yes"/>
      <point x="574" y="537"/>
      <point x="600" y="454"/>
    </contour>
    <contour>
      <point x="529" y="353" type="curve" smooth="yes"/>
      <point x="529" y="440"/>
      <point x="507" y="512"/>
      <point x="464" y="568" type="curve" smooth="yes"/>
      <point x="431" y="612"/>
      <point x="385" y="637"/>
      <point x="326" y="643" type="curve"/>
      <point x="286" y="644" type="line"/>
      <point x="157" y="644" type="line"/>
      <point x="157" y="404" type="line"/>
      <point x="324" y="404" type="line"/>
      <point x="324" y="342" type="line"/>
      <point x="157" y="342" type="line"/>
      <point x="157" y="60" type="line"/>
      <point x="286" y="60" type="line" smooth="yes"/>
      <point x="364" y="60"/>
      <point x="422" y="83"/>
      <point x="460" y="129" type="curve" smooth="yes"/>
      <point x="466" y="137"/>
      <point x="472" y="145"/>
      <point x="478" y="154" type="curve" smooth="yes"/>
      <point x="512" y="209"/>
      <point x="529" y="275"/>
    </contour>
  </outline>
</glyph>
